<svg xmlns="http://www.w3.org/2000/svg" viewBox="0 0 101.5 101.5"><title>Philadelphia 76ers logo</title><path d="M562.75,512A50.75,50.75,0,1,1,512,461.25,50.73,50.73,0,0,1,562.75,512" transform="translate(-461.25 -461.25)" style="fill:#fff"/><path d="M560.89,512A48.89,48.89,0,1,1,512,463.11,48.89,48.89,0,0,1,560.89,512" transform="translate(-461.25 -461.25)" style="fill:#006bb5"/><polygon points="9.41 59.07 10.42 62.25 13.8 62.25 11.06 64.28 12.08 67.4 9.41 65.47 6.73 67.4 7.75 64.28 4.97 62.25 8.39 62.25 9.41 59.07" style="fill:#fff"/><polygon points="92.13 59.07 93.11 62.25 96.53 62.25 93.75 64.28 94.77 67.4 92.13 65.47 89.42 67.4 90.44 64.28 87.7 62.25 91.08 62.25 92.13 59.07" style="fill:#fff"/><polygon points="21.28 76.16 22.3 79.34 25.68 79.34 22.94 81.37 23.92 84.48 21.28 82.55 18.61 84.48 19.62 81.37 16.85 79.34 20.23 79.34 21.28 76.16" style="fill:#fff"/><polygon points="81.37 76.16 82.35 79.34 85.73 79.34 82.99 81.37 83.97 84.48 81.37 82.55 78.66 84.48 79.68 81.37 76.94 79.34 80.29 79.34 81.37 76.16" style="fill:#fff"/><polygon points="39.79 87.29 40.8 90.47 44.19 90.47 41.45 92.5 42.46 95.61 39.79 93.72 37.15 95.61 38.13 92.47 35.36 90.47 38.77 90.47 39.79 87.29" style="fill:#fff"/><polygon points="62.32 87.29 63.3 90.47 66.69 90.47 63.98 92.5 64.96 95.61 62.32 93.72 59.65 95.61 60.66 92.47 57.89 90.47 61.27 90.47 62.32 87.29" style="fill:#fff"/><path d="M548.64,512.24A36.64,36.64,0,1,1,512,475.6a36.65,36.65,0,0,1,36.64,36.64" transform="translate(-461.25 -461.25)" style="fill:#fff"/><path d="M477.52,519.44a35.23,35.23,0,0,0,41.68,27.27,34.57,34.57,0,0,0,22.26-15.19,36,36,0,0,0,5-26.49,35.22,35.22,0,0,0-41.65-27.27,35.22,35.22,0,0,0-27.3,41.68" transform="translate(-461.25 -461.25)" style="fill:#006bb5"/><path d="M524,484.8a5,5,0,0,1-1.89,4c-6.6-4.87-12.89-7.24-19-7.24a23.75,23.75,0,0,0-3.86.3,34.35,34.35,0,0,1,6.09-1.89,32.56,32.56,0,0,1,16.34.74A6.68,6.68,0,0,1,524,484.8" transform="translate(-461.25 -461.25)" style="fill:#fff"/><path d="M517.11,541.67c6.94-6.36,10.15-20,12.08-28.18l.3-1.29a19.39,19.39,0,0,1,4.6-9.14c7,10.83,6,22,4.26,29A33.16,33.16,0,0,1,512,545.22a20.43,20.43,0,0,0,5.14-3.55" transform="translate(-461.25 -461.25)" style="fill:#fff"/><path d="M529.69,495.32c2.81-2.37,5.07-4.16,6.7-5.31a34,34,0,0,1,7.44,13.4c-1.29-1.73-3-3.42-4.77-3.79a6,6,0,0,0-4.64,1.18,46,46,0,0,0-4.74-5.48" transform="translate(-461.25 -461.25)" style="fill:#fff"/><path d="M479.62,510.75c3.21-8.59,15-12.15,19.39-13.43l.17-.07c1.45-.44,3.52-.78,6-1.22,5.68-.95,12.72-2.17,17-5.31a55.71,55.71,0,0,1,5.28,4.53A521.16,521.16,0,0,0,487.06,534a33.3,33.3,0,0,1-8.15-21.72c.44-.85.71-1.49.71-1.49" transform="translate(-461.25 -461.25)" style="fill:#fff"/><path d="M528.58,494.24c-1.79-1.66-3.55-3.18-5.28-4.53a6.14,6.14,0,0,0,2.2-5,7.33,7.33,0,0,0-1.08-3,34.73,34.73,0,0,1,5.65,3,36.26,36.26,0,0,1,5.24,4.23c-1.66,1.25-3.92,3-6.73,5.38" transform="translate(-461.25 -461.25)" style="fill:#fff"/><path d="M520.86,489.77c-4,2.74-10.59,3.86-15.94,4.77a59.62,59.62,0,0,0-6.12,1.25l-.17.07c-4.23,1.29-14.92,4.47-19.32,12.15a32.49,32.49,0,0,1,5.14-13.84,34.94,34.94,0,0,1,8.86-9.24c7.71-3.32,16.48-3.11,27.54,4.84" transform="translate(-461.25 -461.25)" style="fill:#fff"/><path d="M538.73,501.11c2.3.47,4.8,4.33,6,6.6a32.46,32.46,0,0,1-4,20.84c.17-1.12.3-2.3.41-3.52a36.35,36.35,0,0,0-5.82-22.94,4.57,4.57,0,0,1,3.45-1" transform="translate(-461.25 -461.25)" style="fill:#fff"/><path d="M528.54,496.3a38,38,0,0,1,4.67,5.48,20.62,20.62,0,0,0-5.21,10l-.3,1.29c-1.89,8-5,21.38-11.64,27.4a19.33,19.33,0,0,1-7.78,4.5,32.32,32.32,0,0,1-14.35-5.21,32.92,32.92,0,0,1-5.75-4.77,531.44,531.44,0,0,1,40.36-38.74" transform="translate(-461.25 -461.25)" style="fill:#fff"/><path d="M521.1,522l.91-.24c.54-.17.91-.34.91-1.12s-.17-1.83-.95-1.83-.85,1.39-.85,2.17l0,1Z" transform="translate(-461.25 -461.25)" style="fill:#fff"/><path d="M510.38,521.54c0-2.81-.1-5.24-2-5.24-1.56,0-1.83,2.44-1.83,5.24s-.1,5.24,1.83,5.24c1.62,0,2-2.44,2-5.24" transform="translate(-461.25 -461.25)" style="fill:#fff"/><path d="M521.1,522l.91-.24c.54-.17.91-.34.91-1.12s-.17-1.83-.95-1.83-.85,1.39-.85,2.17l0,1Z" transform="translate(-461.25 -461.25)" style="fill:#fff"/><path d="M506.32,515.08h0a5.24,5.24,0,0,1,4.4-2.1c3.86,0,6.26,3.35,6.26,7.82,0,5.31-3.62,8.49-8.09,8.49-6.87,0-9.34-5.55-9.34-11.94,0-7.41,3.21-13.5,11.2-13.5,3.11,0,5.65,2,5.65,5.07a2.9,2.9,0,0,1-3,3c-2.17,0-2.84-1.79-3.15-3.38-.14-.68.14-2.17-1-2.17-2.33,0-2.71,4.53-2.77,6.23Z" transform="translate(-461.25 -461.25)" style="fill:#fff"/><path d="M510.38,521.54c0-2.81-.1-5.24-2-5.24-1.56,0-1.83,2.44-1.83,5.24s-.1,5.24,1.83,5.24c1.62,0,2-2.44,2-5.24" transform="translate(-461.25 -461.25)" style="fill:#fff"/><path d="M468.79,504.15c1.29.17,1.83,1.08,1.62,2.77l-.17,1.25.71.1c.91.1,1.25.1,1.32-.64l.85.1-.41,3.35-.85-.1c.07-.74-.24-.85-1.15-.91l-2.61-.3c-.91-.1-1.25-.1-1.32.64l-.85-.1.44-3.69C466.66,504.79,467.48,504,468.79,504.15Zm.71,3.55c.14-1.12-.17-1.69-1-1.79s-1.18.34-1.29,1.18c-.07.58.14.71.78.78l1.45.17A1.15,1.15,0,0,1,469.51,507.7Z" transform="translate(-461.25 -461.25)" style="fill:#fff"/><path d="M473.73,500.46c.27-.68,0-.88-.88-1.22l-2.4-1c-.85-.34-1.18-.44-1.45.24l-.78-.3,1.29-3.08.74.3c-.27.68,0,.88.88,1.22l.61.24.95-2.33-.61-.24c-.85-.34-1.18-.44-1.45.24l-.74-.3,1.29-3.08.78.3c-.27.68,0,.88.88,1.22l2.4,1c.85.34,1.18.44,1.45-.24l.78.3-1.29,3.08-.74-.3c.27-.68,0-.88-.88-1.22l-1-.44-.95,2.33,1,.44c.85.34,1.18.44,1.45-.24l.74.3-1.29,3.08Z" transform="translate(-461.25 -461.25)" style="fill:#fff"/><path d="M477,484c-.44.58-.17.85.54,1.39l2.1,1.59c.71.54,1,.68,1.49.14l.68.51-2,2.71-.68-.51c.44-.58.17-.85-.54-1.39l-2.1-1.59c-.71-.54-1-.71-1.49-.14l-.68-.51,2-2.71Z" transform="translate(-461.25 -461.25)" style="fill:#fff"/><path d="M484.53,484.36l-.54-.64c.54-.51.37-.78-.2-1.45l-1.66-2c-.58-.68-.85-.91-1.42-.47l-.54-.64,2.57-2.17.54.64c-.54.51-.37.78.17,1.49l1.89,2.23c.44.54.61.58,1.18.17a3,3,0,0,0,.74-3l.74-.17.74,2.47Z" transform="translate(-461.25 -461.25)" style="fill:#fff"/><path d="M492.51,478.2l-.34-.78c.61-.41.58-.81.58-1.56l-.17-5.21L494,470l3.86,3.79c.44.44.68.64,1.29.44l.34.78-3.08,1.39-.34-.74s0,0,.07,0c.44-.17.58-.37.47-.64a.61.61,0,0,0-.17-.24l-.71-.71-2,.91.14.95a.36.36,0,0,0,.07.2c.14.27.44.3.91.14l.34.74Zm2.5-4.74-1.45-1.56.14,2.17Z" transform="translate(-461.25 -461.25)" style="fill:#fff"/><path d="M502.87,473.19c.71-.14.74-.47.61-1.35l-.37-2.61c-.14-.91-.24-1.22-.95-1.15l-.14-.85,3.42-.51c2.61-.37,4.16.64,4.47,2.81s-.91,3.55-3.48,3.92L503,474ZM505.3,472c.1.68.2.85.91.74,1.35-.17,2.06-1.25,1.83-2.88s-1.22-2.44-2.57-2.23c-.71.1-.78.3-.68.95Z" transform="translate(-461.25 -461.25)" style="fill:#fff"/><path d="M514.71,472.21c.74.1.85-.24.95-1.15l.37-2.61c.14-.91.14-1.25-.61-1.35l.14-.85,5.62.81.61,2.17-.68.24a3.14,3.14,0,0,0-2.37-1.93c-.68-.1-.78.1-.88.74l-.17.95.3.07c.71.1.91-.1,1.08-.91l.71.1-.44,3-.71-.1c0-.81-.2-1.18-.78-1.29l-.3-.07-.2,1.59c-.1.64,0,.88.64.95a3.48,3.48,0,0,0,3.08-1.42l.58.44-1.35,2.17-5.72-.85Z" transform="translate(-461.25 -461.25)" style="fill:#fff"/><path d="M525.23,475.19l.34-.78c.68.27.88,0,1.25-.85l1-2.37c.37-.85.47-1.15-.2-1.45L528,469l3.08,1.32-.34.78c-.68-.27-.88,0-1.25.85l-1.18,2.67c-.27.61-.24.85.37,1.12a3,3,0,0,0,3-.64l.47.58-1.89,1.76Z" transform="translate(-461.25 -461.25)" style="fill:#fff"/><path d="M542.48,480.16c-.85,1-1.89,1-3.21-.1l-.95-.78-.44.54c-.54.71-.74,1-.17,1.49l-.54.64-2.64-2.1.54-.64c.58.44.85.2,1.42-.47l1.62-2c.54-.71.74-1,.17-1.49l.54-.64,2.88,2.33C543.06,478,543.33,479.11,542.48,480.16Zm-3.42-1.32c.88.71,1.56.74,2,.14a1.12,1.12,0,0,0-.3-1.69c-.47-.37-.68-.24-1.08.24l-.91,1.15A.53.53,0,0,1,539.07,478.84Z" transform="translate(-461.25 -461.25)" style="fill:#fff"/><path d="M543,486.25c.44.58.74.47,1.49-.07l2.13-1.52c.74-.54,1-.78.58-1.35l.68-.47,1.93,2.74-.68.47c-.44-.58-.74-.47-1.49.07l-.54.41,1.45,2.06.54-.41c.74-.54,1-.78.58-1.35l.68-.47,1.93,2.74-.68.47c-.44-.58-.74-.47-1.49.07L548,491.16c-.74.54-1,.78-.58,1.35l-.68.47-1.93-2.74.68-.47c.44.58.74.47,1.49-.07l.91-.64L546.41,487l-.91.64c-.74.54-1,.78-.58,1.35l-.68.47-1.93-2.74Z" transform="translate(-461.25 -461.25)" style="fill:#fff"/><path d="M555.21,497.79c-.27-.68-.61-.61-1.45-.27l-2.44.91c-.85.34-1.15.51-.91,1.22l-.78.3-1.22-3.11.78-.3c.27.68.61.61,1.45.27l2.44-.91c.85-.34,1.15-.51.91-1.18l.78-.3,1.22,3.11Z" transform="translate(-461.25 -461.25)" style="fill:#fff"/><path d="M550.84,503.61l.85-.14c.17.71.61.81,1.29,1l5,1.35.17,1.52L553.38,510c-.54.27-.81.47-.81,1.08l-.85.14-.44-3.35.81-.1v.07c.07.47.17.68.47.61a.45.45,0,0,0,.27-.1l.91-.47-.27-2.17-.95-.17c-.07,0-.17,0-.2,0-.3,0-.44.3-.37.85l-.81.1Zm3.79,3.82,1.93-.91-2.1-.54Z" transform="translate(-461.25 -461.25)" style="fill:#fff"/><path d="M532.57,516.53a2.29,2.29,0,0,0-1.76.81,1.37,1.37,0,0,0-.17-.3l-.37-.71L525,517.89v2.88h1.12a3.41,3.41,0,0,1,.14,1.25v3.35l-.95.14v3.15h7.31V525.5l-.95-.14v-1a14.2,14.2,0,0,1,.27-2.27,2.63,2.63,0,0,0,.95.17c1.29,0,2.23-1.18,2.23-2.84S534.13,516.53,532.57,516.53Z" transform="translate(-461.25 -461.25)" style="fill:#fff"/><path d="M541.74,519.88a1.7,1.7,0,0,1-.1-.47c0-.88-.34-2.88-3.52-2.88-1.76,0-5.24,1.35-5.24,4.53a4.2,4.2,0,0,0,.85,2.67,2.48,2.48,0,0,0-1.12,2.17c0,1.15.54,3,4.4,3,3.28,0,5.14-1.69,5.14-4.64A15.38,15.38,0,0,0,541.74,519.88Z" transform="translate(-461.25 -461.25)" style="fill:#fff"/><path d="M503.17,502.93a1.15,1.15,0,0,0-.81-.37,1.78,1.78,0,0,0-1.32.81,8.21,8.21,0,0,1-6.09,2.5,13.6,13.6,0,0,1-9.2-4,1.13,1.13,0,0,0-.78-.3c-1.29,0-1.62,2.06-1.62,2.1V514.1l.85.14a20,20,0,0,0,8.36-.3c-2.67,2.37-8.7,8.9-8.59,15.12,0,1.15.71,1.29,1,1.29a1.38,1.38,0,0,0,.81-.34.74.74,0,0,1,.17-.14,6.66,6.66,0,0,1,3.82-1,8.32,8.32,0,0,1,3.55.71,1.3,1.3,0,0,0,.64.17,1.1,1.1,0,0,0,.78-.34,1.4,1.4,0,0,0,.27-1.15c-.44-4.53.54-9.44,2.47-12.28l.27-.44c1.62-2.4,5-7.44,5.65-11.6A1,1,0,0,0,503.17,502.93Z" transform="translate(-461.25 -461.25)" style="fill:#fff"/><path d="M527.43,522.89l-.07-.81c0-.54-.14-1-.2-1.49l0-.91-.17.24a5,5,0,0,0-4.84-3.45c-3.38,0-5.75,2.67-5.75,6.5,0,2.94,1.73,5.92,5.58,5.92a6.08,6.08,0,0,0,5.24-2.88l.17-.24-.14-2.84Zm-4.06,1.83a.89.89,0,0,1-.78-.54l1.89-.51A4.07,4.07,0,0,1,523.37,524.72Z" transform="translate(-461.25 -461.25)" style="fill:#fff"/><path d="M514.88,513.62c-.17-.27-.41-.58-.58-.85a3.75,3.75,0,0,0,3.11-3.82c0-3.45-2.84-6.06-6.67-6.06-7.61,0-12.15,5.41-12.15,14.45,0,8.19,3.79,12.89,10.32,12.89,5.31,0,9-3.89,9-9.47C518,518,516.09,515.42,514.88,513.62Z" transform="translate(-461.25 -461.25)" style="fill:#fff"/><path d="M523.37,525.7a2.18,2.18,0,0,1-2-2.17l5.08-1.35c-.17-2.47-1.59-4.67-4.26-4.67-2.88,0-4.77,2.23-4.77,5.55,0,2.57,1.49,4.91,4.57,4.91a5.16,5.16,0,0,0,4.43-2.4l-1-1.22A2.44,2.44,0,0,1,523.37,525.7ZM521.14,521c0-.78,0-2.17.85-2.17s.95,1.18.95,1.83-.37.95-.91,1.12l-.91.24,0-1Z" transform="translate(-461.25 -461.25)" style="fill:#006bb5"/><path d="M531.72,527.66h-5.35v-1.35l.95-.14V522c0-1.49-.17-2.23-1.29-2.23v-1.18l3.82-1.12a7.05,7.05,0,0,1,.61,2.77h0c.37-1.15.88-2.74,2.1-2.74s1.59.85,1.59,1.86-.47,1.89-1.25,1.89a3.58,3.58,0,0,1-1.29-.3c-.68-.24-.91,2.77-.91,3.42v1.83l.95.14v1.35Z" transform="translate(-461.25 -461.25)" style="fill:#006bb5"/><path d="M540.69,519.44c0,.85-.71,1.25-1.49,1.25a1.81,1.81,0,0,1-1.73-1.62c-.41,0-.68.2-.68.88,0,1.56,4.4.44,4.4,4.36,0,2.94-2.13,3.69-4.16,3.69-1.25,0-3.45-.17-3.45-2.06a1.34,1.34,0,0,1,1.32-1.52c1.32,0,1.56,1.22,1.79,2.06a.41.41,0,0,0,.44.27c.71,0,1.22-.27,1.22-.74,0-1.76-4.5-1.08-4.5-4.91,0-2.44,2.88-3.52,4.26-3.52,1.59,0,2.57.47,2.57,1.86" transform="translate(-461.25 -461.25)" style="fill:#006bb5"/><path d="M510.75,512.95a5.13,5.13,0,0,0-4.36,2.1h0l.17-2.47c.1-1.66.47-6.23,2.77-6.23,1.12,0,.88,1.49,1,2.17.3,1.59,1,3.38,3.15,3.38a2.88,2.88,0,0,0,3-3c0-3.08-2.57-5.07-5.65-5.07-8,0-11.2,6.09-11.2,13.5,0,6.39,2.47,11.94,9.34,11.94,4.47,0,8.09-3.15,8.09-8.49C517,516.3,514.64,512.95,510.75,512.95Zm-2.37,13.84c-1.93,0-1.83-2.44-1.83-5.24s.27-5.24,1.83-5.24c1.93,0,2,2.44,2,5.24S510,526.79,508.38,526.79Z" transform="translate(-461.25 -461.25)" style="fill:#006bb5"/><path d="M484.36,503.78v9.51c5.31.78,11.71.27,16.17-6.33.17-.27.3-.1.17.17-1.29,2.57-4.23,4.91-6.8,6.94s-9.1,8.9-9,15c0,.47,0,.34.44,0,2-1.49,6-1.56,8.36-.37.34.17.37.14.3-.34-.47-4.74.58-9.91,2.64-12.89,1.39-2.06,5.18-7.44,5.82-11.64q.1-.66-.71.2c-4.26,4.53-12,4.4-17-.37-.27-.34-.41-.2-.44.1" transform="translate(-461.25 -461.25)" style="fill:#ec174c"/><circle cx="32.34" cy="36.78" r="9.13" style="fill:#fff"/><polygon points="32.34 28.01 32.65 28.96 33.7 28.96 32.82 29.57 33.16 30.52 32.34 29.94 31.53 30.52 31.84 29.57 30.99 28.96 32.04 28.96 32.34 28.01" style="fill:#006bb5"/><polygon points="38.44 31.53 38.74 32.48 39.75 32.48 38.94 33.12 39.25 34.07 38.44 33.49 37.59 34.07 37.93 33.12 37.08 32.48 38.13 32.48 38.44 31.53" style="fill:#006bb5"/><polygon points="35.8 28.83 36.1 29.77 37.15 29.77 36.34 30.38 36.64 31.36 35.8 30.75 34.98 31.36 35.32 30.38 34.48 29.77 35.49 29.77 35.8 28.83" style="fill:#006bb5"/><polygon points="39.42 34.88 39.72 35.83 40.77 35.83 39.92 36.44 40.23 37.42 39.42 36.81 38.6 37.42 38.94 36.44 38.06 35.83 39.08 35.83 39.42 34.88" style="fill:#006bb5"/><polygon points="38.98 38.4 39.31 39.38 40.33 39.38 39.48 40.02 39.79 40.94 38.98 40.36 38.2 40.94 38.47 39.99 37.62 39.38 38.67 39.38 38.98 38.4" style="fill:#006bb5"/><polygon points="37.05 41.24 37.32 42.22 38.37 42.22 37.52 42.83 37.86 43.75 37.05 43.17 36.2 43.75 36.51 42.83 35.69 42.22 36.74 42.22 37.05 41.24" style="fill:#006bb5"/><polygon points="33.94 42.83 34.27 43.78 35.32 43.78 34.48 44.42 34.78 45.37 33.94 44.76 33.16 45.37 33.46 44.42 32.62 43.78 33.63 43.78 33.94 42.83" style="fill:#006bb5"/><polygon points="26.15 31.23 25.85 32.18 24.83 32.18 25.65 32.82 25.34 33.77 26.15 33.16 27 33.77 26.66 32.82 27.51 32.18 26.46 32.18 26.15 31.23" style="fill:#006bb5"/><polygon points="28.72 28.83 28.42 29.77 27.37 29.77 28.18 30.38 27.88 31.36 28.72 30.75 29.54 31.36 29.2 30.38 30.04 29.77 29.03 29.77 28.72 28.83" style="fill:#006bb5"/><polygon points="24.97 34.44 24.66 35.39 23.65 35.39 24.46 36.03 24.16 36.98 24.97 36.41 25.78 36.98 25.51 36.03 26.32 35.39 25.27 35.39 24.97 34.44" style="fill:#006bb5"/><polygon points="25.27 37.96 24.97 38.98 23.95 38.98 24.8 39.55 24.46 40.5 25.27 39.92 26.12 40.5 25.82 39.55 26.66 38.98 25.58 38.98 25.27 37.96" style="fill:#006bb5"/><polygon points="27.24 40.87 26.96 41.85 25.92 41.85 26.73 42.46 26.42 43.37 27.24 42.8 28.08 43.37 27.74 42.46 28.59 41.85 27.57 41.85 27.24 40.87" style="fill:#006bb5"/><polygon points="30.32 42.7 30.01 43.68 28.96 43.68 29.81 44.29 29.54 45.23 30.28 44.66 31.13 45.23 30.82 44.29 31.67 43.68 30.62 43.68 30.32 42.7" style="fill:#006bb5"/></svg>