<?xml version="1.0" encoding="utf-8"?>
<!-- Generator: Adobe Illustrator 17.1.0, SVG Export Plug-In . SVG Version: 6.00 Build 0)  -->
<!DOCTYPE svg PUBLIC "-//W3C//DTD SVG 1.1//EN" "http://www.w3.org/Graphics/SVG/1.1/DTD/svg11.dtd">
<svg version="1.1" id="Layer_1" xmlns="http://www.w3.org/2000/svg" xmlns:xlink="http://www.w3.org/1999/xlink" x="0px" y="0px"
	 width="300px" height="300px" viewBox="0 0 300 300" enable-background="new 0 0 300 300" xml:space="preserve">
<g>
	<path fill="#FCB831" d="M17.3,144.2l29.3-7.7c0,0-19.6,20.7-28.6,53.2c-1.6,5.7-5.1,30.4,3.2,44.5c2.1,3.6,10.6,24.3,47.5,31.1
		c8.7,1.6,33.7,3.5,70.9-8.2c3.9-1.2,35.8-11.6,67-31.1c5.4-3.4,26.1-16.6,43.4-31.1c1.3-1.1,1.9-1.7,2.3-3.7
		c0.4-2,7.9-39.6,7.9-39.6s-16.7,10.9-53.2,24.2c-4.7,1.7-40.1,15.6-54.3,19.9c-14.2,4.2-37.7,11.5-51.4,12.3
		c-13.7,0.8-15.6-2.8-13.6-11.5c2.1-8.7,9.2-21.4,27.1-46.2c2.8-3.9,24.2-30.7,43.2-43.8c4.2-2.9,23.9-18.2,46.7-25.1
		c3.9-1.2,9.7-2.4,10.9-2.5s1.5,0.5,0.8,2.8c-0.8,2.2-11.9,24.1-26.7,53.1c0,0,4.8-1.6,12.2-6.2c7.4-4.6,36.3-21.2,39-22.7
		c2.7-1.5,48.8-28.7,48.8-28.7l0.6-19.7c0,0-14.8-22-51.9-27c-8-1.1-36.2-1.6-67.5,8.1c-3.3,1-34.1,9.9-78.5,35
		c-5.9,3.3-29,17-48.9,32.8c-2.5,2-4,3.9-4.8,5.2C37.7,112.8,17.3,144.2,17.3,144.2z"/>
	<path fill="#00295F" d="M45.5,118c0,0-3.2,3.2-4.9,6.1c-1.8,2.9-5.9,8.2-5.9,8.2l23.7-5.8L71.7,112L45.5,118z"/>
	<path fill="#86003A" d="M85.5,104.6l-40,9.6c0,0,9.1-8.1,25.8-19.3s45.3-28,75.4-40.1c5.4-2.2,37.4-15.3,65.3-17
		c7-0.4,44.2-4.9,68.1,19.5l-62,37.8c0,0,7.6-14.6,7.6-23.1c-0.1-8.6-2.7-12.4-10.9-13.7c-8.2-1.3-26.7,2.2-52,17.4
		c-2.5,1.5-27.2,14.6-55.4,48.2c-2.7,3.2-29.2,34.2-36.8,60.5c-1.4,4.7-4.1,20.3,6.9,26.2c4.7,2.5,11.6,5.8,30.7,3.5
		s32.2-7.1,64.7-17.7c4.4-1.4,35.3-12.3,73.6-29.1c0,0-20.4,19.8-59.7,42.5c-4.5,2.6-38,22.7-76.2,30.5c-7.6,1.6-40.2,8.4-62.6-2.9
		c-6-3-18.3-9.1-21.9-27c-0.9-4.6-2.4-19.7,7.8-40C36.4,165.6,46.5,142.1,85.5,104.6z"/>
	<path fill="#00295F" d="M220.7,71.7c0,0,0.5-8.1-5.4-9.6c-5.9-1.5-17,0.4-34.4,8.5c-6.1,2.8-31.1,15.6-50.2,34.8
		c-5.3,5.3-20.7,19.8-41.7,50.9c-4,6-8.9,15.7-10.9,20.1s-8.3,21.8,1.7,28.8c0,0-0.7-9,3.9-19.6c4.6-10.6,15.2-26.4,25.4-40
		c10.2-13.6,25.4-30.7,42.8-44S201.4,69.9,220.7,71.7z"/>
	<path fill="#00295F" d="M207.4,119.1l76.1-45.8V59.9c0,0-63,38.6-64.4,39.5c-1.5,0.8-2.5,2.2-3.5,4.1S207.4,119.1,207.4,119.1z"/>
	<path fill="#00295F" d="M249.7,170.1c0,0-1.7,11.4-4.2,18.6c0,0-25.7,23.3-60.3,41c-3.9,2-29.4,16-59,23.4
		c-4.9,1.2-40.5,10.9-67.4,2.3c-6.3-2-25.8-8.9-32.1-27.6c0,0,10.2,15.4,37.5,20c6.4,1.1,32.1,2.6,61.1-5.9
		c5.1-1.5,31.1-9.5,59.3-24.7C189.2,214.7,219.3,198.4,249.7,170.1z"/>
</g>
</svg>
