<svg xmlns="http://www.w3.org/2000/svg" viewBox="0 0 330.6 345.1"><title>Dallas Mavericks logo</title><path d="M665,516.55l9.1-22.5-30.3,17a241.72,241.72,0,0,1-21.9,10.5,424,424,0,0,0,17.8-54.1c10.7-41,16.5-86.1,16.7-88l2.3-18.2s-57.1,15.8-62.6,17.4c-20.3-24.6-51.6-39.2-84.4-39.2-33,0-64.3,14.7-84.6,39.4l-63-17.6,2.4,18.3c.1.5,6.1,46.8,17.3,88.4a446,446,0,0,0,17.9,52.3c-13.7-5.8-25.2-11.3-25.3-11.3l-28.1-13.5s6.7,17,8.6,21.7c-.4-.1-10.2-3.9-10.2-3.9l9.4,25.4v-.1c.6,1.9,4.6,12.7,35.1,94.7l4.2,11.3s6.8-2.2,8.8-2.8c1.7,4.5,6.1,16.4,6.1,16.4l12.3-6.3c9.4-4.8,29.4-13,45.7-15.6,19.3,26.5,34.4,40.2,35.1,40.8l8.3,7.5,8.2-7.7c.7-.6,15.9-15,34.8-40.7,18.1,2.4,33.6,9.7,41.4,14.1l12,6.6,5.2-12.6s.6-1.5,1.3-3.2c1,.3,6.8,2.3,6.8,2.3l4.4-11.3c.9-2.2,20.3-47.7,39-91.6l12.5-29.3C677.2,511.25,665.1,516.55,665,516.55Z" transform="translate(-346.7 -339.45)" style="fill:#fff"/><path d="M646.3,515.45a279,279,0,0,1-33.5,15.3,441.45,441.45,0,0,0,22.1-64.6h0c10.7-41,16.5-86.9,16.6-87.4l1.3-10.7L642.4,371s-127.9,35.5-131.7,36.5c-3.7-1-140.7-39.4-140.7-39.4l1.4,10.8c.1.5,6,46.3,17.2,87.8,6.8,25.1,14.6,44.4,22.3,62.8-18.3-7.2-36.5-15.9-36.8-16l-16.5-7.9,6.8,17.1c16.3,41,24.5,63.5,35,92l13.5,36.6,7.2-3.7c10.8-5.5,33.1-14.4,50.3-16.5,19.8,27.7,35.5,41.9,36.1,42.5l4.9,4.4,4.8-4.5c.7-.7,16.6-15.7,36-42.4,20.1,2.1,37.3,10.2,46.1,15.1l7,3.9,3.1-7.4c8-19.3,47.5-117.1,47.9-118.1l7.7-18.9Z" transform="translate(-346.7 -339.45)" style="fill:#061922"/><path d="M660.7,520.15c-.3.1-32,13.6-57.9,20.1,10.1-23.3,18.9-44.3,27-75.4h0c10.6-40.7,16.4-86.3,16.5-86.7l.4-3.1-3.1.8-133,36.9-134.7-37.7.4,3.2c.1.5,6,46,17.1,87.1,7.3,26.9,15.8,47.3,24.1,67,0,0,1.5,3.5,2.7,6.5-22.4-5.7-52.7-16.3-53.1-16.4l-4.3-1.5,1.6,4.2c13.3,35.4,20.1,54.4,27.3,74.5l14.6,40.5,1.9-.6c20.7-6.4,47.4-11.5,64.1-13.7,19.3,27.9,37.2,43.6,37.4,43.8l1.4,1.2,1.4-1.3c.2-.2,17.3-15.7,37.1-43.5,17.2,1.1,49.2,8.4,61.4,13.2l1.9.8.8-1.9c8-19.3,49.2-114.2,49.6-115.2l2.1-4.9Z" transform="translate(-346.7 -339.45)" style="fill:#fff"/><path d="M595.6,546.25l1.7-3.8c11.2-25.8,20-46.1,28.5-78.6h0c9-34.3,14.4-72,15.9-83-5.9,1.6-130.5,36.2-130.5,36.2l-.6.2s-123.7-34.6-129.6-36.3c1.5,11,7.2,48.8,16.5,83.4,7.2,26.7,15.7,46.9,23.9,66.4l5.9,14.2,47.1,76.5.7,1.1a269.26,269.26,0,0,0,36,42.8,315.78,315.78,0,0,0,35.8-42.5l.7-1Z" transform="translate(-346.7 -339.45)" style="fill:#bbc4ca"/><path d="M421.7,500c-1.3-1.8-6.7-10.5-6.7-25h0v-1.3h0a93.29,93.29,0,0,1-5.8-32.2h0c0-26.8,11.5-51.1,30-68.8h0a105.12,105.12,0,0,1,72.4-28.5h0a104.93,104.93,0,0,1,72.4,28.5h0c18.6,17.6,30,41.9,30,68.8h0a94,94,0,0,1-4.5,28.6h0a91.43,91.43,0,0,1-14.8,50h0a7.92,7.92,0,0,1-1.9,1.3h0a.1.1,0,0,0-.1.1h0a.59.59,0,0,0-.2.5h0a17.18,17.18,0,0,1-.5,2h0l.2-.1-.4.6a97.05,97.05,0,0,1-78.7,39.6h0c-42.5,0-78.6-26.8-91.4-64.1Z" transform="translate(-346.7 -339.45)" style="fill:#061922"/><path d="M650.1,528.65c-.6.3-65.3,28.2-139.4,27.8h0c-65.2-.3-139.1-28.2-139.9-28.5l-15.6-6,5.6,15c.1.4.1.4,35.1,94.7l2.5,6.8,6.9-2.2c15.4-4.9,56.5-16.3,105.2-16.3,45.3,0,84.9,9.3,101.1,14.9l6.9,2.3,2.7-6.8c1-2.5,23.9-56.2,39-91.8l7.5-17.6Z" transform="translate(-346.7 -339.45)" style="fill:#0064b1"/><path d="M650.8,537.75l-6.6,2.4s-14.6,5.3-14.7,5.4a30.77,30.77,0,0,0-10.1,5.4,28,28,0,0,0-4.2,4.7,6.74,6.74,0,0,0,.4-1.2l2-5.4-5.6,1.5-13.3,3.5h0c-1.3.3-10.3,2.2-13,2.8l-3.1.5L567.1,560c-.7.1-6.7,1.2-9.8,4.3a13,13,0,0,0-1.8,2.3l.9-5.2-3.9.4L539.9,563l-.4,3.3a5.73,5.73,0,0,0-1.1-1.1c-2.4-1.8-6.3-1.8-7.5-1.7l-18.4.5h0l-14.9-.1c-.6,0-5.3.2-8.5,3.3a10.1,10.1,0,0,0-1.3,1.6c-.1-1.8-.1-2.8-.1-2.8l-.1-2.7s-15-1.4-15.6-1.4h0l-18.2-2.3.8,4.1.2,1.1c-4.1-4.8-10.6-6.5-10.9-6.6-.1,0-18.7-4.2-18.7-4.2l1.2,4.8.9,3.6a13,13,0,0,0-1.7-2.6c-2.7-3.5-5-6.1-10.3-8-4.6-1.7-13.9-3.9-14.3-4l-5.3-1.2h0c-4.8-2.1-15.4-5.5-18.9-6.7l-5.9-1.9,2.2,5.9,30.8,83.2s12.1-3.3,12.7-3.5h0s12.6-3,13.6-3.2l13.3-2.4v-.1c3.5-.5,10.6-1.6,11.3-1.7s6.7-1,10.1-1.4h0l12.8-1.3c1.4-.1,5.5-.5,7.7-2.3a12.91,12.91,0,0,0,2-2.1l.2,3.5,15.1-.5h.1A12.44,12.44,0,0,0,510,609a9,9,0,0,0,.9-1l-.1,3.9s11.6.3,12.1.3h0l13.8.4h0l9.9.8,12.6,1.4a16.56,16.56,0,0,0,9-1.8,3.59,3.59,0,0,0,1-.7l-1,3.6,12.9,2.2v-.1c.4.1,9.3,1.7,11.4,2.1l1.4.4c.3.1,6.5,1.7,11.5,1.1,5.9-.7,12-5.5,14.7-11.7l12.8-29.6h-.1C632.8,579.45,650.8,537.75,650.8,537.75Z" transform="translate(-346.7 -339.45)" style="fill:#fff"/><polygon points="190.4 269.8 198.4 270.4 206 225.3 195.9 226.3 190.4 269.8" style="fill:#061922"/><path d="M570.3,568.15l-3.8,16.1,10-.3,6.6-23.6L567.7,563s-5.6.9-8.2,3.5c-3.5,3.5-4.4,10-4.4,10l-6.1,33.7,10,1a14.2,14.2,0,0,0,7.3-1.2c2.4-1.2,3.9-3.8,4.7-6.2s3.1-12,3.1-12h-9.5l-2,9.6a9.65,9.65,0,0,1-1.7,3.8,5,5,0,0,1-4.1,1.7l6.6-30.2a26.91,26.91,0,0,1,2.5-6.2A5.75,5.75,0,0,1,570.3,568.15Z" transform="translate(-346.7 -339.45)" style="fill:#061922"/><path d="M587.5,585.05l8.6-27.3-8.8,1.9L571.9,613l6.9,1.1,7.2-22.8,2.1-.1a2.07,2.07,0,0,1,1.3,1.8,9,9,0,0,1-.6,2.8l-6.1,18.9,8.1,1.5,6.7-19.6s1-3.3.8-4.8a9.52,9.52,0,0,0-1.7-4.3s1.7,0,3.9-2.2,2.2-3.8,2.8-5.4,9.5-26.3,9.5-26.3l-11.6,2.9-6.8,22a14,14,0,0,1-1.6,3.9c-1.1,1.6-1.9,2.2-2.5,2.3A12.13,12.13,0,0,1,587.5,585.05Z" transform="translate(-346.7 -339.45)" style="fill:#061922"/><path d="M627.7,558.15l-7.5,20.2,10.3-.5,14.7-34.8-14.7,5.4a31.81,31.81,0,0,0-9.2,4.8c-3.1,2.6-6.7,8.6-7.5,10.5s-4.2,9.4-4.7,11.9-5.6,15.9-5.6,15.9h11.7l-5,13.2a14.35,14.35,0,0,1-2.5,5.4,7.58,7.58,0,0,1-4.7,2.7l6.7-17h-7.2l-7.8,21.2s5.9,1.7,10.3,1.2,9.8-4.3,12.3-9.9,10.8-25.1,10.8-25.1l-13.9.7,4.3-12.4s2.9-7.1,5-9.6C624.5,560.25,627.7,558.15,627.7,558.15Z" transform="translate(-346.7 -339.45)" style="fill:#061922"/><path d="M375.8,542.45l29.8,80.6,8.8-2.5-22.1-65.2s3.3.3,6.1,5.4a50,50,0,0,1,5,12.1c.8,3.2,14.9,46.8,14.9,46.8l9-2.1-17.2-57.3s2.2,0,4.4,3.8a33.89,33.89,0,0,1,3.1,7l13.2,45.8,8.6-1.7-11-42.5s-2.5-7.5-5.3-11.4a17.42,17.42,0,0,0-8.8-6.8c-4.4-1.5-14-4-14-4l1.4,4.3a29.44,29.44,0,0,0-6.1-5.2C393,548.25,375.8,542.45,375.8,542.45Z" transform="translate(-346.7 -339.45)" style="fill:#061922"/><path d="M455.8,612.45l7.5-1L456.9,578s-1.5-7.5-3.4-10.4c-3.3-5.2-10.4-7-10.4-7l-13.8-2.8,14.3,56.7,8.5-1.4-5.3-21.2,4.9.1Zm-10-25.8-4.8-20.9a10.92,10.92,0,0,1,4.5,2.2c1.7,1.6,2.2,6.1,2.2,6.1l2.5,12.5h-4.4Z" transform="translate(-346.7 -339.45)" style="fill:#061922"/><path d="M457.6,562.85l9.5,48.2,10.2-1.1s4.7-.2,6-1.2a7.41,7.41,0,0,0,2.8-5.4L484.9,566l-9.8-1,3.6,35.4s.2,3.2-1.4,4.9a3.19,3.19,0,0,1-2.8,1.1l-5.1-42Z" transform="translate(-346.7 -339.45)" style="fill:#061922"/><path d="M490.3,609.05l12-.5s3.5-.3,5.4-2.2,2.3-5.3,2.3-5.3l.2-6.8-8.1.1.1,6.7a5.44,5.44,0,0,1-.9,3.3c-.8.8-3.6.7-3.6.7v-13.5h12.5l.3-4.1-13,.1v-11.9a3.28,3.28,0,0,1,1.1-2.6,5.46,5.46,0,0,1,3.5-.7v12.3h8.6l1.1-17.6-14.4-.3a11.05,11.05,0,0,0-6.4,2.4c-2.8,2.7-2.5,8.9-2.5,8.9Z" transform="translate(-346.7 -339.45)" style="fill:#061922"/><path d="M536.4,568.05c-1.6-1.6-5.5-1.4-5.5-1.4l-15.6.4-1.6,41.5,7.9.2,1-17.1s2.5-.8,3.7.9a4.35,4.35,0,0,1,.7,2.5l-1,13.7,7.7.4,1.4-13.8a8.58,8.58,0,0,0-.4-4.2,3.77,3.77,0,0,0-2.4-2s1.1,0,2.8-1.9a7.67,7.67,0,0,0,1.7-4.6l1-9.5C537.7,573.05,538.2,569.85,536.4,568.05Zm-8,5.1-.6,10.6a4.35,4.35,0,0,1-.6,2.2,2.19,2.19,0,0,1-1.3.9l-2.9-.1.9-15.7,2.1-.1a3,3,0,0,1,1.8.4C528.5,571.85,528.4,573.15,528.4,573.15Z" transform="translate(-346.7 -339.45)" style="fill:#061922"/><path d="M529.7,627.25l9.8-2.4-10-.9c-.4,0-9.7-.9-14.3-.9-.6-1.8-4.5-13.8-4.5-13.8l-1.7,4.6c-.1.3-2.2,6-3.3,9.3-5.4,0-12.5.7-12.9.7L482.3,625l10.3,2.2c3.1.7,9.5,2.9,10.1,5.6-.8,3.2-3,8.8-3,8.9l-2,5.2s11.2-7.9,12.8-9c1.6,1.1,12.5,8.8,12.5,8.8s-4.5-13-4.9-14C519.1,630.85,524.7,628.45,529.7,627.25Z" transform="translate(-346.7 -339.45)" style="fill:#061922"/><path d="M515.4,632.35c.7-2.8,5.3-4.9,9.1-6.1-3.7-.3-8.4-.7-10.7-.7h-.6s-1.8-5.3-2.8-8.1c-.9,2.4-2.1,6-2.6,7.6l-.2.6H507c-2.6,0-6.2.2-9,.4,3.3,1.3,7.1,3.4,7.5,6.6v.4a54.58,54.58,0,0,1-2.2,6.9c2.6-1.8,7.3-5.1,7.3-5.1s4.9,3.4,7.4,5.2c-1-2.8-2.6-7.4-2.6-7.4Z" transform="translate(-346.7 -339.45)" style="fill:#fff"/><path d="M414.5,441.55c0-50.7,43.6-92,97.2-92s97.2,41.3,97.2,92-43.6,92-97.2,92S414.5,492.25,414.5,441.55Z" transform="translate(-346.7 -339.45)" style="fill:#fff"/><path d="M452.6,379.85l.2-.2c1.2-1,2.2-1.2,3-.2s.1,1.9-.9,2.8l-.2.2Zm.4,7.1,4.1-3.3c2.6-2.1,3.5-4.9,2-6.8-1.9-2.4-5-1.5-8,.9l-3.3,2.7Z" transform="translate(-346.7 -339.45)" style="fill:#061922"/><path d="M477.1,368.25l-.3-2.7.1-.1a5.5,5.5,0,0,0,.7.9l1,1.2Zm0,2.1,2.9-1.2.8.8,4.1-1.7-7-6.2-4.3,1.8-.5,9.3,4.1-1.7Z" transform="translate(-346.7 -339.45)" style="fill:#061922"/><path d="M497.4,357l4.2-.5.6,5.7,3.5-.4.3,2.7-7.7.9Z" transform="translate(-346.7 -339.45)" style="fill:#061922"/><path d="M521.3,356.45l4.2.6-.8,5.6,3.5.5-.4,2.7-7.6-1.1Z" transform="translate(-346.7 -339.45)" style="fill:#061922"/><path d="M546.7,368.65l1.7-2,.1.1c-.1.4-.1.7-.2,1.1l-.1,1.6Zm-1.5,1.5,2.9,1.3-.1,1.1,4.1,1.8-.4-9.4-4.3-1.9-7,6.1,4.1,1.8Z" transform="translate(-346.7 -339.45)" style="fill:#061922"/><path d="M566.1,379.85l.1.2a6.51,6.51,0,0,0,1.5,2.3c.3.3.9.6,1.1.3s-.2-.7-.4-1l-.5-.6c-1.1-1.2-1.7-2.6-.9-3.6,1.3-1.5,3.9-.8,5.8.8a9.55,9.55,0,0,1,2.4,2.9l-2.3.9a4.81,4.81,0,0,0-1.5-2c-.3-.2-.8-.5-1-.2s.2.6.4.9l.6.7c1.2,1.4,1.7,2.7.8,3.8-1.3,1.5-3.9.7-5.8-.9a13.43,13.43,0,0,1-2.9-3.4Z" transform="translate(-346.7 -339.45)" style="fill:#061922"/><path d="M593.1,418.05a13.6,13.6,0,0,0-1.9-1.4,1,1,0,0,1-.6-.6,9.47,9.47,0,0,0-.6-2.2,96,96,0,0,0-31.4-26.2,12.84,12.84,0,0,0-4.2-1.1,1.1,1.1,0,0,1-.7-.3c-.7-1-2.9-2.1-3.7-2.5a98.22,98.22,0,0,0-36.9-7.2,89.69,89.69,0,0,0-11.7.7l5.1-6.8c-20.2-.6-34.7,15.2-34.7,15.2h0a93.23,93.23,0,0,0-13.8,7.9h0c-10.5,3.8-13.6,12.3-13.6,12.3-2.7,2.2-7.9,9.3-7.9,9.3a22.64,22.64,0,0,0-3.6,2.8c-2.4,2.5-6.9,8.2-9.2,18-.1.2-.1.3-.2.5-.1.5-.2,1.2-.3,1.8l-.6,3.6.1-.1a.58.58,0,0,1-.1.4c-.3.2-1.8,6.2-1.8,6.2-.3.8-3,9-3,9h0v.1c-7.2,25.3,2.4,40.6,4,43,12.8,37.2,48.8,64,91.3,64A96.86,96.86,0,0,0,591.6,525h0a7.59,7.59,0,0,0,.7-2.4,1.08,1.08,0,0,1,.4-.8,7.92,7.92,0,0,0,1.9-1.3,92.62,92.62,0,0,0-1.5-102.4Z" transform="translate(-346.7 -339.45)" style="fill:#061922"/><path d="M472.7,399.65l.7-.7c.3-.3.4-.4.5-.4l.1-.1a38.66,38.66,0,0,1,1.2-8.7c8.8-12.2,23.2-15.5,23.2-15.5,1.8-.5.6.3.6.3-9.1,10.2-8.1,18.6-8.1,18.6l8.7,31.7s-7-2.5-12.5-13.6c-2.5,22.2,18.4,40.2,18.4,40.2.9.8-.5-.1-.5-.1-5.2-2.6-11.3-8.1-12.9-9.7.4,1.7,10.6,52.9,10.7,53.1a9.68,9.68,0,0,0,.3,1.1l3.5-8.8,2.9,25.9c-13.3,12.3-27.4,7.5-28.3,7.1a10.39,10.39,0,0,1,.6,1s11.5,22.5,58.2,20.1c0,0,1.1,0,1,.1s0,.1-.3.2a16.5,16.5,0,0,1-2.3.5c-56.4,15.1-85.7-33-86.9-35.2a38.74,38.74,0,0,1-4.6-8.2c-.1-.1-.1-.5.1-.2,0,0,6,6.2,22.9,7.8h.2c-13.1-14.6-18.7-25.2-19.5-26.8h0s-1.6-2.4-3.4-9.1c0,0,0-.3.2,0,.6,1.3,5,7.7,10.2,9.2h0c-4.5-7.2-7.3-18.6-7.6-20.3,6.1,8.5,16.9,9.2,16.9,9.2a.1.1,0,0,0-.1-.1v.1c-17.8-17.7-13.9-37-6.7-51A89.32,89.32,0,0,1,472.7,399.65Z" transform="translate(-346.7 -339.45)" style="fill:#fff"/><path d="M525.9,517.05l-11.7,12.3h0l14.4-11-7.4-25.7,3.3-30.9-5.7,29.5,7.1,25.8Z" transform="translate(-346.7 -339.45)" style="fill:#bbc4ca"/><path d="M523,454.55a2.51,2.51,0,0,0,.7-.4h0a14.82,14.82,0,0,0,3.2-2.5h0c2.3-2.4,4.6-6.3,4.6-12.5h0a34.27,34.27,0,0,0-1.6-9.7h0c-.2,4.3-1.4,20.3-6.9,25.1Z" transform="translate(-346.7 -339.45)" style="fill:#bbc4ca"/><path d="M528.4,402c4.1-6.1,10.7-6.7,13.6-6.7h0a24.2,24.2,0,0,0-6.7-1h0a20.69,20.69,0,0,0-6.9,1.1h0c-1.2.4-2,.8-2.4.9h0a32,32,0,0,1,2.4,5.7Z" transform="translate(-346.7 -339.45)" style="fill:#bbc4ca"/><path d="M523.2,414.85a.22.22,0,0,1,.2.2h0v1.7h0c0,13.3-3.5,27.8-4.9,32.7h0a75.93,75.93,0,0,0,6.4-30.7h0a80.67,80.67,0,0,0-.9-11.7h0a25.54,25.54,0,0,0-.7-3.3h0c-1.3,9.9-5.1,14.5-5.1,14.5h0c0,.1-.1.1-.2.1h0c-.1,0-.1,0-.2-.1h0a60.2,60.2,0,0,0-14-17.1h0a60.77,60.77,0,0,0-7.2-5.3h0c11.8,25.7,15.3,45.6,16.2,52.1h0v-2.3h0a128.24,128.24,0,0,0-2.7-23.7h0c-1.3-7-2.7-11.9-2.7-11.9h0c0-.1,0-.2.1-.2h0a.14.14,0,0,1,.2,0h0c5.3,4.1,9.1,15.9,9.7,18.1h0c1-1.2,2.3-4.3,3.4-7.1h0c1.1-3.1,2-5.9,2-5.9h0c.3,0,.3-.1.4-.1Zm-5,3.4.2-.1-.2.1Z" transform="translate(-346.7 -339.45)" style="fill:#bbc4ca"/><path d="M423.6,468.35c0,12.2,2.1,25,12.7,41.4h0c9.9,21,28.3,32.2,36.8,36.6h0c2.8,1.4,4.6,2.1,4.6,2.1h0a88.22,88.22,0,0,0,37.8,8.8h0a89.65,89.65,0,0,0,49.7-15.5h0a48.35,48.35,0,0,0,3.9-2.9h0l.1.2-.1-.2c.5-.4.9-.7,1.2-1h0a2.19,2.19,0,0,1-.5.3h0c-.5.3-1,.6-1,.7h0c-18.6,10.9-35.8,14.3-49.8,14.3h0c-21.9,0-36.2-8.2-36.2-8.2h0c-46.6-24.4-47.2-66.7-47.2-66.8h0a.22.22,0,0,1,.2-.2h0c.1,0,.2,0,.2.1h0c6,11.6,13.3,15.6,16.5,16.9h0c.5.2.8.3,1.1.4h0c-13.5-17.1-17.4-31.4-17.4-42.2h0c0-14.3,6.8-22.5,6.8-22.5h0a.31.31,0,0,1,.2-.1h0c.1,0,.1.1.1.2h0a68.51,68.51,0,0,0-1.3,13.4h0a46.05,46.05,0,0,0,2,14.1h0a38.53,38.53,0,0,0,1.4,3.7h0a86.42,86.42,0,0,1-.6-10h0c0-31.9,18.7-51.6,22.7-55.4h0c-3,1.2-6.5,4.4-9.5,7.4h0c-3.2,3.3-5.7,6.4-5.7,6.4h0c-.1.1-.1.1-.2.1h0c-.1,0-.1-.1-.1-.2h0c0-2.5,1.5-5.7,2.3-7.3h0a28.34,28.34,0,0,0-5.8,8.6h0a42.17,42.17,0,0,0-2.4,6.1h0v.1a64.13,64.13,0,0,0-10.2,15.9h0a50.89,50.89,0,0,0-2.8,7.5h0a7.69,7.69,0,0,1-.4,1.2h0s0,.1-.2.2h0c-.3-.1-.2-.2-.2-.3h0V442h0a5.53,5.53,0,0,1,.1-.9h0c.1-6,2.6-12.8,3.6-15.3h0c-7.1,7.6-8.8,18-8.8,26.2h0a53.5,53.5,0,0,0,1.6,13.8h0a92.24,92.24,0,0,0,1.9,15.7h0c.9,4.8,1.9,8.4,1.9,8.4h0a6.63,6.63,0,0,1,.4,1.6h0v.1h0c0,.1-.1.1-.2.1h0c-.3-.1-.2-.2-.4-.3h0a2.19,2.19,0,0,1-.3-.5h0a7.76,7.76,0,0,1-.4-.7h0c-5-7.6-7.4-20.2-7.9-23.3h0a3.42,3.42,0,0,0-.2,1.5Z" transform="translate(-346.7 -339.45)" style="fill:#bbc4ca"/><path d="M580.7,414.45S558,384,515.4,384h-1.1a.51.51,0,0,0-.5.4c0,.3.2.4.5.5a65.64,65.64,0,0,1,9.6,9.1l.1.1.1-.1a17.1,17.1,0,0,1,2.8-1,27.62,27.62,0,0,1,21,2.6c-2.1,1-12.8,6.4-15,12.5v.1l.1.1s10.8,9.8,32.9,9.8a80.46,80.46,0,0,0,11.5-.8,12.06,12.06,0,0,0,1.9-.4c.9-.3,2-.7,2-1.7C581.1,415.05,581,414.75,580.7,414.45Z" transform="translate(-346.7 -339.45)" style="fill:#0064b1"/><path d="M534.8,457.15a.21.21,0,0,0-.3.3s.3.3.7.8c1.2,1.7,3.7,6,3.7,13.2,0,5.1-1.2,11.7-5,19.9a40.54,40.54,0,0,0-.8-7.2c-.8-4.1-2.3-8.6-5.6-9.6h-.2l-.1.1-2,18v.1l7.3,26.9-14.3,11.5c-.1,0-.1.1-.1.2s.1.1.1.2,5.6,1.8,15,1.8a86.51,86.51,0,0,0,18.1-2,3.45,3.45,0,0,0,2.3-2.1,93.48,93.48,0,0,0,1.6-17.9C555.3,495.85,551.8,473.25,534.8,457.15Z" transform="translate(-346.7 -339.45)" style="fill:#0064b1"/><path d="M558.3,529.75a1.25,1.25,0,0,1-.4-1.1h0a2.49,2.49,0,0,1,.1-.8h0a45.52,45.52,0,0,0,1.1-5.8h0a96.24,96.24,0,0,0,1.1-15h0c0-16.2-3.9-38.9-22-56.5h0a1.24,1.24,0,0,0-.3-.2h0a.62.62,0,0,1-.3-.5h0a.22.22,0,0,1,.2-.2h.2a2.81,2.81,0,0,1,.8.1h0a20.58,20.58,0,0,1,8.2,5.3h0a34.18,34.18,0,0,0-1-4.8h0a28.4,28.4,0,0,0-5.6-10.7h0l-.4-.4h0c-.2-.3-.4-.4-.4-.7h0a.31.31,0,0,1,.1-.2h0c.1-.1.1-.1.2-.1h0c.2,0,.4.2.9.5h0c1.1.5,46.5,22.5,48.1,66.9h0v.7h0a6.25,6.25,0,0,1-1.6,4.5h0c-.4.6-11.2,13.9-27,19.1h0a3.1,3.1,0,0,1-1,.2h0a1.69,1.69,0,0,1-1-.3ZM538,449.85Z" transform="translate(-346.7 -339.45)" style="fill:#0064b1"/><path d="M592.3,497.15c-.9-36.6-35.4-61.6-52.6-71.8h0c-5.7-3.4-9.5-5.1-9.5-5.2h0l-.8-.4h1a14.72,14.72,0,0,1,11,5h0a16.43,16.43,0,0,0-.9-4.7h0l-.2-.4.4.2c4.9,1.9,11.2,2.5,17.4,2.5h0a120.93,120.93,0,0,0,16.2-1.2h0c4.4-.6,7.2-1.2,7.3-1.2h.6c2.5,0,3.3,1.4,3.4,1.6h0c5.9,6.5,13.1,21.7,14.3,39.8h0c.2,2.3.2,4.5.2,6.6h0c0,13.7-2.8,24.2-5,28.6h0c-.8,1.5-1.3,2.3-2,2.4h0c-.6,0-.7-.6-.8-1.8h0" transform="translate(-346.7 -339.45)" style="fill:#0064b1"/><path d="M492.8,378.85l.1-.1h0c-.5.1-9.8,2.9-12.6,17.1,0,0,0,.3.1,0,.8-1.4,3.8-5.8,6.4-4.5v-.3A27.88,27.88,0,0,1,492.8,378.85Z" transform="translate(-346.7 -339.45)" style="fill:#061922"/><path d="M485.7,507.35c-2-4.1-15-32.3-15-32.3-4,1.3-9-2-9-2h0c6.4,16.9,21.4,31.7,23.8,34.4h0c.4.4.4.3.4.3S485.8,507.55,485.7,507.35Z" transform="translate(-346.7 -339.45)" style="fill:#061922"/><path d="M472.9,415.25c-11.7,26.7,14.6,37.7,15,37.9h0l-1.4-6.2-.8-3.5c-.7-.2-1.3-.5-1.9-.7l-.6-.3a2.51,2.51,0,0,1-.7-.4c-11.5-6.1-10.4-20.7-9.7-25.5v-.1a.6.6,0,0,1,.1-.4,4.12,4.12,0,0,1,.2-.9v-.1h0C473.1,414.75,472.9,415.15,472.9,415.25Z" transform="translate(-346.7 -339.45)" style="fill:#061922"/><path d="M490.2,490.45l-1.9-33.6,11.3,37.4C499.6,494.35,495.9,485.45,490.2,490.45Z" transform="translate(-346.7 -339.45)" style="fill:#bbc4ca"/><path d="M499.5,424.85l-8.7-31.7v.7l2.5,20.1a2.44,2.44,0,0,1,.1.7c0,1.1-.7,2.6-6-3l-.4-.4C492.5,422.45,499.5,424.85,499.5,424.85Z" transform="translate(-346.7 -339.45)" style="fill:#bbc4ca"/><path d="M478.9,430.55a11.89,11.89,0,0,1-1-4.5,10,10,0,0,1,3.6-7.6l.1-.1a71.75,71.75,0,0,1,.1-8.1c-2.9,4.2-9,14.3-1.7,22.2-.1-.2-.2-.3-.3-.5A7,7,0,0,1,478.9,430.55Z" transform="translate(-346.7 -339.45)" style="fill:#bbc4ca"/><path d="M486.5,434.65a44.33,44.33,0,0,1-4.9-16.2v-.1l-.1.1a10.27,10.27,0,0,0-3.6,7.6,11.51,11.51,0,0,0,1,4.5c.2.4.5.8.8,1.4a2.19,2.19,0,0,1,.3.5c.1.2.3.3.5.5a9.56,9.56,0,0,0,6.7,2.9A8.59,8.59,0,0,1,486.5,434.65Z" transform="translate(-346.7 -339.45)" style="fill:#061922"/><path d="M497,494.75s-5.5-1.4-5.2,10.1h0a2.24,2.24,0,0,1,.3-1c1.7-3.8,3.2-5.3,4.6-5.4,1.2,0,2.1,1.1,2.8,2.6a34.15,34.15,0,0,1,1.8,5.4c.4,1.6.7,3.2.9,4.5a24.05,24.05,0,0,1,.2,3.1v.1h0C502.6,513,505.1,497,497,494.75Z" transform="translate(-346.7 -339.45)" style="fill:#bbc4ca"/><path d="M502.4,514.25v-.1c-.1-1.3-.1-2.3-.2-3.1-.2-1.3-.5-2.9-.9-4.5a24.42,24.42,0,0,0-1.8-5.4c-.7-1.5-1.6-2.5-2.8-2.6-1.4,0-2.9,1.6-4.6,5.4-.1.3-.2.7-.3,1h0l2.8,6s1.6-16.2,7.8,3.3Z" transform="translate(-346.7 -339.45)" style="fill:#061922"/></svg>