<svg xmlns="http://www.w3.org/2000/svg" viewBox="0 0 359.95 359.95"><title>Atlanta Hawks logo</title><path d="M512,692c-99.2,0-180-80.77-180-180S412.8,332,512,332,692,412.8,692,512,611.2,692,512,692" transform="translate(-332.03 -332.03)" style="fill:#c8102e"/><path d="M512,683.72c-94.65,0-171.72-77.06-171.72-171.72S417.35,340.28,512,340.28,683.72,417.35,683.72,512,606.65,683.72,512,683.72" transform="translate(-332.03 -332.03)" style="fill:#fff"/><path d="M512,675.34c-90.11,0-163.34-73.23-163.34-163.34S421.89,348.66,512,348.66,675.34,421.89,675.34,512,602.11,675.34,512,675.34" transform="translate(-332.03 -332.03)" style="fill:#c8102e"/><path d="M623.65,512A111.65,111.65,0,1,1,512,400.35,111.61,111.61,0,0,1,623.65,512" transform="translate(-332.03 -332.03)" style="fill:#fff"/><path d="M512,408.49a103.45,103.45,0,0,0-83.41,41.88c2.75.84,8,2.27,14.48,4.19h0c10.17,3,44,12.92,50.38,15,18.43,6,23.33,8.26,28.48,13.76s13,12,20.82,17.35,11.49,11.25,11.49,20.58-7.18,17.23-11.61,19.86c0,0,1.56-4.43-.6-6.46s-9-5.74-26.33-4.55-40.69,9.69-56.48,18.19c0,0,7.54-11.85,18.79-17.23,0,0-9.33,0-61.39,22.74A104.06,104.06,0,1,0,512,408.49m0,185.24a80.59,80.59,0,0,1-57.92-24.41c42-21.66,68.21-16,68.21-11.85s-6.46,14.36-6.46,14.36c34.22-4.79,59.23-25.49,59.23-53.25S549,477.3,542.39,473.23c-7.06-4.43-3.71-10.41-27-19.15-14.24-5.38-34.1-10.65-41.88-12.56A81,81,0,1,1,512,593.73" transform="translate(-332.03 -332.03)" style="fill:#c8102e"/><path d="M511.16,485.55A25.73,25.73,0,0,1,499.08,483c-6.1-3-15.44-9.81-23.45-2.39,0,0,6.82-.84,6.22,1s-1.2,12.21,8,16.15c9.45,3.95,20.22,1,21.3-12.21" transform="translate(-332.03 -332.03)" style="fill:#c8102e"/><path d="M389.7,595.17l1.08,1.44,15-11.49-1.08-1.44L408,581l4.79,6.22c3.59,4.67,3.23,8.14-.36,10.89-2.51,1.91-4.79,2-7.06.84,1,3.11.12,5.15-2.87,7.42-3.95,3-7.9,1.79-11.25-2.39l-4.91-6.34Zm5.15,6.7c1.32,1.68,3.11,2,5.27.36s2.15-3.35.72-5l-1-1.2-6,4.67Zm9-7.42c1.32,1.68,3,1.79,4.91.36s2.15-3.11.72-4.91l-.72-1L403,593.37Z" transform="translate(-332.03 -332.03)" style="fill:#fff"/><path d="M407.53,616.71l1.08,1,19.62-13.76,3.95,3.47-11,21.3,1,.84-2.75,3.11-6.7-5.86,2.63-3L417,625.2l1.44-2.63-3.95-3.47-2.39,1.79,1.68,1.44-2.63,3-6.46-5.62Zm12.92,2.75,4.55-8-7.42,5.5Z" transform="translate(-332.03 -332.03)" style="fill:#fff"/><path d="M433.5,639.56l-1,1.79-3.11-1.79,4.55-7.9,3.47,2c-1.68,3.23-1.32,5.15.6,6.22s3.11.72,4.07-1c2.27-3.95-6.46-9.93-2.27-16.87,2.27-3.95,6.22-4.67,9.45-2.75,1.91,1.08,3,2.51,2.75,4.31l1-1.79,3.11,1.79-4.31,7.54-3.59-2c1.32-2.63,1.32-4.31-.36-5.27a2.45,2.45,0,0,0-3.71.84c-2.15,3.71,6.34,9.81,2.27,16.75-2.51,4.31-6.46,4.67-10.05,2.63-1.68-1.2-3-2.63-2.87-4.55" transform="translate(-332.03 -332.03)" style="fill:#fff"/><polygon points="125.77 317.71 127.44 318.31 133.31 300.36 131.63 299.76 132.83 295.81 140.84 298.32 139.65 302.27 138.09 301.79 135.46 310.17 142.64 303.23 141.68 302.87 142.88 298.92 150.18 301.31 148.86 305.38 147.19 304.79 141.44 310.05 142.28 323.09 143.72 323.45 142.4 327.4 134.62 324.89 135.82 321.06 137.25 321.54 136.66 313.64 133.31 316.87 132.35 319.98 133.78 320.34 132.59 324.17 124.57 321.66 125.77 317.71" style="fill:#fff"/><polygon points="158.56 326.32 160.35 326.56 162.03 307.78 160.23 307.66 160.59 303.35 176.98 304.79 176.15 313.4 171.48 313.04 171.84 308.38 167.17 307.9 166.57 315.2 170.76 315.67 170.4 319.86 166.21 319.5 165.5 327.16 170.28 327.64 170.64 322.38 175.43 322.85 174.71 331.95 158.2 330.51 158.56 326.32" style="fill:#fff"/><polygon points="194.69 327.04 196.97 326.68 194.45 307.78 191.58 308.13 192.18 312.8 188.23 313.4 187.03 304.79 205.82 302.27 207.02 310.89 203.07 311.37 202.47 306.7 199.6 307.06 202.11 326.08 204.39 325.73 204.87 329.8 195.17 331.11 194.69 327.04" style="fill:#fff"/><path d="M556.4,653.2l1.68-.6L551.37,635l-1.68.6-1.56-3.95,7.42-2.75c5.5-2.15,8.74-.72,10.29,3.47,1.08,2.87.6,5.15-1.2,6.94,3.23-.12,5,1.44,6.34,4.91,1.79,4.67-.6,8.14-5.62,10.05l-7.54,2.87Zm3.35-13.76c2-.72,2.63-2.39,1.79-4.55s-2.27-2.87-4.43-2.15l-1.08.36,2.51,6.7Zm4.43,10.77c2-.72,2.87-2.39,1.91-4.91s-2.51-3-4.67-2.15l-1.44.6,2.75,7.06Z" transform="translate(-332.03 -332.03)" style="fill:#fff"/><path d="M580.93,643l1.2-.72-7.3-22.74,4.55-2.75,17.11,16.75,1.08-.72,2.15,3.47L592.17,641,590,637.65l1.91-1.2-2-2.15L585.35,637l1,2.87,1.91-1.2,2.15,3.35-7.3,4.43Zm6.34-11.61-6.34-6.7,3,8.74Z" transform="translate(-332.03 -332.03)" style="fill:#fff"/><polygon points="274.75 293.54 276.06 292.34 263.14 278.58 261.82 279.77 258.95 276.66 265.54 270.56 268.41 273.67 266.97 274.99 279.89 288.87 283.13 285.88 279.54 282.17 283.01 278.82 289.23 285.52 277.5 296.53 274.75 293.54" style="fill:#fff"/><polygon points="293.89 274.27 294.85 272.83 279.77 261.71 278.7 263.02 275.35 260.51 280.61 253.33 284.08 255.84 282.89 257.52 298.2 268.77 300.72 265.3 296.53 262.18 299.4 258.36 306.7 263.86 297.13 276.78 293.89 274.27" style="fill:#fff"/><path d="M387,479l.48-1.44-20.1-13,1.79-5,23.81,2.27.48-1.2,3.83,1.32-2.87,8.38-3.83-1.32.72-2-3-.36-1.79,5,2.51,1.56.72-2.15,3.83,1.32-2.75,8Zm-2.27-13-9.09-1.2,7.78,4.79Z" transform="translate(-332.03 -332.03)" style="fill:#fff"/><polygon points="66.53 118.35 67.73 116.43 51.34 106.62 49.78 109.13 53.85 111.53 51.81 115 44.4 110.57 54.09 94.18 61.51 98.6 59.47 102.07 55.41 99.68 53.97 102.19 70.36 112.01 71.56 109.97 75.15 112.13 70.12 120.5 66.53 118.35" style="fill:#fff"/><polygon points="79.94 98.24 81.13 96.93 67.37 84.12 66.17 85.32 63.06 82.45 69.17 75.87 72.28 78.86 70.96 80.3 84.84 93.22 87.83 90.11 84 86.52 87.23 83.05 93.94 89.27 83.05 101 79.94 98.24" style="fill:#fff"/><path d="M429.67,412.32l1.2-.84-8.74-22.26,4.31-3.11,18.07,15.68,1.08-.72,2.39,3.35-7.18,5.15-2.27-3.23,1.79-1.32-2.15-2-4.31,3,1.2,2.75,1.79-1.32,2.27,3.23-6.94,4.91Zm5.74-12-6.7-6.34,3.59,8.5Z" transform="translate(-332.03 -332.03)" style="fill:#fff"/><polygon points="122.18 64.26 123.73 63.66 116.67 46.19 115 46.79 113.44 42.84 119.9 40.21 131.63 51.81 127.44 41.76 126.01 42.36 124.33 38.41 131.87 35.3 133.54 39.25 131.87 39.97 140.6 61.15 136.3 62.94 123.73 50.86 128.28 61.75 129.72 61.15 131.27 64.98 123.73 68.09 122.18 64.26" style="fill:#fff"/><polygon points="152.57 53.85 154.85 53.49 151.5 34.58 148.62 35.06 149.46 39.73 145.51 40.45 143.96 31.95 162.74 28.6 164.18 37.1 160.23 37.81 159.39 33.15 156.52 33.63 159.87 52.53 162.15 52.17 162.86 56.12 153.29 57.92 152.57 53.85" style="fill:#fff"/><path d="M504.82,382.88h1.44l6.1-23.1,5.27.12,5.27,23.33h1.32l-.12,4.07-8.86-.12.12-3.95h2.15l-.48-3-5.27-.12L511,383h2.27L513.2,387l-8.5-.12Zm11.61-6.22-1.68-9.09-2.15,9Z" transform="translate(-332.03 -332.03)" style="fill:#fff"/><polygon points="211.93 54.69 213.6 55.16 219.7 37.34 218.03 36.86 219.46 32.79 227.84 35.66 226.41 39.49 224.73 38.89 222.46 45.47 227.96 47.39 230.23 40.8 228.44 40.21 229.75 36.26 238.13 39.13 236.82 43.2 235.02 42.6 229.04 60.43 230.71 61.03 229.4 64.86 221.02 61.99 222.34 58.28 224.13 58.88 226.52 51.7 221.02 49.78 218.51 56.96 220.3 57.56 218.99 61.39 210.61 58.52 211.93 54.69" style="fill:#fff"/><path d="M571.59,397.24l1.2.72,17.11-16.75,4.55,2.75L587,406.7l1.08.72L586,410.88l-7.54-4.67,2.15-3.35,1.91,1.2,1.08-2.75L579,398.56l-2.15,2.15,1.91,1.2-2.15,3.35-7.3-4.55Zm13.16.6,3.23-8.62-6.46,6.58Z" transform="translate(-332.03 -332.03)" style="fill:#fff"/><polygon points="275.35 66.53 274.15 65.34 277.14 62.34 283.13 68.21 280.25 71.2 279.06 70 271.76 79.94 285.28 70.36 288.39 73.47 279.06 87.23 288.87 79.7 287.79 78.62 290.66 75.63 296.29 81.25 293.3 84.24 292.1 83.05 273.07 96.69 269.72 93.34 279.42 79.1 265.3 89.03 261.94 85.68 275.35 66.53" style="fill:#fff"/><polygon points="283.84 103.03 284.8 104.47 300.72 94.42 299.76 92.98 303.35 90.59 307.9 97.77 304.31 99.92 303.47 98.6 296.05 103.39 305.98 102.67 305.5 101.72 308.97 99.56 313.04 106.02 309.45 108.3 308.49 106.74 300.72 107.1 293.18 117.63 293.89 118.95 290.43 121.1 286 114.16 289.35 112.01 290.19 113.32 294.85 106.74 290.19 107.22 287.43 108.89 288.27 110.21 284.92 112.36 280.37 105.19 283.84 103.03" style="fill:#fff"/><path d="M628.91,462.7l-1.91.72-1.32-3.35,8.5-3.23,1.44,3.71c-3.35,1.44-4.19,3.23-3.47,5.27s2,2.51,3.71,1.79c4.31-1.68,1.2-11.73,8.74-14.6,4.19-1.68,7.78.24,9.09,3.71.72,2,.84,3.83-.48,5l1.91-.72,1.32,3.35-8.14,3.11-1.44-3.83c2.63-1.2,3.71-2.51,3-4.43s-2-2.15-3.35-1.68c-3.95,1.56-1.2,11.61-8.62,14.48-4.67,1.79-8-.48-9.45-4.31-.6-1.68-.72-3.71.48-5" transform="translate(-332.03 -332.03)" style="fill:#fff"/></svg>