<?xml version="1.0" encoding="UTF-8" standalone="no"?>
<svg xmlns:rdf="http://www.w3.org/1999/02/22-rdf-syntax-ns#" xmlns="http://www.w3.org/2000/svg" xml:space="preserve" height="149.02" viewBox="0 0 121.99999 149.01637" width="122" version="1.1" xmlns:cc="http://creativecommons.org/ns#" xmlns:xlink="http://www.w3.org/1999/xlink" xmlns:dc="http://purl.org/dc/elements/1.1/"><g transform="matrix(1.25 0 0 -1.25 -365.65 784.42)"><g transform="matrix(1.9048 0 0 1.9048 -307.44 -512.46)"><path d="m28.369-0.0019531v0.16211c0.10875-0.00375 0.16602 0.05 0.16602 0.15625v3.9746c-0.0012 0.10375-0.05602 0.15625-0.16602 0.15625l-0.002 0.15625h1.2949l0.002-0.1543c-0.135-0.00125-0.20117-0.051406-0.20117-0.16016v-2.9062l2.6699 2.7852 0.13867 0.20117-0.11133 0.080078v0.1543h1.416v-0.1543c-0.1125 0-0.16672-0.051953-0.16797-0.1582l0.002-3.9746c0-0.105 0.05352-0.15625 0.16602-0.15625v-0.16016h-1.3223v0.16016c0.1525 0 0.22852 0.05125 0.22852 0.15625v2.7812l-2.512-2.6074c-0.118-0.11372-0.175-0.19661-0.174-0.24411l0.06836-0.089844v-0.15625l-1.4961-0.0019531zm-2.3027 0.041016-0.15234 0.03125-0.04492 0.16602c-0.04125 0.0475-0.12414 0.079062-0.24414 0.10156l-3.916 0.76758 0.03125 0.15234 0.11328 0.019531 0.07031 0.10742 0.76172 3.8984-0.02344 0.12695-0.10352 0.056641 0.03125 0.15625 4.004-0.7791 0.215-0.0235 0.111 0.1289 0.152-0.0293-0.232-1.1777-0.151 0.0273-0.05 0.1797-0.2 0.1016-2.869 0.5586-0.23-1.1836 1.683-0.3301c0.11375-0.02 0.20664-0.017891 0.27539 0.00586 0.0725 0.02375 0.12078 0.10258 0.14453 0.23633l0.15625-0.035156-0.26172-1.3379-0.1543 0.03125c0.025 0.13 0.0094 0.22117-0.04687 0.26367-0.05625 0.045-0.14281 0.074453-0.25781 0.095703l-1.683 0.332-0.207-1.0645 2.783-0.5429c0.11875-0.02375 0.20797-0.025156 0.26172-0.00391l0.10156 0.12891 0.1543-0.033203-0.22266-1.1328zm13.996 1.1347c-0.28125 0.01-0.52477 0.056719-0.72852 0.13672-0.205 0.0825-0.37195 0.19625-0.50195 0.34375-0.1275 0.14625-0.21492 0.30602-0.26367 0.47852-0.0725 0.2575-0.08305 0.48383-0.0293 0.67383 0.05375 0.18625 0.14875 0.34688 0.28125 0.48438 0.135 0.13875 0.30164 0.25531 0.49414 0.35156 0.19375 0.0975 0.39672 0.18227 0.60547 0.25977 0.2075 0.07625 0.41273 0.14664 0.61523 0.21289 0.20375 0.065 0.38391 0.13648 0.53516 0.20898 0.1525 0.07375 0.26711 0.15273 0.34961 0.24023 0.08 0.09 0.10391 0.20062 0.06641 0.32812-0.035 0.13125-0.11859 0.22008-0.24609 0.26758-0.12875 0.05-0.27289 0.075078-0.43164 0.080078-0.1575 0.00375-0.31445-0.00711-0.4707-0.037109-0.15375-0.02625-0.27875-0.055078-0.375-0.080078-0.13-0.03875-0.27398-0.093672-0.42774-0.16992-0.15625-0.0775-0.29734-0.15891-0.43359-0.25391-0.135-0.08875-0.25141-0.185-0.34766-0.28125l-0.175-0.2618 0.002-0.14844-0.07227-0.0625-0.74805 0.89258 0.09961 0.099609 0.12891-0.037109 0.20117 0.12305c0.0725 0.06625 0.17203 0.14383 0.30078 0.23633 0.13 0.09625 0.29766 0.19156 0.50391 0.28906 0.20625 0.09625 0.46781 0.18734 0.78906 0.27734 0.23 0.06375 0.48422 0.1168 0.76172 0.1543 0.2775 0.03875 0.54539 0.035937 0.80664-0.00781 0.26-0.0425 0.49297-0.13234 0.69922-0.27734 0.20625-0.14125 0.35039-0.35914 0.43164-0.65039 0.07-0.25375 0.07773-0.47445 0.02148-0.6582-0.0525-0.185-0.14625-0.34562-0.28125-0.48438-0.1325-0.13625-0.29844-0.25547-0.49219-0.35547-0.19375-0.09875-0.39602-0.18617-0.60352-0.26367-0.20875-0.07375-0.41398-0.14609-0.61523-0.21484-0.2025-0.06875-0.37805-0.14445-0.5293-0.2207-0.15-0.08125-0.2657-0.16172-0.3457-0.26172-0.08-0.095-0.1-0.2068-0.0625-0.3418l0.17188-0.21094c0.0875-0.045 0.19109-0.073984 0.30859-0.083984s0.24531-0.00703 0.38281 0.011719c0.14 0.0175 0.26938 0.043672 0.39062 0.076172 0.16625 0.04625 0.32352 0.10734 0.47852 0.18359s0.29242 0.15945 0.41992 0.25195c0.1275 0.08625 0.23211 0.17969 0.31836 0.27344l0.16797 0.25977 0.01367 0.20898 0.07617 0.0625 0.875-0.89453-0.08203-0.09375-0.18164 0.00391-0.25785-0.14454c-0.096-0.0762-0.218-0.1608-0.363-0.2558-0.148-0.0988-0.321-0.1953-0.529-0.3028-0.208-0.1062-0.459-0.2021-0.758-0.2871-0.349-0.095-0.662-0.1351-0.944-0.1289zm-21.623 1.1192c-0.2925 0.01625-0.58797 0.085625-0.88672 0.20312l-2.6992 1.0703 0.06055 0.14844c0.12125-0.04875 0.20539-0.025937 0.24414 0.070312l1.468 3.6973c0.0375 0.0975-0.0027 0.16875-0.12891 0.21875l0.05859 0.14648 2.7012-1.0742c0.29625-0.11875 0.5575-0.26969 0.78125-0.46094 0.22375-0.18875 0.39367-0.40891 0.51367-0.66016 0.12-0.2525 0.17914-0.53445 0.18164-0.8457 0.0025-0.31-0.07039-0.64797-0.21289-1.0117-0.14375-0.365-0.32406-0.65797-0.53906-0.88672-0.21625-0.22125-0.45289-0.38438-0.71289-0.48438-0.26-0.10125-0.53688-0.14336-0.82812-0.13086zm26.635 0.13672-0.52539 1.1094 0.14258 0.068359 0.13477-0.12109 0.16016 0.027344 1.3047 0.62109-1.4922 3.1465-0.09375 0.085937-0.11719-0.00977-0.06641 0.13867 1.2188 0.58008 0.06641-0.14258c-0.1175-0.0525-0.15047-0.12906-0.10547-0.22656l1.4922-3.1484 1.3047 0.62109 0.11914 0.10352-0.002 0.17969 0.139 0.0683 0.525-1.1074-0.142-0.0664-0.139 0.1192-0.156-0.0254-3.514-1.666-0.119-0.1036 0.004-0.1836-0.141-0.0683zm-26.578 0.6816c0.09406 0.00672 0.18195 0.025391 0.26758 0.056641 0.1675 0.06125 0.32008 0.17578 0.45508 0.33203 0.13625 0.16125 0.25859 0.37961 0.37109 0.66211 0.1125 0.285 0.17625 0.52703 0.1875 0.73828 0.01 0.2075-0.02492 0.39344-0.10742 0.55469-0.08 0.16-0.2057 0.29797-0.37695 0.41797-0.17375 0.11875-0.38633 0.23008-0.64258 0.33008l-1.261 0.5038-1.145-2.8828 1.262-0.498c0.255-0.10125 0.48836-0.16992 0.69336-0.20117 0.10438-0.015625 0.20281-0.020391 0.29688-0.013672zm32.779 2.8203-0.089 0.1309 0.08 0.1172-0.018 0.1367-0.131 0.1113-0.211 0.1153-3.248 1.9121-0.224 0.1113-0.215-0.0039-0.086 0.127 1.029 0.6992 0.088-0.1328-0.084-0.1758c0.02875-0.04125 0.1032-0.095313 0.2207-0.16406l0.60742-0.33789 1.7695 1.1914-0.08594 0.72461c-0.0125 0.1025-0.03781 0.17852-0.07031 0.22852l-0.08789 0.03516-0.08594-0.02734-0.08789 0.12891 1.2754 0.86133 0.08984-0.12695-0.0918-0.16992-0.02148-0.17969 0.48438-3.9727 0.02539-0.20508 0.05469-0.13281 0.12109-0.072266 0.13086 0.03125 0.085-0.1311-1.225-0.8301zm-40.533 0.0176-1.2791 0.793 0.084 0.1348c0.1475-0.09375 0.25219-0.097109 0.30469-0.00586l2.0977 3.377c0.05375 0.0875 0.0074 0.18039-0.14258 0.27539l0.08203 0.13281 3.543-2.1973 0.19141-0.099609 0.14844 0.083984 0.13477-0.083984-0.63086-1.0176-0.13477 0.083984 0.01563 0.1875-0.148 0.1606-2.473 1.5352-1.834-2.9648c-0.055-0.0875-0.01375-0.17227 0.125-0.25977l-0.08398-0.13477zm20.115 0.048828c-16.946 0-30.68 13.742-30.68 30.686 0 16.94 13.733 30.674 30.68 30.674 16.946 0 30.678-13.734 30.678-30.674 0-16.944-13.731-30.686-30.678-30.686zm20.311 1.3008-0.303 1.7578-1.291-0.8691 1.594-0.8887zm3.6543 0.86719-0.83203 0.90234 0.11914 0.10547 0.16602-0.072266 0.14258 0.072266 1.0625 0.97852-2.3613 2.5625-0.11719 0.05273-0.10547-0.04492-0.10547 0.11719 0.99023 0.91602 0.10742-0.11914-0.03516-0.24609 2.3613-2.5605 1.0605 0.97852 0.08398 0.13867-0.06055 0.16992 0.11914 0.10937 0.82812-0.9043-0.11524-0.10742-0.16797 0.07422-0.14062-0.07422l-2.859-2.634-0.082-0.1347 0.058-0.1719-0.117-0.1094zm-46.844 0.7461c-0.165-0.014062-0.33109-0.010156-0.49609 0.011719-0.33375 0.04125-0.65609 0.14031-0.96484 0.28906-0.3125 0.15375-0.58727 0.33789-0.82227 0.55664-0.23875 0.21375-0.44766 0.47008-0.62891 0.76758-0.18 0.29625-0.30711 0.60414-0.38086 0.93164-0.07125 0.32625-0.073906 0.65984-0.00391 0.99609 0.0675 0.3325 0.23727 0.65047 0.50977 0.94922 0.27 0.29625 0.57219 0.49891 0.89844 0.59766 0.3275 0.1 0.65844 0.12578 0.99219 0.08203 0.3325-0.04125 0.65008-0.14078 0.95508-0.30078 0.30375-0.16 0.5757-0.34766 0.81445-0.56641 0.23625-0.2125 0.44727-0.46461 0.63477-0.75586 0.18625-0.2875 0.31617-0.59758 0.38867-0.92383 0.07375-0.3275 0.075859-0.65719 0.00586-0.99219-0.0688-0.337-0.2386-0.654-0.5098-0.9515-0.27-0.2975-0.5709-0.4969-0.8984-0.5957-0.1638-0.0494-0.3292-0.0816-0.4942-0.0957zm-0.2051 0.8984c0.10812 0.010625 0.21539 0.032656 0.32227 0.066406 0.21 0.06875 0.3975 0.19445 0.5625 0.37695 0.16625 0.18 0.27281 0.3807 0.32031 0.5957 0.0475 0.2175 0.050313 0.43469 0.00781 0.64844-0.04375 0.21875-0.12523 0.42766-0.24023 0.62891-0.1175 0.2025-0.25812 0.37664-0.42188 0.52539-0.16375 0.15125-0.3493 0.2768-0.56055 0.37305-0.21125 0.0975-0.42773 0.15539-0.64648 0.18164-0.22 0.02-0.43469-0.000156-0.64844-0.06641-0.21125-0.06875-0.40141-0.19305-0.56641-0.37305-0.165-0.185-0.27086-0.38461-0.31836-0.59961-0.0475-0.21625-0.050313-0.43484-0.00781-0.65234 0.0425-0.2175 0.12273-0.4257 0.24023-0.62695 0.11625-0.2 0.25617-0.37594 0.41992-0.52344 0.16375-0.1525 0.3507-0.27359 0.56445-0.37109 0.21-0.1 0.42453-0.15914 0.64453-0.18164 0.11062-0.01125 0.22-0.012578 0.32812-0.00195zm51.607 3.0859-0.12109 0.0957 0.0332 0.10742-0.0625 0.11133-3.1504 2.4258-0.12109 0.03125-0.09766-0.06055-0.12695 0.09766 2.4902 3.2305 0.11524 0.17969-0.06445 0.16016 0.09375 0.125 0.95117-0.73242-0.09375-0.12695-0.18359 0.03516-0.17969-0.13086-1.7852-2.3184 0.95703-0.73242 1.0469 1.3555 0.12305 0.24609c0.0075 0.07625-0.04023 0.15523-0.14648 0.24023l0.09375 0.12109 1.084-0.83203-0.09766-0.12695c-0.105 0.08375-0.19141 0.10992-0.25391 0.07617l-0.20508-0.18359-1.0469-1.3594 0.85938-0.66016 1.7305 2.2461 0.12109 0.23242-0.07031 0.14844 0.0957 0.125 0.91602-0.70508-0.09766-0.125-0.16602 0.0332-0.20312-0.16797-2.4375-3.1621zm-57.074 0.77148-0.11133 0.04687-0.00195 0.10938-0.044922 0.11719-0.17773 0.14648c-0.10125 0.075-0.22273 0.16976-0.36523 0.29102-0.1425 0.1175-0.29789 0.26359-0.46289 0.43359-0.165 0.1675-0.32336 0.35109-0.47461 0.55859-0.24125 0.3325-0.41875 0.6643-0.53125 0.99805-0.11125 0.335-0.15336 0.66141-0.13086 0.97266 0.025 0.31125 0.11453 0.60727 0.26953 0.88476 0.15625 0.27625 0.38094 0.52524 0.67969 0.74024 0.2975 0.2175 0.59766 0.35812 0.91016 0.42188 0.30875 0.0675 0.61492 0.05883 0.91992-0.01367 0.3025-0.07625 0.59641-0.21383 0.87891-0.42383 0.27875-0.21125 0.5425-0.48125 0.78125-0.8125 0.125-0.16875 0.24523-0.34805 0.36523-0.5293 0.12-0.1825 0.22445-0.37898 0.31445-0.58398 0.0875-0.20625 0.15984-0.42008 0.21484-0.64258 0.05625-0.22375 0.0875-0.45375 0.09375-0.6875l-0.11328-0.08594-0.12305 0.06445-0.12109-0.02344-0.79883-0.58398-0.095703-0.12305c-0.00125-0.03875 0.026328-0.10914 0.080078-0.21289l-0.12695-0.0957-1.293 1.7676-0.13867 0.125-0.19922-0.04883-0.09375 0.12695 0.90234 0.66211 0.095703-0.125-0.13672-0.19922 0.066406-0.17773 0.66016-0.90625 0.60938 0.44336c-0.06 0.19125-0.14531 0.40609-0.25781 0.65234-0.11125 0.25-0.26539 0.50664-0.46289 0.77539-0.1275 0.175-0.28008 0.32859-0.45508 0.46484-0.17375 0.1375-0.36195 0.23422-0.56445 0.29297-0.2 0.055-0.41578 0.06594-0.64453 0.02344-0.22625-0.0375-0.45625-0.14375-0.6875-0.3125-0.23375-0.16875-0.40531-0.35859-0.50781-0.55859-0.105-0.20375-0.16102-0.41305-0.16602-0.62305s0.029922-0.42 0.10742-0.625c0.07625-0.20875 0.17789-0.40117 0.30664-0.57617 0.1025-0.14125 0.22172-0.28398 0.35547-0.42773 0.135-0.1425 0.27195-0.2668 0.4082-0.37305 0.13875-0.10375 0.26867-0.17891 0.38867-0.22266 0.12125-0.04625 0.21516-0.04719 0.28516 0.0078l0.076172 0.07617 0.14453-0.11328-0.62695-1.0957zm56.232 41.232-0.05078 0.02539-0.17188 0.06836c-0.035 0.19-0.0543 0.27-0.0918 0.3125-0.0075 0.01875-0.13312 0.10094-0.32812 0.21094-0.615 0.32875-1.085 0.62062-1.4375 0.89062-0.34625 0.265-0.67492 0.59227-0.98242 0.97852-0.6825 0.8375-1.0273 1.6388-1.0273 2.4062l0.01172 0.20312c0.04625 0.62625 0.33406 1.1566 0.85156 1.5703 0.31 0.25125 0.64641 0.40609 1.0039 0.46484 0.10625 0.015 0.20977 0.02539 0.32227 0.02539 0.28 0 0.54594-0.05523 0.80469-0.17774 0.24875-0.11 0.47242-0.24484 0.66992-0.40234 0.19125-0.15625 0.49359-0.43461 0.90234-0.84961l0.61914-0.61523c0.4075-0.4075 0.7075-0.66156 0.875-0.75781 0.1125-0.0675 0.21891-0.09375 0.31641-0.09375l0.29492 0.11524c0.11375 0.09625 0.20305 0.22609 0.24805 0.40234l0.0293 0.26758c0 0.0975-0.0095 0.19524-0.0332 0.30274-0.08875 0.36625-0.28805 0.745-0.5918 1.125-0.28625 0.35125-0.65094 0.67023-1.0859 0.95898-0.43875 0.2975-0.81023 0.46758-1.1152 0.51758l-0.14648 0.01563c-0.1325 0-0.23476-0.03633-0.32226-0.11133l-0.05664-0.04687-0.22852 0.07422-0.05469 0.02344 0.98633 1.9355 0.22461-0.0957c0.03625-0.18 0.05141-0.2693 0.06641-0.2793 0.0025-0.0012 0.12953-0.08109 0.33203-0.18359 1.0038-0.46375 1.8339-1.0935 2.4727-1.8848 0.36375-0.44375 0.64391-0.90625 0.84766-1.375 0.202-0.473 0.307-0.9 0.307-1.301 0-0.14-0.01172-0.2757-0.04297-0.4082-0.10625-0.5425-0.37219-0.99555-0.80469-1.3418-0.27125-0.22-0.57375-0.37016-0.90625-0.44141-0.15875-0.04-0.30984-0.05273-0.46484-0.05273-0.17375 0-0.34031 0.0232-0.50781 0.06445-0.29625 0.09-0.58695 0.22938-0.87695 0.42188-0.2825 0.19375-0.61453 0.47641-0.98828 0.84766l-0.625 0.62891c-0.41 0.4225-0.69836 0.68336-0.84961 0.78711-0.1475 0.1-0.285 0.14648-0.40625 0.14648-0.10375 0-0.20469-0.03273-0.30469-0.11523-0.11625-0.10125-0.19711-0.23172-0.22461-0.41797l-0.01563-0.16211c0-0.1375 0.03008-0.28695 0.08008-0.43945 0.11875-0.2875 0.29867-0.58938 0.54492-0.89062 0.5575-0.6875 1.2208-1.1409 1.9883-1.3672 0.11125-0.03375 0.21242-0.05273 0.29492-0.05273l0.17383 0.04687 0.06055 0.06445 0.23242-0.06445 0.05078-0.02148-0.86914-1.9512zm-54.315 1.835-0.1602 0.18l-0.029297 0.03516 0.027344 0.04102c0.1 0.1275 0.14453 0.25344 0.14453 0.36719 0 0.11875-0.050391 0.32477-0.15039 0.60352l-2.1308 5.672c-0.10125 0.27-0.18562 0.43633-0.20312 0.45508l-0.21094 0.10352-0.24609-0.08398-0.044922-0.01953-0.14648 0.16797-0.039063 0.04297 1.918 1.7188 0.16406-0.17383 0.033203-0.0332-0.027344-0.03906c-0.09375-0.14125-0.13281-0.24188-0.13281-0.32812l0.056641-0.14844c0.02375-0.0225 0.15727-0.10367 0.38477-0.20117l4.1112-2.062-1.5742 4.213c-0.0875 0.27125-0.16102 0.4382-0.19727 0.4707l-0.19531 0.09961c-0.07625 0-0.16703-0.0275-0.26953-0.09375l-0.044922-0.0293-0.14844 0.17383-0.037109 0.04883 1.9473 1.7402 0.15625-0.17969 0.039063-0.04102-0.033203-0.0332c-0.0988-0.122-0.1348-0.219-0.1348-0.296l0.0625-0.15234c0.04375-0.05 0.20148-0.15375 0.45898-0.28125l5.3945-2.75c0.28375-0.1425 0.47766-0.21531 0.56641-0.22656l0.04492-0.0059c0.0825 0 0.20211 0.03312 0.34961 0.10938l0.03906 0.01367 0.15234-0.16211 0.03711-0.04687-2.0508-1.834-0.16211 0.17774-0.0293 0.03906 0.0293 0.04297c0.095 0.1225 0.13672 0.22367 0.13672 0.29492l-0.04687 0.13672c-0.0575 0.06-0.17844 0.14328-0.36719 0.23828l-3.6445 1.8926 1.4844-3.916c0.06-0.16375 0.10938-0.26312 0.14062-0.29688l0.18164-0.08203c0.075 0 0.16719 0.02258 0.27344 0.08008l0.03516 0.02148 0.15039-0.16992 0.04492-0.04492-2.168-1.9336-0.1582 0.17578-0.035156 0.04297 0.029297 0.03711c0.08625 0.1125 0.12305 0.20344 0.12305 0.27344l-0.0599 0.15c-0.01875 0.02875-0.12406 0.09758-0.28906 0.17383l-3.7988 1.877 1.5137-3.8887c0.0625-0.1525 0.12313-0.25875 0.17188-0.3125l0.16211-0.07422 0.24609 0.07422 0.044922 0.02344 0.14648-0.17188 0.039063-0.04102-2.0762-1.8555zm48.947 4.3633-0.14062 0.0059c-0.30875 0.0175-0.62711 0.10953-0.94336 0.26953-0.32125 0.1575-0.70508 0.41805-1.1738 0.7793l-3.834 2.959 0.14648 0.1875 0.02148 0.0332 0.04297-0.01953 0.23242-0.05469 0.04687 0.0039 0.19336 0.14453 3.9492 5.1289 0.08789 0.20508v0.01172c-0.0063 0.05375-0.0425 0.14125-0.125 0.25l-0.02344 0.03906 0.13867 0.17773 0.03711 0.04687 1.9844-1.5312-0.14844-0.19141-0.02734-0.03906-0.04102 0.02148-0.23242 0.05664-0.03906-0.0039-0.19141-0.13672-1.5117-1.9609 1.5684-1.2129 2.5508 0.85156c0.29 0.08375 0.46672 0.17617 0.48047 0.20117l0.01953 0.05273-0.125 0.20117-0.0332 0.03125 0.14258 0.18945 0.0332 0.04883 2.2891-1.7695-0.14844-0.18555-0.03125-0.03906-0.05273 0.02539c-0.12 0.0875-0.24797 0.1225-0.38672 0.125h-0.03906c-0.14375-0.01125-0.44164-0.08148-0.86914-0.20898l-2.3789-0.74609c0.5025-0.5475 0.75586-1.1038 0.75586-1.6562 0-0.46-0.17297-0.9132-0.51172-1.3457-0.22625-0.3025-0.5025-0.53984-0.8125-0.71484-0.28625-0.1575-0.58539-0.23422-0.90039-0.23047zm-0.37891 1.6348c0.25125 0 0.47078 0.12281 0.67578 0.38281 0.14875 0.1975 0.2207 0.38516 0.2207 0.56641l-0.05859 0.28711c-0.06 0.13125-0.14125 0.25117-0.25 0.35742-0.105 0.11375-0.30867 0.29133-0.60742 0.51758l-1.998 1.5352-1.1523-1.4941 1.998-1.5332c0.3-0.23625 0.5243-0.39125 0.6543-0.46875 0.1225-0.07375 0.26164-0.11672 0.40039-0.13672l0.11719-0.01367zm-37.621 2.7051-0.10156 0.21484-0.01758 0.03711 0.0293 0.03516c0.1025 0.1 0.14844 0.19391 0.14844 0.28516l-0.03125 0.12305c-0.04875 0.0825-0.14328 0.19641-0.30078 0.31641l-5.1138 4.046c-0.1875 0.1525-0.32281 0.24258-0.41406 0.26758l-0.1386 0.019-0.1973-0.029-0.0507-0.012-0.1055 0.199-0.027344 0.05469 2.3809 1.1699 0.11133-0.21875 0.01953-0.04102-0.03711-0.03125c-0.13875-0.11125-0.19531-0.21508-0.19531-0.29883l0.02149-0.09961c0.03375-0.06125 0.10758-0.14875 0.23633-0.25l0.93359-0.73828 3.0254 1.5156v1.166c0 0.16625-0.01977 0.28344-0.04102 0.33594-0.055 0.09875-0.12289 0.14148-0.24414 0.14648l-0.17969-0.02734-0.04101-0.01563-0.10352 0.20898-0.01953 0.04883 2.6328 1.2969 0.10352-0.2168 0.01758-0.04883-0.0332-0.0293c-0.12375-0.08875-0.19883-0.18742-0.23633-0.29492-0.04-0.11375-0.06641-0.30969-0.06641-0.58594l-0.02539-6.582c0-0.15125 0.02055-0.27281 0.06055-0.35156 0.04375-0.085 0.11531-0.12726 0.25781-0.13476l0.12305 0.01172 0.14844-0.19336 0.02539-0.05078-2.5527-1.248zm30.094 0.74609c-0.6625 0-1.3627 0.15891-2.0977 0.47266-1.6425 0.72375-2.5863 1.8097-2.7988 3.2422-0.03375 0.20375-0.04883 0.40531-0.04883 0.60156 0 0.5475 0.11524 1.0771 0.33398 1.5996 0.20625 0.48875 0.50023 0.91195 0.86523 1.2832 0.4175 0.41375 0.89711 0.72016 1.4434 0.91016 0.41125 0.1475 0.84383 0.22461 1.2988 0.22461 0.65 0 1.3424-0.155 2.0762-0.46875 1.635-0.69375 2.5752-1.785 2.8027-3.25 0.03375-0.2225 0.05469-0.43508 0.05469-0.64258 0-0.525-0.11195-1.0287-0.31445-1.5137-0.47625-1.1112-1.2556-1.8608-2.3281-2.2383-0.40625-0.1475-0.84211-0.2207-1.2871-0.2207zm-0.389 1.534c0.25375 0 0.50992 0.04109 0.76367 0.12109 0.70375 0.22875 1.2172 0.72976 1.5547 1.5098 0.145 0.32125 0.2118 0.65195 0.2168 1.002v0.0293c0 0.38625-0.07187 0.74492-0.23438 1.0762-0.26375 0.57625-0.72703 1.0027-1.3945 1.2852-0.3925 0.165-0.76711 0.25-1.1309 0.25-0.2625 0-0.51664-0.03945-0.77539-0.12695-0.70875-0.24125-1.2262-0.73211-1.5449-1.4746-0.16125-0.37875-0.23438-0.7425-0.23438-1.0938 0-0.3575 0.07258-0.70688 0.23633-1.0469 0.2725-0.57875 0.73453-1.002 1.3945-1.2832 0.392-0.166 0.776-0.248 1.149-0.248zm-25.088 0.0332-0.05859 0.23438c0.15625 0.1275 0.22891 0.18844 0.25391 0.24219l0.02734 0.125-0.0078 0.10742-1.3242 6.3477-0.10938 0.20117c-0.05125 0.0325-0.13578 0.06516-0.26953 0.06641l-0.09375 0.22461-0.01172 0.05273 2.4492 0.52148 0.05273-0.23828c-0.14625-0.12375-0.215-0.18242-0.25-0.23242l-0.0293-0.13672 0.0098-0.0918 0.51172-2.4336 1.9395 0.40625 1.0098 2.4883c0.10625 0.255 0.1632 0.42438 0.1582 0.48438v0.01953c-0.01125 0.04375-0.0625 0.07883-0.21875 0.08008h-0.04492l-0.09961 0.22656-0.0078 0.05859 2.8223 0.58398 0.04883-0.22852 0.01367-0.05469-0.058-0.013c-0.15625-0.045-0.27633-0.11844-0.36133-0.24219-0.095-0.12375-0.23461-0.39648-0.41211-0.80273l-0.98437-2.291h0.14648c1.2712 0.0075 2.0627-0.59328 2.3027-1.7695 0.0375-0.19 0.05859-0.3832 0.05859-0.56445 0-0.1725-0.01633-0.34422-0.04883-0.51172-0.08125-0.36375-0.24516-0.67805-0.50391-0.93555-0.21625-0.22875-0.49031-0.40453-0.82031-0.55078-0.33125-0.13625-0.77641-0.25781-1.3477-0.38281l-4.743-0.99zm-4.3281 0.19922-0.08008 2.7773-2.0801-1.0273 2.1602-1.75zm23.357 0.36328-2.4492 0.53906 0.04492 0.23828c0.195 0.0525 0.28398 0.08094 0.33398 0.11719l0.10938 0.19531 1.3984 6.334 0.0098 0.10742-0.02539 0.125c-0.03125 0.05125-0.1007 0.11898-0.2207 0.17773l0.0059 0.24219 0.01758 0.05664 2.4531-0.54102-0.05859-0.23242c-0.18-0.0475-0.27031-0.07539-0.32031-0.11914-0.0525-0.035-0.09148-0.10258-0.11523-0.20508l-1.3984-6.332-0.01172-0.10742 0.02734-0.11914c0.0325-0.0525 0.10359-0.11953 0.21484-0.17578l-0.002-0.24219-0.01367-0.05859zm-5.582 0.95703c-0.14875 0-0.31422 0.0017-0.48047 0.01172l-4.7812 0.19336-0.05078 0.23438c0.17 0.08375 0.25773 0.12969 0.30273 0.17969 0.03875 0.0375 0.06656 0.11125 0.07031 0.21875l0.25781 6.4727v0.02539l-0.06055 0.19922c-0.0325 0.0425-0.11859 0.09047-0.24609 0.13672l-0.03906 0.24024 2.459-0.03906 0.04297-0.24609c-0.17375-0.075-0.24922-0.12031-0.29297-0.16406-0.04625-0.045-0.07703-0.11695-0.08203-0.2207l-0.09375-2.4727 1.9805-0.07812 1.5879 2.1602c0.17875 0.24125 0.27148 0.40516 0.27148 0.44141v0.0059c0 0.05625-0.05063 0.11305-0.23438 0.1543l-0.03711 0.23242 2.8223-0.04687 0.05469-0.24023c-0.2275-0.0625-0.36031-0.11274-0.47656-0.20898-0.11125-0.0925-0.3175-0.31648-0.59375-0.67773l-1.5156-1.9805c1.29-0.27125 1.9588-1.0123 1.9551-2.1836l-0.0039-0.125c-0.01625-0.375-0.09734-0.72578-0.24609-1.0508-0.16875-0.33375-0.40625-0.60336-0.71875-0.78711-0.2725-0.165-0.57984-0.27508-0.93359-0.33008-0.25125-0.03625-0.55797-0.05469-0.91797-0.05469zm-5.041 0.25586-0.16602 0.0059v-0.002l0.16602-0.0039zm-6.5898 0.01758 2.4629 0.51758c0.38625 0.07125 0.6457 0.14125 0.7832 0.1875 0.13 0.0525 0.25289 0.12531 0.36914 0.22656 0.1725 0.1375 0.25586 0.32477 0.25586 0.57227l-0.01953 0.25977c-0.08875 0.3775-0.26594 0.59664-0.55469 0.68164-0.1075 0.03-0.22039 0.05469-0.33789 0.05469l-0.08984-0.002c-0.15375-0.015-0.42102-0.05672-0.79102-0.13672l-2.4668-0.51562 0.38867-1.8457zm11.523 1.1113c0.13125 0 0.23148 0.0069 0.30274 0.01563 0.13875 0.01125 0.28226 0.05539 0.41602 0.11914 0.25875 0.1275 0.40508 0.37477 0.42383 0.75977v0.05859c-0.0012 0.3575-0.12258 0.58812-0.36133 0.73438-0.1225 0.0725-0.2632 0.12219-0.4082 0.14844-0.15 0.02875-0.41367 0.04891-0.79492 0.06641l-2.5176 0.09961-0.08008-1.9492 0.09375-0.0039 2.4297-0.0332c0.19125-0.0088 0.35359-0.01563 0.49609-0.01563zm0.74414 6.2363v0.0059h-0.002l0.002-0.0059z" transform="matrix(.8 0 0 -.8 315.32 598)" fill="#006bb6"/><path d="m356.61 554.14c3.704 4.022 5.969 9.391 5.969 15.291 0 12.475-10.11 22.578-22.582 22.578s-22.582-10.103-22.582-22.578c0-12.473 10.11-22.58 22.582-22.58 6.341 0 12.068 2.616 16.169 6.824 0.136 0.075 0.302 0.271 0.444 0.465" fill="#fdb927"/><path d="m30.846 9.252c-14.606 0-26.445 11.842-26.445 26.449 0 1.2962 0.097344 2.5702 0.27734 3.8164 1.8638-1.9 5.6202-6.3605 9.0352-14.168 0.0425-2.285 0.07031-3.7207 0.07031-3.7207l0.68164-0.16406 0.02148-0.67969h1.1348s0.0077 0.71688 0.02148 1.9531c0.11375 0.1425 0.24953 0.31305 0.42578 0.5293-0.0175-0.77625-0.02734-1.2246-0.02734-1.2246l0.76758-0.66406 0.82031 0.36914s0.03602 1.3131 0.10352 3.4531c5.1362 5.74 18.248 18.455 36.643 22.574 1.8612-3.6212 2.918-7.723 2.918-12.074 0-14.608-11.839-26.449-26.447-26.449zm-15.2 13.918c0.05875 5.1575 0.23508 17.707 0.64258 27.637 0.19875-0.0225 0.39461-0.04781 0.59961-0.07031-0.37625-9.4088-0.7043-22.581-0.81055-27.094-0.145-0.15875-0.28664-0.31141-0.43164-0.47266zm2.0938 2.2793c0.05125 1.6225 0.12148 3.6909 0.20898 6.0234l5.7773 18.582c0.58625-0.05125 1.183-0.10039 1.793-0.15039l-7.646-24.314c-0.04375-0.0475-0.08906-0.09313-0.13281-0.14062zm-4.0625 1.0039c-0.67 1.5-1.3931 2.9686-2.1406 4.3711l-3.3046 18.602c0.34 0.56 0.70594 1.1009 1.0859 1.6309l4.3597-24.604zm5.1133 0.10352 7.2969 23.303c0.535-0.0425 1.0757-0.0843 1.627-0.12305l-6.649-20.852c-0.74875-0.745-1.5091-1.5281-2.2754-2.3281zm3.2539 3.2852 6.2461 19.854c0.55375-0.03875 1.1155-0.07578 1.6855-0.11328l-5.537-17.46c-0.78625-0.72875-1.5858-1.4938-2.3945-2.2812zm-8.4121 0.0957-3.8516 21.705c0.44125-0.06375 0.95336-0.13805 1.5371-0.2168l2.0898-11.779 0.08008 0.01367c0.0425-3.4162 0.09578-6.8089 0.14453-9.7227zm-2.9375 2.4258c-0.6025 1.0762-1.2055 2.0993-1.793 3.0605l-2.028 11.453c0.295 0.6325 0.61453 1.251 0.95703 1.8535l2.863-16.367zm14.598 0.53711 5.2598 16.645c0.52375-0.0325 1.0555-0.0625 1.5918-0.09375l-4.634-14.587c-0.7275-0.6275-1.4675-1.2823-2.2188-1.9648zm-7.2539 0.89844c0.07125 1.8262 0.15414 3.7594 0.24414 5.7344l3.3711 10.711c0.49-0.045 0.99195-0.09367 1.502-0.13867l-5.118-16.306zm10.25 1.7363 4.4297 13.883c0.59-0.03125 1.1866-0.06234 1.7891-0.08984l-3.741-11.758c-0.81-0.64625-1.6348-1.3202-2.4785-2.0352zm-20.132 1.088c-0.45375 0.71875-0.88758 1.3871-1.2988 2.0059l-1.1719 5.232c0.24 0.74125 0.50805 1.4711 0.81055 2.1836l1.6602-9.4219zm23.432 1.5957 3.5 11.084c0.54375-0.0225 1.092-0.04836 1.6445-0.06836l-3.002-9.391c-0.698-0.516-1.412-1.054-2.142-1.625zm-25.652 1.775c-0.3475 0.50625-0.65859 0.94703-0.93359 1.332 0.0875 0.4025 0.18281 0.80297 0.28906 1.1992l0.6445-2.531zm28.621 0.45508 2.7539 8.7637c0.565-0.02125 1.1326-0.03914 1.7051-0.05664l-2.2578-7.1465 0.08008 0.02539-0.09375-0.0625-0.002-0.0039c-0.71-0.47875-1.4355-0.98078-2.1855-1.5195zm-16.166 1.3926c0.145 2.9538 0.30914 5.9234 0.49414 8.6797 0.70625-0.07375 1.4353-0.14891 2.1953-0.22266l-2.6895-8.457zm19.082 0.61719 2.1191 6.6836c0.5925-0.01625 1.1891-0.02976 1.7891-0.04102l-1.6055-5.1777c-0.73875-0.45125-1.5065-0.93859-2.3027-1.4648zm-24.02 0.12891-1.5527 8.7598c0.4675-0.06125 0.9632-0.12656 1.502-0.19531-0.0012-2.5175 0.01828-5.4857 0.05078-8.5645zm27.046 1.771l1.4648 4.7324c0.55375-0.01 1.1099-0.01773 1.6699-0.02148l-1.112-3.547c-0.643-0.355-1.321-0.745-2.023-1.164zm2.7324 1.5508 0.98828 3.1523c0.57375-0.0025 1.1524-0.002 1.7324-0.002l-0.66602-2.1016c-0.6425-0.3125-1.3272-0.66008-2.0547-1.0488zm2.7441 1.3789 0.56445 1.7715c1.3075 0.0063 2.6242 0.02414 3.9492 0.05664-0.93625-0.305-2.4749-0.87188-4.5137-1.8281zm-6.5312 5.9824c-4.7855 0.0083-10.4 0.09406-16.039 0.35156 14.99-0.28125 23.051 0.13375 26.502 0.40625 0.20375-0.21375 0.40727-0.42508 0.60352-0.64258-2.3231-0.05438-6.2809-0.12352-11.066-0.11524zm-13.408 1.1836c-2.4728 0.01812-4.7995 0.05656-6.8535 0.10156 0.1625 1.9725 0.33648 3.718 0.52148 5.1367 3.3862 1.5762 7.1581 2.4609 11.141 2.4609 6.8938 0 13.171-2.6404 17.877-6.9629-6.545-0.665-15.268-0.79-22.686-0.736zm-8.9805 0.15234c-0.2 0.005-0.40125 0.0094-0.59375 0.01563 0.06375 1.2125 0.13258 2.358 0.20508 3.4043 0.20125 0.1275 0.40047 0.25641 0.60547 0.37891-0.0725-1.0212-0.14555-2.3101-0.2168-3.7988zm-3.6289 0.10742c-0.345 0.01125-0.64703 0.0232-0.92578 0.0332 0.30625 0.29625 0.61945 0.58258 0.93945 0.86133-0.0063-0.27875-0.0099-0.57828-0.01367-0.89453z" transform="matrix(.8 0 0 -.8 315.32 598)" fill="#006bb6"/></g></g></svg>
