<?xml version="1.0" encoding="UTF-8" standalone="no"?>
<!-- Created with Inkscape (http://www.inkscape.org/) by Marsupilami -->
<svg
   xmlns:svg="http://www.w3.org/2000/svg"
   xmlns="http://www.w3.org/2000/svg"
   version="1.0"
   width="768"
   height="768"
   viewBox="0 0 65.727501 65.728752"
   id="svg8379">
  <defs
     id="defs8381" />
  <g
     transform="translate(-342.13625,-499.49781)"
     id="layer1">
    <path
       d="M 407.86375,532.36031 C 407.86375,550.51156 393.14875,565.22656 374.99875,565.22656 C 356.8475,565.22656 342.13625,550.51156 342.13625,532.36031 C 342.13625,514.21281 356.8475,499.49781 374.99875,499.49781 C 393.14875,499.49781 407.86375,514.21281 407.86375,532.36031"
       id="path2928"
       style="fill:#ffffff;fill-opacity:1;fill-rule:nonzero;stroke:none" />
    <path
       d="M 406.61,532.36031 C 406.61,549.82031 392.45875,563.97406 374.99875,563.97406 C 357.54125,563.97406 343.39125,549.82031 343.39125,532.36031 C 343.39125,514.90406 357.54125,500.75031 374.99875,500.75031 C 392.45875,500.75031 406.61,514.90406 406.61,532.36031"
       id="path2932"
       style="fill:#bfbebf;fill-opacity:1;fill-rule:nonzero;stroke:none" />
    <path
       d="M 404.801,532.36031 C 404.801,548.82031 391.45975,562.16531 374.9985,562.16531 C 358.53975,562.16531 345.1985,548.82031 345.1985,532.36031 C 345.1985,515.90156 358.53975,502.55906 374.9985,502.55906 C 391.45975,502.55906 404.801,515.90156 404.801,532.36031"
       id="path2936"
       style="fill:#0e2b58;fill-opacity:1;fill-rule:nonzero;stroke:none" />
    <path
       d="M 32.875,4.46875 C 17.192501,4.4687499 4.46875,17.19 4.46875,32.875 C 4.4687499,48.563751 17.1925,61.25 32.875,61.25 C 48.561251,61.250001 61.25,48.56375 61.25,32.875 C 61.250001,17.190001 48.56125,4.46875 32.875,4.46875 z M 32.875,14.53125 C 43.002501,14.53125 51.1875,22.75 51.1875,32.875 C 51.187499,43.002501 43.0025,51.1875 32.875,51.1875 C 22.748751,51.187499 14.53125,43.0025 14.53125,32.875 C 14.53125,22.750001 22.74875,14.53125 32.875,14.53125 z"
       transform="translate(342.13625,499.49781)"
       id="path2940"
       style="fill:#fbbf15;fill-opacity:1;fill-rule:nonzero;stroke:none" />
    <path
       d="M 394.44388,532.36031 C 394.44388,543.32406 385.73763,552.21156 374.99888,552.21156 C 364.26263,552.21156 355.55888,543.32406 355.55888,532.36031 C 355.55888,521.39656 364.26263,512.51156 374.99888,512.51156 C 385.73763,512.51156 394.44388,521.39656 394.44388,532.36031"
       id="path2944"
       style="fill:#0e2b58;fill-opacity:1;fill-rule:nonzero;stroke:none" />
    <path
       d="M 393.19088,532.36031 C 393.19088,542.61906 385.04588,550.93281 374.99838,550.93281 C 364.95213,550.93281 356.80838,542.61906 356.80838,532.36031 C 356.80838,522.10281 364.95213,513.79031 374.99838,513.79031 C 385.04588,513.79031 393.19088,522.10281 393.19088,532.36031"
       id="path2948"
       style="fill:#ffffff;fill-opacity:1;fill-rule:nonzero;stroke:none" />
    <path
       d="M 31.8125,5.78125 L 31.03125,5.8125 L 31.34375,11.8125 L 32.125,11.75 L 31.8125,5.78125 z M 41.9375,7.375 L 38.75,12.5625 L 39.46875,12.84375 L 40.0625,11.8125 L 41.0625,12.21875 L 40.8125,13.34375 L 41.5625,13.625 L 42.6875,7.65625 L 41.9375,7.375 z M 21.40625,8.4375 C 21.271582,8.4611524 21.125625,8.5296874 21,8.59375 L 19.8125,9.1875 L 22.5625,14.5 L 23.75,13.90625 C 24.23625,13.65625 24.579999,13.1175 24.28125,12.53125 C 23.5325,11.0675 23.216249,10.435 22.46875,8.96875 C 22.231563,8.509375 21.810254,8.3665428 21.40625,8.4375 z M 21.34375,9.15625 C 21.538633,9.1336915 21.743437,9.2443753 21.84375,9.4375 C 22.46375,10.6525 22.8825,11.5075 23.5,12.71875 C 23.6275,12.965 23.594999,13.24625 23.28125,13.40625 L 22.9375,13.59375 L 20.8125,9.40625 L 21.15625,9.21875 C 21.223438,9.1846875 21.278789,9.1637695 21.34375,9.15625 z M 41.625,9.21875 L 41.65625,9.25 L 41.21875,11.53125 L 40.40625,11.21875 L 41.625,9.21875 z M 51.28125,13.21875 L 46.90625,17.3125 L 47.40625,17.84375 L 49.71875,15.65625 L 48.34375,18.84375 L 48.625,19.125 L 52.96875,15.03125 L 52.5,14.5 L 50.09375,16.75 L 51.53125,13.5 L 51.28125,13.21875 z M 12.5625,15.25 L 12.125,15.8125 L 14.71875,17.8125 L 11.28125,16.90625 L 11.03125,17.21875 L 15.78125,20.875 L 16.21875,20.3125 L 13.71875,18.375 L 17.0625,19.21875 L 17.3125,18.875 L 12.5625,15.25 z M 58.03125,23.90625 L 52,24.71875 L 52.25,25.4375 L 53.40625,25.25 L 53.75,26.28125 L 52.6875,26.8125 L 52.9375,27.5625 L 58.28125,24.65625 L 58.03125,23.90625 z M 56.375,24.8125 L 56.40625,24.875 L 54.34375,25.96875 L 54.0625,25.125 L 56.375,24.8125 z M 7.09375,25.84375 L 6.90625,26.59375 L 12.71875,28.03125 L 12.90625,27.3125 L 7.09375,25.84375 z M 14,41.875 L 8.6875,44.65625 L 9.0625,45.34375 L 11.09375,44.28125 L 11.625,45.3125 C 11.7775,45.60625 12.035,45.677502 12.3125,45.53125 C 13.25625,45.03875 13.74,44.80375 14.6875,44.3125 C 14.9475,44.17375 15.04875,43.897499 14.875,43.5625 L 14,41.875 z M 13.78125,42.875 L 14.21875,43.6875 L 12.09375,44.78125 L 11.65625,43.96875 L 13.78125,42.875 z M 50.96875,43.65625 C 50.850937,43.676875 50.736874,43.74875 50.65625,43.875 C 50.41,44.26875 50.246251,44.57625 50,44.96875 C 49.8525,45.20125 49.948751,45.49125 50.15625,45.625 C 50.61,45.90875 50.790001,46.041248 51.21875,46.3125 C 51.3375,46.3875 51.46375,46.376252 51.625,46.375 L 53.875,46.28125 L 55,47 L 54.65625,47.5625 L 53.46875,46.8125 L 53.0625,47.46875 L 54.375,48.28125 C 54.63875,48.4475 54.931249,48.362498 55.0625,48.15625 C 55.305,47.76625 55.472498,47.453751 55.71875,47.0625 C 55.87125,46.81625 55.79375,46.551252 55.5625,46.40625 C 54.99875,46.0525 54.77875,45.950001 54.21875,45.59375 C 54.07375,45.50125 53.892498,45.499998 53.6875,45.5 L 51.59375,45.59375 L 50.6875,45.03125 L 51.0625,44.5 L 51.96875,45.0625 L 52.375,44.40625 L 51.34375,43.75 C 51.220625,43.6725 51.086563,43.635625 50.96875,43.65625 z M 19.84375,49.5 L 15.25,53.46875 L 15.84375,53.9375 L 16.71875,53.15625 L 17.5625,53.84375 L 16.96875,54.84375 L 17.59375,55.34375 L 20.46875,49.96875 L 19.84375,49.5 z M 45.4375,50.0625 C 45.315781,50.035312 45.183125,50.084376 45.03125,50.1875 L 43.375,51.28125 L 46.75,56.25 L 47.40625,55.8125 L 44.375,51.40625 L 45.1875,50.84375 L 46.28125,52.4375 L 45.75,52.78125 L 45.78125,53.0625 L 48.21875,55.25 L 48.9375,54.75 L 46.75,52.875 L 46.84375,52.84375 C 47.07875,52.68375 47.164999,52.411249 46.96875,52.125 C 46.505,51.44125 46.21875,50.99625 45.75,50.3125 C 45.67375,50.199375 45.559219,50.089688 45.4375,50.0625 z M 18.96875,51.15625 L 19,51.1875 L 17.875,53.25 L 17.21875,52.71875 L 18.96875,51.15625 z M 27.15625,53.4375 C 26.97666,53.467735 26.830937,53.607188 26.78125,53.8125 C 26.31,55.7225 26.035,56.747499 25.5625,58.65625 C 25.4925,58.93875 25.66875,59.185 25.9375,59.25 C 26.47875,59.385 26.8375,59.491248 27.375,59.625 C 27.62875,59.685 27.867499,59.532499 27.9375,59.25 L 28.34375,57.71875 L 27.59375,57.53125 L 27.25,58.90625 L 26.34375,58.6875 L 27.46875,54.15625 L 28.375,54.375 L 28.09375,55.4375 L 28.84375,55.625 L 29.15625,54.40625 C 29.22125,54.14 29.07,53.8775 28.8125,53.8125 C 28.27125,53.68125 27.885001,53.56875 27.34375,53.4375 C 27.283125,53.422188 27.216113,53.427422 27.15625,53.4375 z M 37.5,53.6875 L 35.59375,54.03125 L 36.65625,59.9375 L 38.5625,59.59375 L 38.46875,58.9375 L 37.3125,59.15625 L 36.9375,57.09375 L 38,56.90625 L 37.875,56.25 L 36.8125,56.4375 L 36.46875,54.53125 L 37.625,54.34375 L 37.5,53.6875 z"
       transform="translate(342.13625,499.49781)"
       id="path2952"
       style="fill:#0e2b58;fill-opacity:1;fill-rule:nonzero;stroke:none" />
    <path
       d="M 369.17838,521.09206 L 364.25963,543.43331 L 374.01213,543.44206 C 374.01213,543.44206 375.08963,539.00456 375.18963,538.59456 C 375.60838,538.59456 379.41588,538.59581 379.41588,538.59581 C 382.57088,538.61831 385.16088,537.54456 386.91088,535.48956 C 390.09463,532.02581 389.53213,526.96956 387.14213,524.08831 C 385.42963,522.01706 382.95463,520.87331 380.18713,520.86706 L 369.22963,520.86081 L 369.17838,521.09206"
       id="path3004"
       style="fill:#bfbebf;fill-opacity:1;fill-rule:nonzero;stroke:none" />
    <path
       d="M 386.92013,524.27556 C 385.25763,522.27306 382.86638,521.16806 380.18763,521.16306 L 369.46638,521.15681 L 364.62763,543.14056 L 373.77763,543.14556 L 374.95638,538.29931 C 376.18763,538.29931 379.42013,538.30056 379.41638,538.30056 C 382.47888,538.32306 384.99638,537.28431 386.68888,535.29931 C 389.76388,531.94931 389.22263,527.06056 386.92013,524.27556"
       id="path3008"
       style="fill:#bfbebf;fill-opacity:1;fill-rule:nonzero;stroke:none" />
    <path
       d="M 374.48725,537.70456 L 373.3085,542.54956 L 365.36725,542.54581 L 369.946,521.75081 L 380.1835,521.75956 C 382.73475,521.76206 384.9185,522.79706 386.4635,524.65581 C 388.731,527.39706 388.9535,531.95081 386.236,534.91206 C 384.56975,536.86581 382.12475,537.72331 379.41975,537.70581 L 374.48725,537.70456"
       id="path3012"
       style="fill:#0e2b58;fill-opacity:1;fill-rule:nonzero;stroke:none" />
    <path
       d="M 38.875,23.9375 C 38.77875,23.925 38.771248,23.97625 38.90625,24.0625 C 39.615,24.5125 41.317501,26.036249 41.90625,28.09375 C 41.97,28.33125 42.061248,28.38625 42.375,28.21875 C 42.6775,28.05375 43.57125,27.068751 43.09375,26.34375 C 42.2575,25.0775 40.573748,24.16375 38.875,23.9375 z M 36.96875,23.96875 C 35.65125,24.2075 34.440001,24.874999 33.53125,25.78125 C 33.42375,25.88875 33.38,25.989999 33.625,26 C 33.87125,26.0075 35.77125,26.04375 36.8125,26.375 C 37.8675,26.71125 38.636252,27.122499 39.46875,27.6875 C 40.30375,28.25375 40.63875,28.578749 41.34375,28.5 C 41.49375,28.485 41.4625,28.29875 41.34375,27.96875 C 40.73375,26.25875 39.2675,24.641251 37.71875,24.03125 C 37.49125,23.94125 37.082499,23.9475 36.96875,23.96875 z M 26.875,26.53125 L 26.75,27 L 31.25,27.03125 C 31.76375,27.031249 32.30375,27.44 32.0625,28.09375 C 31.916249,28.501249 31.80375,28.965 31.75,29.40625 C 31.71125,29.75 32.095,29.96875 32.3125,29.96875 L 41.46875,30 C 41.637499,30 41.71875,29.92625 41.71875,29.84375 C 41.718749,29.761249 41.7175,29.46375 41.6875,29.25 C 41.657501,29.04875 41.63375,29.03125 41.46875,29.03125 C 40.328751,29.03125 39.84875,28.52125 38.65625,27.75 C 37.457502,26.98125 35.7275,26.5325 34.21875,26.53125 L 26.875,26.53125 z M 43.71875,27.4375 C 43.633906,27.426367 43.552499,27.581562 43.5,27.6875 C 43.285,28.105 42.812501,28.572501 42.3125,28.78125 C 42.1125,28.8675 42.178748,29.03625 42.1875,29.1875 C 42.195,29.3425 42.20875,29.61875 42.21875,29.75 C 42.2225,29.88125 42.24125,29.999999 42.46875,30 L 44.25,30 C 44.335,30 44.408748,29.909999 44.40625,29.84375 C 44.355,29.0075 44.20375,28.175 43.78125,27.5 C 43.750625,27.450937 43.747031,27.441211 43.71875,27.4375 z M 26,30.40625 L 25.875,30.96875 L 30.6875,30.96875 C 31.37875,30.9725 31.79125,31.335 31.90625,31.8125 C 31.995,32.1825 32.151251,32.597502 32.3125,32.9375 C 33.247665,34.637845 36.302345,33.7318 37.125,33.46875 C 37.9,33.22 39.287499,32.36125 39.9375,31.875 C 40.315,31.59 40.962499,31.506251 41.3125,31.5 C 41.46,31.495 41.628749,31.532501 41.65625,31.34375 C 41.67875,31.1575 41.711251,30.8275 41.71875,30.65625 C 41.72625,30.48375 41.778751,30.4375 41.625,30.4375 L 26,30.40625 z M 42.40625,30.4375 C 42.30375,30.4375 42.223748,30.52125 42.21875,30.65625 C 42.20875,30.83 42.17125,31.2475 42.15625,31.375 C 42.14125,31.5025 42.151249,31.58625 42.28125,31.65625 C 42.7075,31.89375 43.302499,32.36625 43.5625,33.0625 C 43.60125,33.15875 43.718751,33.121248 43.75,33.0625 C 44.1225,32.3075 44.40625,31.41875 44.40625,30.53125 C 44.40625,30.4825 44.320002,30.4375 44.25,30.4375 L 42.40625,30.4375 z M 41.125,31.96875 C 40.436249,32.01625 39.73,32.645 38.78125,33.25 C 37.830001,33.855 35.8925,34.4075 34.0625,34.40625 L 25.125,34.40625 L 25.03125,34.875 L 33.15625,34.90625 C 33.517499,34.906249 33.85125,34.9875 34.09375,35.1875 C 34.783749,35.755001 35.64625,36.1625 36.59375,36.4375 C 37.020002,36.560002 37.7525,36.40375 38.40625,36.03125 C 40.037502,35.111249 41.0925,33.34875 41.4375,32.21875 C 41.530001,31.924999 41.35375,31.95125 41.125,31.96875 z M 42.03125,32.1875 C 41.956953,32.193594 41.938438,32.259688 41.84375,32.5625 C 41.525,33.62125 40.321251,35.465002 38.96875,36.25 C 38.52,36.5125 38.802498,36.552499 38.9375,36.53125 C 40.61375,36.28625 42.15375,35.396248 43.125,34.09375 C 43.26625,33.90125 43.15625,33.218751 42.90625,32.875 C 42.65625,32.53125 42.331251,32.247501 42.125,32.1875 C 42.086562,32.176563 42.056016,32.185469 42.03125,32.1875 z"
       transform="translate(342.13625,499.49781)"
       id="path3016"
       style="fill:#fbbf15;fill-opacity:1;fill-rule:nonzero;stroke:none" />
  </g>
</svg>
