<svg xmlns="http://www.w3.org/2000/svg" viewBox="0 0 254.72 157.66"><defs><style>.a{fill:#fff;}.b{fill:#fcb724;}.c{fill:#552c81;}.d{fill:#552583;}</style></defs><title>Los Angeles Lakers logo - Brandlogos.net</title><path class="a" d="M440.05,468.63s21.69-35.46,66.09-35.46,65.06,34.43,65.06,34.43h60.24l-2.39,14.8s-1.73,5.85-4.49,6.55h4.12s1.36,5.15-6.89,23h17.56s.7,31.33-37.19,46.14c0,0-19.63,6.19-29.6-4.49,0,0-20,37.19-66.46,37.19s-67.49-38.22-67.49-38.22h-54l8.62-15.5h-5.89l6.89-12.74H406l2.06-4.82h-5.49L416,494.77h7.58l3.09-7.58H420.1l10-18.59h10Z" transform="translate(-384.64 -433.17)"/><path class="b" d="M506.81,582.55c38,0,68.82-31.26,68.82-69.85s-30.82-69.85-68.82-69.85S438,474.11,438,512.7s30.78,69.85,68.78,69.85" transform="translate(-384.64 -433.17)"/><path class="c" d="M486.08,530a1.9,1.9,0,0,1-1.73-1.29,5.29,5.29,0,0,1,.07-3.13l15.91-28.24c.26-.52.92-1.62,1.69-1.62,1.4,0,2-1.84-.37-1.84H488.91c-2.39,0-2.39,1.8-.11,1.8a1.08,1.08,0,0,1,1,1.47l-3.53,6.37c-.44.7-1.4.77-2.43.77h-3a.37.37,0,1,0,0,.74h3c.81,0,1.47.26,1,1.18l-11.75,21.39c-.85,1.18-2.54,1.44-2.43-.81l4.16-31.33c.15-1-.11-1.66-1.14-1.66h-6.3a1.91,1.91,0,0,0-1.58.85l-2.25,2.84c-.29.29-.92.29-1.62.29h-5.3a.37.37,0,0,0,0,.74H461c.77,0,1.66.18,1.33.55l-6.08,7.62c-.18.22-.77.26-1.14.26h-1.69a.37.37,0,1,0,0,.74h1.44c.44,0,.44.22.26.41l-5.71,7.14a2.09,2.09,0,0,1-1.44.33h-5a.37.37,0,1,0,0,.74h4.31c.66,0,1.18.11.81.55L439.91,527c-1.51,2-8.84,2.91-10.27,2.91L457,478.64a2.91,2.91,0,0,1,2.32-1.47h5.82c2.72,0,2.65-1.84.29-1.84H436.22c-2.39,0-2.47,1.84.26,1.84h5.41c1.55,0,2,.92,1.62,1.69l-.77,1.4c-.26.44-.63.63-2.1.63h-9.57a.37.37,0,1,0,0,.74h9.54c.52,0,1.29.15.81,1.07l-1.33,2.5a1.72,1.72,0,0,1-1.47.55h-4.34a.37.37,0,0,0,0,.74h4.31c.63,0,.63.41.26,1l-3.09,5.71c-.26.48-.77.55-1.73.55h-1.73a.37.37,0,1,0,0,.74H434c.66,0,.81.37.52,1L432,500.18c-.37.66-.92.92-2.61.92h-9.57a.37.37,0,0,0-.37.37.4.4,0,0,0,.37.37h9.54c1.07,0,1.47.48,1.07,1.25l-4.93,9.28c-.29.41-1.1.48-2.47.48H413.4a.37.37,0,1,0,0,.74h9.54c1.14,0,1.84,0,1.51.66l-2.84,5.34c-.52.81-2,.81-2.58.81h-3a.37.37,0,1,0,0,.74h3c1.07,0,1.62.18,1.36.77L416.6,529c-.26,1-1.73,1-2.87,1h-14.8a.37.37,0,1,0,0,.74h14.76c1,0,2.21.11,1.77.92L413,536.26c-.22.37-1.07.41-2.25.41h-3a.37.37,0,1,0,0,.74h3c.74,0,1.62.07,1.33.63l-1.51,2.91a2.37,2.37,0,0,1-2.14,1.36H401c-2.72,0-2.65,1.84-.26,1.84l43.56,0c1.29,0,1.33-.18,1.91-1.1l6.44-11.27h33c2.39,0,1.8-1.77.41-1.84m-25.92-3.35c-.33,1.88-2.21,3.09-4.53,3.72l-2.43.63,2-3.57c.52-1-.63-1.55-1.88-.11-8.43,9.83-11.12,14.54-24.12,14.54h-3.5c-1.07,0-2.21-.41-1.51-1.44l4.6-8.58h17.49c2.39,0,1.77-1.8.37-1.84a3.31,3.31,0,0,1-2.65-1.69,2.57,2.57,0,0,1,0-2.5l6.7-8.91h11.12Zm2.5-11.23H451.8l13.73-18.12Z" transform="translate(-384.64 -433.17)"/><path class="c" d="M538.14,519.84c-6.44,7.81-10.05,10.46-16.61,10.46-2.21,0-3.39-.48-2.76-1.58l7.73-15.57h2.95c3.31,0,2.84,2.76,2,6.55-.15.52.22.55.63.11l7.36-12.92c.37-.81-.55-1-1-.37-3.68,5-7.55,4.64-9.21,4.64h-1.33l8.28-15.8h3.35c4.2.26,6.15,3.83,4.93,12.41h1.73l6.08-12c.48-1-.55-2-1.69-2H509.24c-2.39,0-2.5,1.84-.22,1.84,1.84,0,1.77,2.65.11,3.94L491.6,513.51l3.53,16.42a2.17,2.17,0,0,0,2.43,1.84H531.7a2.68,2.68,0,0,0,2.43-1.18l6.19-10.68c.88-1.47-1.07-1.36-2.17-.07m-23.75-7.47-3,0a.37.37,0,0,0-.37.37.4.4,0,0,0,.37.37l3.06,0c1,0,2,.15,1.73.59l-7.88,15.06c-1,1.8-3.06,1.33-3.39-.11L501,508.39l13.73-10.64c1.36-1.18,4-3.09,5.34-3.06h3c1.84,0,2.47.85,2,2l-.52,1c-.33.59-1.44.63-2.32.63h-1.73a.37.37,0,0,0,0,.74h1.69c.74,0,1.66,0,1.33.55l-6.37,12.15c-.33.52-1.66.63-2.76.63" transform="translate(-384.64 -433.17)"/><path class="c" d="M627.87,521c-.18-.88-.52-.33-1.1.77-.18.33-.74.37-1.33.37h-1.73a.37.37,0,1,0,0,.74h1.73c.66,0,.66.44.37,1.1a29.21,29.21,0,0,1-4.09,6.33,2.06,2.06,0,0,1-1.44.59h-1.77a.37.37,0,0,0,0,.74h1.73c.85,0,0,.52-.15.74a38.33,38.33,0,0,1-7.4,7.7,7.18,7.18,0,0,1-2.39.15h-1.73a.37.37,0,0,0,0,.74h1.69c1.29,0,.33.74.15.92-4.75,3.94-11.82,5.23-15.06,4.82-10.49-1.33-12.67-9.28-13.44-12.48-.15-.66-.66-2-.85-2.87-.33-1.66,4.42-2.14,5.71-1.25a22.23,22.23,0,0,0,10.27,2.69c3.35,0,10.27-2.43,12.26-8.21s-3.09-12.48-5.38-14.76c-2.91-2.91-5.63-7.51-4.46-10.86.88-2.54,2.32-3.72,5.45-3.72,4,0,7,2.58,7,6.26,0,.33-.22.7-.48.7H610a.37.37,0,0,0,0,.74h1.33a.54.54,0,0,1,.52.74c-.26,1.22-.33,2.1-.63,3.31-.15.7.88,1.22,1.25.7l6.33-11.27c.44-.85-.55-1.07-1.33-.81-1.73.59-4.53,1-5.52.29a12.38,12.38,0,0,0-7.81-2.8c-5.6,0-9.54,1.4-12.08,6-.18.37-.74.37-1.22.37h-1.07a.37.37,0,0,0,0,.74h.92c.41,0,.66.11.48.55a11.1,11.1,0,0,0-.48,1.33,11.54,11.54,0,0,0,.55,7.29c.07.15-.15.26-.52.26H589a.37.37,0,0,0-.37.37.4.4,0,0,0,.37.37h1.73c.77,0,1,.07,1.29.55.88,1.25,1.8,2.17,2.95,3.61.37.44-1.18.59-2,.59h-6.81a.37.37,0,1,0,0,.74H593a11.63,11.63,0,0,1,3.2.22c1.66,1.91,3.68,4.9,4,7.4.11.7-.18,1-1.07,1h-.92a.37.37,0,0,0,0,.74h.81c.7,0,1.07.11.92.63-.88,2.87-2.25,4.93-7.7,4.9-5.71,0-6.89-5.63-5.19-11.49.33-1.18,0-1.66-.55-.74l-4,6.26a1.4,1.4,0,0,1-1.1.52h-.55a.37.37,0,0,0-.37.37.38.38,0,0,0,.41.37c.52,0,.7.26.52.55L580,528.86c-2.39-5.49-6.44-12.26-8.58-14.73l0-.11c5.3-.33,13.14-5.3,14.4-9.72,2.21-7.7-5.27-10.57-9.35-10.57H558.58c-2.39,0-2.54,1.8-.26,1.8,1.25,0,2.32,1.07,1.77,2.17l-4,7.14c-.33.59-1.55.55-3.17.55h-1.73a.37.37,0,0,0,0,.74h1.69c1.14,0,2.39.07,2,.88l-4.71,8.47c-.22.41-.85.44-2.43.44H546a.37.37,0,1,0,0,.74h1.69c1.25,0,1.73.18,1.36.81l-6.26,11.34c-.74.81-1.66,1-3.17,1-2.28,0-2.25,1.8.11,1.8h15.35c2.39,0,1.77-1.84.37-1.84a1.78,1.78,0,0,1-1.14-2.43l7.84-14.84H563c3.5,0,4.34,5.71,5,12,0,.44-.81.48-2.54.48h-4.34a.37.37,0,0,0,0,.74h4.31c1.14,0,2.72,0,2.8.37a63.4,63.4,0,0,0,1,7.36c.15.7-1.07.59-2.36.59H561.3a.37.37,0,0,0,0,.74h5.56c1.73,0,2.65,0,2.72.37,2.39,8.76,12.63,15.65,22.61,15.28,8.54-.33,15.76-5,19.48-8,4.9-3.94,12.15-12.19,15.06-18.23.44-.81,1.33-2.21,1.14-3.2M570.4,509.31c-1.22,1-3.09,2.1-3.46,1.77a15.22,15.22,0,0,0-2.95-2l7.11-13a1.44,1.44,0,0,1,1.4-.7c2.76,0,3.68,3,2.39,6.74a15.91,15.91,0,0,1-4.49,7.18" transform="translate(-384.64 -433.17)"/><path class="d" d="M483.94,482.32c-1.44,1.88-3.35,2.32-5.49,2.32h-.59l3.79-7.47a1.25,1.25,0,0,1,1.07-.63c.48,0,.41-1-.22-1h-6c-.52,0-.7,1-.22,1s.59.55.37,1l-3.39,6.66c-.22.37-.59.44-1,.55s-.85,1.07-.26,1.07h9.5a1.05,1.05,0,0,0,1.1-.55l1.91-2.95c.26-.37-.29-.41-.59,0" transform="translate(-384.64 -433.17)"/><path class="d" d="M512.59,475.88a1.37,1.37,0,0,1-1.25,0,6,6,0,0,0-3-1.1c-2.25,0-3.87.44-4.82,2.54-.85,1.8,0,3.31,2,4.23.85.41,2,.92,1.55,2-.33.74-1.18.85-2,.81a3,3,0,0,1-2.91-2.32c-.07-.48-.66-.37-.81-.11L500,484.57c-.22.37.33.77.55.52a1.82,1.82,0,0,1,2-.29,7.76,7.76,0,0,0,3.42,1.22c2.28,0,3.76-.59,5-2.54,1.14-1.77.44-3.53-1.62-4.53-1.1-.52-2-1.44-1.55-2.43.33-.66,1.29-.52,1.77-.44a3,3,0,0,1,2.25,1.8.36.36,0,0,0,.66.11l.7-1.66c.18-.29-.33-.55-.52-.44" transform="translate(-384.64 -433.17)"/><path class="d" d="M578.53,478.57l.81-1.51c.37-.66-.22-1.44-1.18-1.44H567.08c-.81,0-.55.85-.22.85.7,0,.92.88.48,1.58L564,484.2a1.74,1.74,0,0,1-1.55.85c-.59,0-.77.85,0,.85h11.23a.81.81,0,0,0,.81-.41l1.55-2c.37-.48-.44-.48-.66-.26a6.86,6.86,0,0,1-5.52,1.88h-1.29l1.55-3.42h.33c1,0,2.14,0,2.43.74a.48.48,0,0,0,.77,0l1.33-2.61c.22-.41-.37-.48-.55-.18-.52.92-2.8.66-3.39.66h-.33l1.91-3.79h2.14a3.15,3.15,0,0,1,2.84,2c.07.26.77.44.92.15" transform="translate(-384.64 -433.17)"/><path class="d" d="M550.15,475.58h-3.94c-.81,0-.55.85-.22.85a1.33,1.33,0,0,1,1.14,1.91l-1.62,3-3.61-5.27a1.69,1.69,0,0,0-1.29-.48h-3.9c-.81,0-.63.81-.29.81.81,0,.63.63.41,1.07l-3.09,6a.71.71,0,0,1-1.29-.07L530,475.55c-.11-.29-1.51-.29-1.84,0l-6,4.93h-3.09c-.63,0-.85.26-.85.59s.22.63.88.63h1.62L519.14,483c-.92.66-1.84,1.58-2.43,1.58h-.37c-.59,0-.92.11-.92.55s.26.63.81.63h4.86c.92,0,.74-1.18.29-1.18s-1.33-.63-.55-1.55l1.47-1.4h2.91c1.73,0,2.95,2,1.91,2.61l-.81.44c-.37.18-.55,1.07,0,1.07h9.46c.7,0,.55-.92.22-.92-1,0-.52-1.4-.33-1.77l2.5-4.71,3.5,6.77c.22.41.44.63.85.63h1.33c.44,0,.55-.26.77-.59l4-7.18c.63-1.29,1.14-1.66,2-1.66.15.07.4-.77-.41-.77m-26.47,4.93,3.68-3v3Z" transform="translate(-384.64 -433.17)"/><path class="d" d="M494.07,475.14c-3.31,0-6.77,1.66-7.44,5.12a5.14,5.14,0,0,0,5.23,6.19,7.48,7.48,0,0,0,7.47-5.67c.63-3.35-1.88-5.63-5.27-5.63m1,6.41c-1.07,2.1-2.84,3.35-3.94,2.8s-1.18-2.72-.11-4.82,2.84-3.35,3.94-2.8,1.14,2.72.11,4.82" transform="translate(-384.64 -433.17)"/><path class="d" d="M561.41,480.26h-4.27c-.81,0-.55.85-.22.85a.63.63,0,0,1,.66.7c0,1.73-.74,2.39-2.21,2.39s-2.21-2-1.1-4.38a5.34,5.34,0,0,1,4.75-3c1.36,0,2.47.29,2.65,1.55,0,.29.52.29.66,0l1-1.8c.11-.18-.07-.44-.37-.44s-.85.33-1.22,0a8.27,8.27,0,0,0-4.12-1.25,8.17,8.17,0,0,0-7.66,4.27c-2,3.39.88,7,3.53,7,1.47,0,3.17-1.07,4.16-1.51l1.1.74a1.27,1.27,0,0,0,.85.44H560c.37,0,.52-.52.66-.85l1.69-4.05c0-.41-.07-.7-1-.7" transform="translate(-384.64 -433.17)"/><path class="d" d="M620,475.88a1.37,1.37,0,0,1-1.25,0,6,6,0,0,0-3-1.1c-2.25,0-3.87.44-4.82,2.54-.85,1.8,0,3.31,2,4.23.85.41,2,.92,1.55,2-.33.74-1.22.85-2,.81a3,3,0,0,1-2.91-2.32c-.07-.48-.66-.37-.81-.11l-1.36,2.69c-.22.37.33.77.55.52a1.82,1.82,0,0,1,2-.29,7.76,7.76,0,0,0,3.42,1.22c2.28,0,3.76-.59,5-2.54,1.14-1.77.44-3.53-1.62-4.53-1.1-.52-2-1.44-1.55-2.43.33-.66,1.29-.52,1.77-.44a3,3,0,0,1,2.25,1.8.36.36,0,0,0,.66.11l.7-1.66c.18-.29-.33-.55-.52-.44" transform="translate(-384.64 -433.17)"/><path class="d" d="M590.24,482.32c-1.44,1.88-3.35,2.32-5.49,2.32h-.59l3.79-7.47a1.25,1.25,0,0,1,1.07-.63c.48,0,.41-1-.22-1h-6c-.52,0-.7,1-.22,1s.59.55.37,1l-3.39,6.66c-.22.37-.59.44-1,.55s-.85,1.07-.26,1.07h9.5a1.05,1.05,0,0,0,1.1-.55l1.91-2.95c.26-.37-.29-.41-.59,0" transform="translate(-384.64 -433.17)"/><path class="d" d="M604.6,476.47a3.15,3.15,0,0,1,2.84,2c.07.26.81.44,1,.15l.81-1.51c.37-.66-.22-1.44-1.18-1.44H596.91c-.81,0-.55.85-.22.85.7,0,.92.88.48,1.58l-3.35,6.15a1.78,1.78,0,0,1-1.55.85c-.55,0-.77.85,0,.85h11.23a.81.81,0,0,0,.81-.41l1.55-2c.37-.48-.44-.48-.66-.26a6.86,6.86,0,0,1-5.52,1.88h-1.29l1.55-3.42h.33c1,0,2.14,0,2.43.74a.48.48,0,0,0,.77,0l1.33-2.61c.22-.41-.37-.44-.55-.18-.52.92-2.8.66-3.39.66h-.33l1.91-3.79Z" transform="translate(-384.64 -433.17)"/><path class="c" d="M483.94,482.32c-1.44,1.88-3.35,2.32-5.49,2.32h-.59l3.79-7.47a1.25,1.25,0,0,1,1.07-.63c.48,0,.41-1-.22-1h-6c-.52,0-.7,1-.22,1s.59.55.37,1l-3.39,6.66c-.22.37-.59.44-1,.55s-.85,1.07-.26,1.07h9.5a1.05,1.05,0,0,0,1.1-.55l1.91-2.95c.26-.37-.29-.41-.59,0" transform="translate(-384.64 -433.17)"/><path class="c" d="M512.59,475.88a1.37,1.37,0,0,1-1.25,0,6,6,0,0,0-3-1.1c-2.25,0-3.87.44-4.82,2.54-.85,1.8,0,3.31,2,4.23.85.41,2,.92,1.55,2-.33.74-1.18.85-2,.81a3,3,0,0,1-2.91-2.32c-.07-.48-.66-.37-.81-.11L500,484.57c-.22.37.33.77.55.52a1.82,1.82,0,0,1,2-.29,7.76,7.76,0,0,0,3.42,1.22c2.28,0,3.76-.59,5-2.54,1.14-1.77.44-3.53-1.62-4.53-1.1-.52-2-1.44-1.55-2.43.33-.66,1.29-.52,1.77-.44a3,3,0,0,1,2.25,1.8.36.36,0,0,0,.66.11l.7-1.66c.18-.29-.33-.55-.52-.44" transform="translate(-384.64 -433.17)"/><path class="c" d="M578.53,478.57l.81-1.51c.37-.66-.22-1.44-1.18-1.44H567.08c-.81,0-.55.85-.22.85.7,0,.92.88.48,1.58L564,484.2a1.74,1.74,0,0,1-1.55.85c-.59,0-.77.85,0,.85h11.23a.81.81,0,0,0,.81-.41l1.55-2c.37-.48-.44-.48-.66-.26a6.86,6.86,0,0,1-5.52,1.88h-1.29l1.55-3.42h.33c1,0,2.14,0,2.43.74a.48.48,0,0,0,.77,0l1.33-2.61c.22-.41-.37-.48-.55-.18-.52.92-2.8.66-3.39.66h-.33l1.91-3.79h2.14a3.15,3.15,0,0,1,2.84,2c.07.26.77.44.92.15" transform="translate(-384.64 -433.17)"/><path class="c" d="M550.15,475.58h-3.94c-.81,0-.55.85-.22.85a1.33,1.33,0,0,1,1.14,1.91l-1.62,3-3.61-5.27a1.69,1.69,0,0,0-1.29-.48h-3.9c-.81,0-.63.81-.29.81.81,0,.63.63.41,1.07l-3.09,6a.71.71,0,0,1-1.29-.07L530,475.55c-.11-.29-1.51-.29-1.84,0l-6,4.93h-3.09c-.63,0-.85.26-.85.59s.22.63.88.63h1.62L519.14,483c-.92.66-1.84,1.58-2.43,1.58h-.37c-.59,0-.92.11-.92.55s.26.63.81.63h4.86c.92,0,.74-1.18.29-1.18s-1.33-.63-.55-1.55l1.47-1.4h2.91c1.73,0,2.95,2,1.91,2.61l-.81.44c-.37.18-.55,1.07,0,1.07h9.46c.7,0,.55-.92.22-.92-1,0-.52-1.4-.33-1.77l2.5-4.71,3.5,6.77c.22.41.44.63.85.63h1.33c.44,0,.55-.26.77-.59l4-7.18c.63-1.29,1.14-1.66,2-1.66.15.07.4-.77-.41-.77m-26.47,4.93,3.68-3v3Z" transform="translate(-384.64 -433.17)"/><path class="c" d="M494.07,475.14c-3.31,0-6.77,1.66-7.44,5.12a5.14,5.14,0,0,0,5.23,6.19,7.48,7.48,0,0,0,7.47-5.67c.63-3.35-1.88-5.63-5.27-5.63m1,6.41c-1.07,2.1-2.84,3.35-3.94,2.8s-1.18-2.72-.11-4.82,2.84-3.35,3.94-2.8,1.14,2.72.11,4.82" transform="translate(-384.64 -433.17)"/><path class="c" d="M561.41,480.26h-4.27c-.81,0-.55.85-.22.85a.63.63,0,0,1,.66.7c0,1.73-.74,2.39-2.21,2.39s-2.21-2-1.1-4.38a5.34,5.34,0,0,1,4.75-3c1.36,0,2.47.29,2.65,1.55,0,.29.52.29.66,0l1-1.8c.11-.18-.07-.44-.37-.44s-.85.33-1.22,0a8.27,8.27,0,0,0-4.12-1.25,8.17,8.17,0,0,0-7.66,4.27c-2,3.39.88,7,3.53,7,1.47,0,3.17-1.07,4.16-1.51l1.1.74a1.27,1.27,0,0,0,.85.44H560c.37,0,.52-.52.66-.85l1.69-4.05c0-.41-.07-.7-1-.7" transform="translate(-384.64 -433.17)"/><path class="c" d="M620,475.88a1.37,1.37,0,0,1-1.25,0,6,6,0,0,0-3-1.1c-2.25,0-3.87.44-4.82,2.54-.85,1.8,0,3.31,2,4.23.85.41,2,.92,1.55,2-.33.74-1.22.85-2,.81a3,3,0,0,1-2.91-2.32c-.07-.48-.66-.37-.81-.11l-1.36,2.69c-.22.37.33.77.55.52a1.82,1.82,0,0,1,2-.29,7.76,7.76,0,0,0,3.42,1.22c2.28,0,3.76-.59,5-2.54,1.14-1.77.44-3.53-1.62-4.53-1.1-.52-2-1.44-1.55-2.43.33-.66,1.29-.52,1.77-.44a3,3,0,0,1,2.25,1.8.36.36,0,0,0,.66.11l.7-1.66c.18-.29-.33-.55-.52-.44" transform="translate(-384.64 -433.17)"/><path class="c" d="M590.24,482.32c-1.44,1.88-3.35,2.32-5.49,2.32h-.59l3.79-7.47a1.25,1.25,0,0,1,1.07-.63c.48,0,.41-1-.22-1h-6c-.52,0-.7,1-.22,1s.59.55.37,1l-3.39,6.66c-.22.37-.59.44-1,.55s-.85,1.07-.26,1.07h9.5a1.05,1.05,0,0,0,1.1-.55l1.91-2.95c.26-.37-.29-.41-.59,0" transform="translate(-384.64 -433.17)"/><path class="c" d="M604.6,476.47a3.15,3.15,0,0,1,2.84,2c.07.26.81.44,1,.15l.81-1.51c.37-.66-.22-1.44-1.18-1.44H596.91c-.81,0-.55.85-.22.85.7,0,.92.88.48,1.58l-3.35,6.15a1.78,1.78,0,0,1-1.55.85c-.55,0-.77.85,0,.85h11.23a.81.81,0,0,0,.81-.41l1.55-2c.37-.48-.44-.48-.66-.26a6.86,6.86,0,0,1-5.52,1.88h-1.29l1.55-3.42h.33c1,0,2.14,0,2.43.74a.48.48,0,0,0,.77,0l1.33-2.61c.22-.41-.37-.44-.55-.18-.52.92-2.8.66-3.39.66h-.33l1.91-3.79Z" transform="translate(-384.64 -433.17)"/><path d="M560.86,467.48c-.85-1-2-3.06-10.49-10.46-12.45-10.86-28.94-15.8-44.44-15.8-11.41,0-21.43,2.58-32.48,8.65-14.1,7.77-20,16.68-21.39,18.52-1.07,1.33-1.22,2.1-.52,2.5.48.29,1.44-.74,2.32-1.91,4.2-5.56,9.72-11,15.5-14.25,1.8.26,4.34,2.76,5.3,4.12a123.51,123.51,0,0,0-12.22,8.51c-2,1.55-2.72,2.43-2.17,3.06s2-.52,3.28-1.58a112.29,112.29,0,0,1,12.15-8.28c2.25,2.61,1.51,7.44.74,8.51-.41.55-.48,1.18,0,1.44s1-.41,1.62-1.33c1.51-2.21.92-7.51-.41-9.43,4-2.47,9.76-4.16,13.22-4.93.29.55,4.53,12.89,5.3,15.13.44,1.22.88,2.69,1.77,2.43.59-.18.18-1.51-.29-2.87-.63-1.66-3.79-12-4.79-15.1a41.6,41.6,0,0,1,9.79-2c-.85,4.49,2.32,6.37,5.93,8.73,1.91,1.25,14.1,8.25,16.64,9.83,1.44.88,2.58,1.47,2.87,1s-.63-1.51-2-2.28c-1.07-.63-12.41-7.18-17.12-10.2-3.39-2.14-5.19-4.42-4.38-7.44,1.1-.33,4.53-.37,8.06-.33,24.15.18,43.52,14,45.66,16.27,1.1,1.14,2.61,2.1,3.2,1.62s-.18-1.62-.7-2.21m-84.17-9.54c-.66-1.1-3.72-3.9-5.38-4.46,3.87-2.87,12.85-7,16.27-7.7a52.54,52.54,0,0,1,2.69,6.92c-3,.66-11,3.53-13.59,5.23m26.36-7.77a67.29,67.29,0,0,0-10.9,2c-.52-1.36-2-5.63-2.43-7a52.43,52.43,0,0,1,17.71-1.77c-1.4,1.1-3.83,5.49-4.38,6.74m15.69-.18a80.92,80.92,0,0,0-13.26-.15,15.09,15.09,0,0,1,4.93-6.41,67.23,67.23,0,0,1,10.16,1.25c9.35,1.84,23.86,7.55,30.12,15.94-8.32-5.6-22.2-10-32-10.64" transform="translate(-384.64 -433.17)"/><path d="M566.09,550.15c.88-1.66,1.62-2.58.85-3s-1.36,1.14-2.25,2.61c-2.84,4.9-5.89,8.95-12.85,15.28a63.37,63.37,0,0,1-19.66,12.15c-2.61-7.36-12.63-38.81-12.89-39.69-.41-1.33-.74-1.73-1.18-1.58s-.18.92.07,2.1,12.19,38.37,12.56,39.66c-2.36,1.18-12,3.87-18.67,4.09-6,.18-13,0-16.53-.81-4.16-3.35-13.59-16.68-17.19-23.79-4.23-8.36-7-16.05-7.73-19.33-.33-1.55-.77-2.69-1.58-2.54s-.37,1.4.15,3.06a111.84,111.84,0,0,0,7.73,19.11c4.68,9.21,13,20,15.43,22.94a65.71,65.71,0,0,1-25.63-11.71c-7.58-5.63-14.07-12.81-17.34-18.08-.55-.88-1.22-2.17-2-1.62-.37.26.07,1.25.66,2.28,4.75,8.54,16.35,20.62,31.19,27.25,17.31,7.73,36.16,7.33,53,.77,14.73-5.71,27.54-17.45,33.87-29.12" transform="translate(-384.64 -433.17)"/><path d="M560.86,467.48c-.85-1-2-3.06-10.49-10.46-12.45-10.86-28.94-15.8-44.44-15.8-11.41,0-21.43,2.58-32.48,8.65-14.1,7.77-20,16.68-21.39,18.52-1.07,1.33-1.22,2.1-.52,2.5.48.29,1.44-.74,2.32-1.91,4.2-5.56,9.72-11,15.5-14.25,1.8.26,4.34,2.76,5.3,4.12a123.51,123.51,0,0,0-12.22,8.51c-2,1.55-2.72,2.43-2.17,3.06s2-.52,3.28-1.58a112.29,112.29,0,0,1,12.15-8.28c2.25,2.61,1.51,7.44.74,8.51-.41.55-.48,1.18,0,1.44s1-.41,1.62-1.33c1.51-2.21.92-7.51-.41-9.43,4-2.47,9.76-4.16,13.22-4.93.29.55,4.53,12.89,5.3,15.13.44,1.22.88,2.69,1.77,2.43.59-.18.18-1.51-.29-2.87-.63-1.66-3.79-12-4.79-15.1a41.6,41.6,0,0,1,9.79-2c-.85,4.49,2.32,6.37,5.93,8.73,1.91,1.25,14.1,8.25,16.64,9.83,1.44.88,2.58,1.47,2.87,1s-.63-1.51-2-2.28c-1.07-.63-12.41-7.18-17.12-10.2-3.39-2.14-5.19-4.42-4.38-7.44,1.1-.33,4.53-.37,8.06-.33,24.15.18,43.52,14,45.66,16.27,1.1,1.14,2.61,2.1,3.2,1.62s-.18-1.62-.7-2.21m-84.17-9.54c-.66-1.1-3.72-3.9-5.38-4.46,3.87-2.87,12.85-7,16.27-7.7a52.54,52.54,0,0,1,2.69,6.92c-3,.66-11,3.53-13.59,5.23m26.36-7.77a67.29,67.29,0,0,0-10.9,2c-.52-1.36-2-5.63-2.43-7a52.43,52.43,0,0,1,17.71-1.77c-1.4,1.1-3.83,5.49-4.38,6.74m15.69-.18a80.92,80.92,0,0,0-13.26-.15,15.09,15.09,0,0,1,4.93-6.41,67.23,67.23,0,0,1,10.16,1.25c9.35,1.84,23.86,7.55,30.12,15.94-8.32-5.6-22.2-10-32-10.64" transform="translate(-384.64 -433.17)"/><path d="M566.09,550.15c.88-1.66,1.62-2.58.85-3s-1.36,1.14-2.25,2.61c-2.84,4.9-5.89,8.95-12.85,15.28a63.37,63.37,0,0,1-19.66,12.15c-2.61-7.36-12.63-38.81-12.89-39.69-.41-1.33-.74-1.73-1.18-1.58s-.18.92.07,2.1,12.19,38.37,12.56,39.66c-2.36,1.18-12,3.87-18.67,4.09-6,.18-13,0-16.53-.81-4.16-3.35-13.59-16.68-17.19-23.79-4.23-8.36-7-16.05-7.73-19.33-.33-1.55-.77-2.69-1.58-2.54s-.37,1.4.15,3.06a111.84,111.84,0,0,0,7.73,19.11c4.68,9.21,13,20,15.43,22.94a65.71,65.71,0,0,1-25.63-11.71c-7.58-5.63-14.07-12.81-17.34-18.08-.55-.88-1.22-2.17-2-1.62-.37.26.07,1.25.66,2.28,4.75,8.54,16.35,20.62,31.19,27.25,17.31,7.73,36.16,7.33,53,.77,14.73-5.71,27.54-17.45,33.87-29.12" transform="translate(-384.64 -433.17)"/></svg>