<svg xmlns="http://www.w3.org/2000/svg" viewBox="0 0 185.24 229.9"><title>Milwaukee Bucks logo</title><path d="M512.13,626.95a92.71,92.71,0,0,1-65-158.84c.13-.13.32-.25.45-.38-6.17-9.29-9.61-20.17-7-33.33,4.83-24.24,24.43-31.55,25.25-31.87a2.55,2.55,0,0,1,1-.19,2.92,2.92,0,0,1,2.54,1.53,2.83,2.83,0,0,1,.25,1.91,46.27,46.27,0,0,1,15.08-8.59,4.3,4.3,0,0,1,.89-.13,2.83,2.83,0,0,1,1.46,5.28,48.62,48.62,0,0,0-14.76,13.8,40.51,40.51,0,0,1,8.78-1.21h.57a2.88,2.88,0,0,1,.51,5.66,53.22,53.22,0,0,0-16.22,8A48.65,48.65,0,0,0,472,471.35a43.2,43.2,0,0,0,3.82,4.77c-.51-10.11,2.48-25.76,20.67-33a3,3,0,0,1,1.08-.19,2.79,2.79,0,0,1,2.54,1.59,2.88,2.88,0,0,1-1.08,3.75l-.13.06a23.93,23.93,0,0,0-6.87,6.74,26,26,0,0,1,4.64-.89h.51a2.81,2.81,0,0,1,2.67,1.91,2.9,2.9,0,0,1-1.15,3.37l-.19.13c-5.79,3.37-9,7.25-9.61,11.58-.64,4.71,2,9.16,3.82,11.7,4.9-5.66,8-15.27,8.91-18.89a2.87,2.87,0,0,1,2.8-2.16h.32a2.87,2.87,0,0,1,2.54,2.8c.06,11.9-3.12,20-6.36,25.19a25.89,25.89,0,0,0,10.69,2.61h.64A25,25,0,0,0,523,489.8c-3.24-5.22-6.42-13.36-6.36-25.19a2.78,2.78,0,0,1,2.54-2.8h.32a2.92,2.92,0,0,1,2.8,2.16c.89,3.63,4.07,13.23,8.91,18.89,1.91-2.54,4.45-7,3.82-11.7-.57-4.33-3.82-8.27-9.61-11.58-.06,0-.19-.13-.19-.13a2.87,2.87,0,0,1-1.21-3.37,2.81,2.81,0,0,1,2.67-1.91h.51a25,25,0,0,1,4.64.89,23.93,23.93,0,0,0-6.87-6.74l-.13-.06a2.93,2.93,0,0,1-1.08-3.75,2.86,2.86,0,0,1,2.54-1.59,3.23,3.23,0,0,1,1.08.19c18.13,7.25,21.12,22.9,20.67,33a43.2,43.2,0,0,0,3.82-4.77,48.65,48.65,0,0,0,6.17-42.75,51.46,51.46,0,0,0-16.22-8,2.88,2.88,0,0,1,.51-5.66h.57a40.07,40.07,0,0,1,8.78,1.21,49.31,49.31,0,0,0-14.76-13.8,2.83,2.83,0,0,1,1.46-5.28,4.3,4.3,0,0,1,.89.13,46.27,46.27,0,0,1,15.08,8.59,2.58,2.58,0,0,1,.32-1.91,2.85,2.85,0,0,1,2.54-1.53,2.55,2.55,0,0,1,1,.19c.83.32,20.42,7.63,25.25,31.87,2.61,13.17-.83,24-7,33.33a2.77,2.77,0,0,1,.45.38,92.19,92.19,0,0,1,27.74,66.09C604.88,585.35,563.27,626.95,512.13,626.95Z" transform="translate(-419.38 -397.05)" style="fill:#eee1c6"/><path d="M575.17,470.14l-2,2.42a86.77,86.77,0,1,1-122.14,0l-2-2.42a89.89,89.89,0,1,0,126.08,0Zm-119.59,6.74a81.64,81.64,0,0,0-23.92,57.32,83.41,83.41,0,0,0,1.4,15l24.24-6.55a55.1,55.1,0,0,0,109-.32l24.87,6.87a82.87,82.87,0,0,0,1.4-15,80.81,80.81,0,0,0-23.79-57.06l2.16-2.29a83.56,83.56,0,1,1-117.49-.13ZM443.36,435c4.58-22.9,23.41-29.71,23.41-29.71-6.87,5.09-13.93,14.69-16.86,28.12a41.44,41.44,0,0,1,8.52-8.27c7.63-16.48,20.67-23.16,27.1-25.19A52.13,52.13,0,0,0,466.07,421c9.61-3.44,15.39-3.12,15.39-3.12a55.79,55.79,0,0,0-17.94,9,51.36,51.36,0,0,0,6.3,46.18,46,46,0,0,0,10.31,10.69c-1.27-3.24-6.23-28.37,17.56-37.91l-.19.13A27,27,0,0,0,486,462a18.31,18.31,0,0,1,11.32-4.9c-.06,0-.06.06-.13.06-22.07,12.72-4.52,30-4.52,30,6.93-5.85,11-18.89,11.9-22.46.06,13.8-4.52,22.07-7.63,26.08a27.44,27.44,0,0,0,15.08,4.58h0a27.44,27.44,0,0,0,15.08-4.58c-3.12-4-7.7-12.28-7.63-26.08.89,3.56,5,16.6,11.9,22.46,0,0,17.56-17.24-4.52-30-.06,0-.06-.06-.13-.06,2.42.32,7,.7,11.32,4.9a26.5,26.5,0,0,0-11.45-16l-.19-.13c23.79,9.54,18.83,34.67,17.56,37.91a46,46,0,0,0,10.31-10.69,51.36,51.36,0,0,0,6.3-46.18,55.79,55.79,0,0,0-17.94-9s5.79-.32,15.39,3.12A51.27,51.27,0,0,0,538.59,400c6.42,2,19.4,8.72,27.1,25.19a38.5,38.5,0,0,1,8.52,8.27c-2.93-13.49-9.92-23-16.86-28.12,0,0,18.83,6.81,23.41,29.71,5.34,26.65-16,43.32-33.21,57.63l13.1-5.34c.89-.38,1.53.51,1.34,1.53l-.38,3.24c-.19,1.78-1.53,10.81-6.49,13.55-1.08.57-2.93,1.27-8.33,1.65l-9.86.64,1.65,5.53-9.67,15.46,5-5.22L544,559.65l-27.74,22.84,8.65-39.25-12.79,15.71-12.91-15.71,8.65,39.25-27.74-22.84,10.11-35.94,5,5.22-9.67-15.46,1.65-5.53-9.86-.64c-5.47-.38-7.32-1.08-8.33-1.65-5-2.74-6.3-11.77-6.49-13.55l-.38-3.24c-.19-1,.45-1.91,1.34-1.53l13.1,5.34C459.33,478.35,438,461.68,443.36,435Zm124.3,28.69s10.88-17.18,3.44-26.78a33.7,33.7,0,0,0-2.42-2.74C571.8,445.14,567.66,463.72,567.66,463.72Zm-111.07,0s-4.07-18.58-1.08-29.52c-.83.89-1.65,1.78-2.42,2.74C445.71,446.54,456.59,463.72,456.59,463.72Z" transform="translate(-419.38 -397.05)" style="fill:#00471b"/><path d="M483.56,588l.57-.89.06-.06-8.27-5.28-.06.06-10.43,16.35,2.54,1.59,4.58-7.19,3.18,2-4.58,7.19,2.54,1.59,8.84-13.8ZM477.39,592l-3.18-2,2.54-4,3.18,2Zm-3-11.39L459.52,593.3l-2-2,3.63-5.41-5.34,3.69-2-2,12.47-15.08,2,2-5,6.36,6.87-4.58.7.7-4.52,6.93,6.3-5.15Zm-14.69-18.07-17.3,9-1.4-2.67,17.3-9ZM457,557.36l-18.45,6.36-1-2.86,11.58-4-5.34-.19,4.13-3.44-11.64,4-1-2.86L453.86,548l1,2.86-4.13,3.44,5.34.19Zm-7.51,19.85,3.69,5.22-2.54,1.84-5.47-7.63L461,565.24l1.78,2.48Zm45.36,14.25-7,18.13-2-.76-5.22-2-2.1-.83L485.66,588l2.8,1.08-5.85,15.2,3.56,1.34,5.85-15.2Zm80-13.1,1.72,1.34-4.77,6-1.34,1.65L557.1,576.57l-1.72-1.4,6.11-7.63,1.72,1.4,2.93,2.29-1.84,2.35-2.16-1.72-2.35,3,10.31,8.21,2.35-3-2.23-1.78,1.84-2.35ZM571.67,565l12.4,1.65-1.46,2.8-9-1.15,7.51,4-1.4,2.67-17.24-9.16,1.4-2.67,4.77,2.54-3.56-4.83,1.53-2.8Zm17.24-12-2.8,9.41-2.1-.64-3.12-1,.89-2.86,2.23.7,1.08-3.63-5.15-1.53L578,560l-2.1-.64-8.33-2.48.64-2,2.23-7.32,2.1.64,3.05,1-.89,2.86-2.23-.64L571.35,555l4.45,1.34,2-6.49,2.1.64,6.93,2.1Zm-35.18,23.92,12.53,14.82-1.59,1.34-4.26,3.56-1.72,1.46-12.4-14.95,2.29-2,10.5,12.47,2.93-2.42-10.62-12.4Zm-22.2,30.79.57,3.05-9.22,1.78-3.75-19,9.22-1.78.57,3.05L522.69,596l.89,4.58,6.23-1.21.57,3-6.23,1.21,1.08,5.34ZM517.28,610l.06,3.12-9.35.13-.32-19.4,9.35-.13.06,3.12-6.36.13.06,4.71,6.36-.13.06,3.05-6.36.13.06,5.47Zm30.53-16.29.32-1.91-3-5.47-2.8-.76-6.74,3.63,9.22,17,6.74-3.63.83-2.86-2.86-5.28Zm-8.08-3.18,3.37-1.78,2.23,4.13L542,594.7ZM546,602.14l-2.61-4.77,3.37-1.78,2.61,4.77Zm-40.27-8.65-5,7L503,612.76l-3.12-.57-1.72-8.91-1.46,8.4-3-.51L497.05,592l3,.51-1,5.34,3.5-4.9Z" transform="translate(-419.38 -397.05)" style="fill:#fff"/><path d="M503.09,507.29c-1.4-.64-4.07-1.84-6.68-3.05a.84.84,0,0,0-1.21.64,4.09,4.09,0,0,0,1.4,4.13,4.81,4.81,0,0,0,6.81-.32A.89.89,0,0,0,503.09,507.29Z" transform="translate(-419.38 -397.05)" style="fill:#fff"/><path d="M466.77,492s1,8.08,4.33,9.92c2.29,1.27,7.82,1.15,12.72,1.53-5.41-2.1-13.36-7.82-17-11.45Z" transform="translate(-419.38 -397.05)" style="fill:#fff"/><polygon points="87.15 143.07 89.82 146.69 95.67 146.69 98.35 143.07 87.15 143.07" style="fill:#fff"/><path d="M557.48,492c-3.75,3.63-11.64,9.35-17,11.45,4.83-.38,10.43-.25,12.72-1.53,3.37-1.84,4.33-9.92,4.33-9.92Z" transform="translate(-419.38 -397.05)" style="fill:#fff"/><path d="M517.72,518.87l-2.61-8.52-3,1.46-3-1.46-2.61,8.52a10.8,10.8,0,0,1-4.58,5.73l-1.59,7,3.88,5.28h4.13l-3.82-5.66.64-3.5a9.51,9.51,0,0,0,6.93,3.05,9.27,9.27,0,0,0,6.93-3.05l.64,3.5-3.82,5.66H520l3.88-5.28-1.59-7A10.8,10.8,0,0,1,517.72,518.87Z" transform="translate(-419.38 -397.05)" style="fill:#fff"/><path d="M527.84,504.18c-2.67,1.21-5.28,2.42-6.68,3.05a.85.85,0,0,0-.25,1.4,4.8,4.8,0,0,0,6.81.32,4.09,4.09,0,0,0,1.4-4.13A1,1,0,0,0,527.84,504.18Z" transform="translate(-419.38 -397.05)" style="fill:#fff"/></svg>