<svg xmlns="http://www.w3.org/2000/svg" viewBox="0 0 197.06 159.75"><defs><style>.a{fill:#fff;}.b,.g{fill:none;}.c{fill:#b1b1b1;}.d{fill:#003da6;}.e{fill:#ff671d;}.f{fill:#0067b1;stroke:#007cc3;}.f,.g{stroke-width:0.07px;}.g{stroke:#f26649;}</style></defs><title>New York Knicks logo - Brandlogos.net</title><path class="a" d="M512.09,619l-13-16.95a42.72,42.72,0,0,1-29.25-38l-8.09-10.51a109.78,109.78,0,0,0-15.41,8.57L422,537.76l10.25-22.45-18.32-23.78h29.14l5.64-12.28,14.41-5.81,1.6-4.36,11.68,5.33,2.79-9.71,1.91-.63a99.52,99.52,0,0,1,30.79-4.81c.31,0,3.79,0,3.87,0,.4,0,2.11.09,2.11.09a99.3,99.3,0,0,1,25.78,4.56l1.94.63,2.56,9.26,4.22-3.19L576,479l5.7,12.45H611l-18.52,23.87,10.08,22.13-24.67,25.41s-9.06-6.61-15.24-9.06l-7.43,9.6a43,43,0,0,1-30.11,38.82l-13,16.75Z" transform="translate(-413.93 -459.25)"/><polygon class="b" points="182.36 39.46 14.58 39.46 98.19 148.01 182.36 39.46"/><polygon class="c" points="98.19 148.01 182.36 39.46 14.58 39.46 98.19 148.01"/><path class="d" d="M421.59,495.29l90.52,117.5,91.12-117.47Zm174.7,3.42L512.12,607.24l-83.6-108.53Z" transform="translate(-413.93 -459.25)"/><path class="d" d="M584.15,506.26l0-.09-.06,0-5.38-3.62,2-3.85.06-.09-.06-.11-7.41-16.24-.06-.11-.11,0-20-7.12-.14-.06-.11.09-5.3,4-.06.06,0,.06-.91,2.22a157.78,157.78,0,0,0-20.45-3.3c-1.25-.11-4.56-.4-9.83-.83l-.51,0-.54,0h-.11l-.09.09-4,3.93v-4s-11.19.63-18.54,1.62S478,481.62,478,481.62l-1.34-2.85,0-.09-.09,0-9.43-4.3-.26-.11-.09.28-1.11,3-.26-.6-.11-.26-.26.11-13.5,5.41-.09,0-.06.09L426.46,537l20.42,20.48.94-.54c.63-.34,1.48-.85,2.48-1.45,2.48-1.45,5.87-3.45,7.46-4.24l.34-.17c2.08-1,3.13-1.51,13.07-5.78L472,545s1.11-.43,3.16-1.11c5.47-1.82,19.63-6,33.36-6h.14c.54,0,1.08,0,1.65,0,9.31.26,20.22,2.25,27.74,3.85,7.21,1.57,12.65,3,14.19,3.48l1,.31a137.2,137.2,0,0,1,22.93,12l1,.63,20.68-21.31Z" transform="translate(-413.93 -459.25)"/><path class="e" d="M581.93,508.17l-19.88-13.27-3.45-9.71,6.15,2.19,2.48,6.07,9.37,3-5.47-12.08-17.66-6.27-3.25,2.51,5.87,19.08L575,513l4.84,12.08L572,521.55,569.29,514l-9.66-2.85,5.16,17c1.6.57,3.16,1.2,4.73,1.82,4.3,1.74,8.49,3.67,12.62,5.75,2.85,1.45,5.64,3,8.4,4.61l4.1-4.22Z" transform="translate(-413.93 -459.25)"/><path class="e" d="M447.83,517.17l6.64-5.92,1.6,1.85-6.55,18.8c3.59-1.57,7.21-3,10.91-4.33L465.15,512l-4.1-6.75,8.49-8.06,5-16.49-6.1-2.73-5.47,15.55-8.77,7.55,8-20.17-8.57,3.42-23.67,51.93,3.7,3.7q3.29-1.92,6.67-3.67Z" transform="translate(-413.93 -459.25)"/><path class="e" d="M507.82,480.14l-7.26.37-3.42,38.94q4.61-.43,9.31-.6Z" transform="translate(-413.93 -459.25)"/><path class="e" d="M529.35,511.38l-8.43-.51L519.58,487l7.15.34-.83-6.58-9.6-.68-4.3,4.3v29.82l4.5,4.61c4.64.14,9.26.48,13.82,1.05Z" transform="translate(-413.93 -459.25)"/><path class="e" d="M481.58,495.52l3,14.81-2,11.22c2.93-.57,5.92-1.05,8.92-1.45h0l4.7-39.05-6.75,1-2.22,12.79-2.51-12-7.92,2-11,41c3.19-1,6.41-1.88,9.66-2.68Z" transform="translate(-413.93 -459.25)"/><path class="e" d="M540.15,509.22l2.36-3.19,3.48,2.85,3.19,14.53c3.33.85,6.64,1.79,9.91,2.85l-6-21.31-6.12-5,3.5-4.64-2.91-10.8-7.41-1.65,2.91,10.88-4.61,6.15L535.08,482l-6.86-.88s3.45,26.26,5.07,39.19c3.1.43,6.18,1,9.23,1.6Z" transform="translate(-413.93 -459.25)"/><path class="c" d="M498.19,526.85s2.85-1.68,8.57-2.31l-.17-4.5c-3.13.11-6.24.31-9.34.6C497.53,522.41,497.93,525,498.19,526.85Z" transform="translate(-413.93 -459.25)"/><path class="c" d="M516.36,524.29a46.15,46.15,0,0,1,7,1.65,34.59,34.59,0,0,1,5.84,2.11l1-6.92c-4.59-.57-8.94-.91-13.64-1.05C516.45,521.38,516.45,523.29,516.36,524.29Z" transform="translate(-413.93 -459.25)"/><path class="c" d="M486.31,535.26c2.65-2,4.24-4,7.06-5.73-.54-2.51-1.22-5.78-1.77-8.26-3,.4-6.07.91-9.06,1.48C483.69,526.48,485.14,531.5,486.31,535.26Z" transform="translate(-413.93 -459.25)"/><path class="c" d="M531.52,529.42a34.2,34.2,0,0,1,6.92,5.44l.46.34,3.65-12.08c-3.13-.66-6.21-1.22-9.43-1.68Z" transform="translate(-413.93 -459.25)"/><path class="c" d="M543,539.93l8.72,2.05,7.32-14.5c-3.39-1.11-6.64-2-10.11-2.88Z" transform="translate(-413.93 -459.25)"/><path class="c" d="M473,542c2.28-.83,5.44-2,8.4-2.76l-5.67-15c-3.42.83-6.41,1.71-9.74,2.76C468.11,532,470.47,537.16,473,542Z" transform="translate(-413.93 -459.25)"/><path class="c" d="M459.82,547.36c.51-.43,5.44-2.56,8.83-4-2.56-4.64-5.67-9.8-8.23-14.53-3.67,1.31-7,2.68-10.62,4.27Z" transform="translate(-413.93 -459.25)"/><path class="c" d="M447.49,553.88c1.57-.94,3.25-1.91,5.07-3L441,537.28q-3.29,1.71-6.49,3.59Z" transform="translate(-413.93 -459.25)"/><path class="c" d="M556.35,543.77a131.54,131.54,0,0,1,20.51,10.71c1.77-1.71,11.42-11.82,12.76-13.22a157.22,157.22,0,0,0-25.24-11.94Z" transform="translate(-413.93 -459.25)"/><polygon class="c" points="101.09 64.81 97.79 64.7 97.73 56.63 101.18 60.23 101.09 64.81"/><path class="d" d="M512.46,522.47a39,39,0,1,0,39,39A39,39,0,0,0,512.46,522.47Z" transform="translate(-413.93 -459.25)"/><path class="f" d="M512.46,561.43" transform="translate(-413.93 -459.25)"/><path class="e" d="M514.85,525.37c-3,1.05-5.87,2.56-8.72,3.87-1.94-1.17-3.08-1.45-4.39-2.31C505.85,525.46,510.27,525.23,514.85,525.37Z" transform="translate(-413.93 -459.25)"/><path class="e" d="M506.14,529.36l0,0a23.51,23.51,0,0,0-2.45-1.28,14.06,14.06,0,0,1-1.94-1l-.17-.11.17-.06a31.36,31.36,0,0,1,11-1.62c.68,0,1.4,0,2.16,0l0,.17a60.25,60.25,0,0,0-6.52,2.85l-2.19,1.05ZM502,527a12.58,12.58,0,0,0,1.74.91,20.91,20.91,0,0,1,2.42,1.28l2.16-1c2-.94,4-1.91,6.07-2.68-.6,0-1.14,0-1.68,0A31.55,31.55,0,0,0,502,527Z" transform="translate(-413.93 -459.25)"/><path class="e" d="M542.8,541.92c-9.17-9.26-23-8.57-34.64-11.85a82.36,82.36,0,0,1,10.43-4.19A36,36,0,0,1,542.8,541.92Z" transform="translate(-413.93 -459.25)"/><path class="e" d="M542.71,542c-6.52-6.58-15.52-8.15-24.21-9.66a103.44,103.44,0,0,1-10.4-2.16l-.23-.06.23-.11c.06,0,6.92-3.3,10.45-4.19h.06a36.13,36.13,0,0,1,24.3,16.09ZM508.41,530c3.28.91,6.78,1.51,10.14,2.11,8.46,1.48,17.2,3,23.73,9.14a36,36,0,0,0-23.7-15.3A76.34,76.34,0,0,0,508.41,530Z" transform="translate(-413.93 -459.25)"/><path class="e" d="M491.15,543.32a45.3,45.3,0,0,0-3,44.83c-9.09-7.63-14.5-22.39-10.43-36.75C481.1,546.73,485.37,542.63,491.15,543.32Z" transform="translate(-413.93 -459.25)"/><path class="e" d="M488.1,588.21a33.85,33.85,0,0,1-10.17-15.89,36.9,36.9,0,0,1-.28-20.94v0c4-5.61,7.89-8.2,12.22-8.2a9.69,9.69,0,0,1,1.28.09l.14,0-.09.11a45.38,45.38,0,0,0-3,44.75Zm-10.28-36.77c-3.73,13.13.4,28,10.06,36.35a45.54,45.54,0,0,1,3.1-44.41c-.37,0-.74-.06-1.11-.06C485.63,543.34,481.81,545.91,477.82,551.43Z" transform="translate(-413.93 -459.25)"/><path class="e" d="M500.61,552.94c4.76,14.13,5.81,29.79,18.12,44-9.6,1.94-19.11-.94-26.69-5.73-9.4-13.7-8.52-34.15.88-47.46C497.48,545.11,500,551.12,500.61,552.94Z" transform="translate(-413.93 -459.25)"/><path class="e" d="M512.54,597.69A39.06,39.06,0,0,1,492,591.34l0,0c-9.17-13.42-8.8-33.84.88-47.54l0-.06.06,0c5,1.45,7.49,8.43,7.75,9.2,1.25,3.67,2.22,7.41,3.22,11.31,2.85,10.91,5.78,22.16,14.87,32.67l.11.11-.17,0A29.28,29.28,0,0,1,512.54,597.69Zm-20.45-6.49c4.56,2.88,11.82,6.32,20.45,6.32a32.55,32.55,0,0,0,6-.57c-9-10.51-12-21.76-14.81-32.64-1-3.93-2-7.63-3.22-11.31-.26-.77-2.71-7.61-7.55-9.09C483.35,557.56,483,577.87,492.09,591.2Z" transform="translate(-413.93 -459.25)"/><path class="g" d="M517.64,524.74" transform="translate(-413.93 -459.25)"/><path class="e" d="M494,542.32a41.66,41.66,0,0,1,4.84-5.7c20,5.64,39,26.35,42.27,46.69a37.58,37.58,0,0,1-4.76,5.21,35,35,0,0,1-15.67,8c-9.31-9.68-12.39-22.22-15.7-34.61-2.54-9.51-4.27-16.66-11-19.57Z" transform="translate(-413.93 -459.25)"/><path class="e" d="M520.63,596.64l0,0c-9-9.34-12.22-21.51-15.35-33.3l-.54-2.08c-2.48-9.29-4.24-16-10.74-18.8h-.06l0-.14,0,0a40.5,40.5,0,0,1,4.87-5.7l0,0,.06,0c9.71,2.73,19.46,9.09,27.46,17.86s13.33,19.08,14.9,28.91v0l0,0a30.82,30.82,0,0,1-4,4.47l-.77.77a35.11,35.11,0,0,1-15.72,8.06Zm-26.52-54.32c6.52,2.88,8.32,9.6,10.77,18.91l.54,2.05c3.1,11.74,6.32,23.87,15.27,33.16a34.79,34.79,0,0,0,15.58-8l.77-.77a28.6,28.6,0,0,0,4-4.42c-3.22-20-22.1-40.88-42.16-46.57A45.07,45.07,0,0,0,494.11,542.32Z" transform="translate(-413.93 -459.25)"/><path class="e" d="M540.66,542.23c-9.66-8.52-23.07-7.43-34.35-11.39a43.13,43.13,0,0,0-6.12,4.53c20,6.27,38.08,25.78,42.41,46A35.2,35.2,0,0,0,548.38,566C548.86,557.44,548.78,549.67,540.66,542.23Z" transform="translate(-413.93 -459.25)"/><path class="e" d="M542.54,581.57l-.06-.2c-4.27-19.94-22.47-39.68-42.36-45.89l-.17-.06.11-.11a44.15,44.15,0,0,1,6.15-4.56l0,0h0a80.32,80.32,0,0,0,12.22,2.91c7.78,1.42,15.84,2.91,22.16,8.49,8,7.35,8.26,14.84,7.75,23.84a34.81,34.81,0,0,1-5.81,15.38Zm-42.19-46.23c9.63,3,19.2,9.34,26.95,17.75s13.19,18.34,15.3,28A34.89,34.89,0,0,0,548.24,566c.51-9,.28-16.41-7.69-23.7-6.3-5.55-14.3-7-22.08-8.46a81.13,81.13,0,0,1-12.22-2.91A50.47,50.47,0,0,0,500.35,535.34Z" transform="translate(-413.93 -459.25)"/><path class="e" d="M497.19,536a37.64,37.64,0,0,0-4.87,5.81l0,0c-5.3-1.2-9.46,1.57-12.82,5a34.42,34.42,0,0,1,8.49-12c3.28.17,5.67.11,9.23,1.22" transform="translate(-413.93 -459.25)"/><path class="e" d="M479.53,546.82l-.14-.09a34.41,34.41,0,0,1,8.52-12l0,0h0c.4,0,.8,0,1.17.06a27.35,27.35,0,0,1,8.09,1.17l.14.06-.11.11a38.92,38.92,0,0,0-4.87,5.78l0,.06-.11,0a12.21,12.21,0,0,0-2.45-.28C486.31,541.61,483,543.26,479.53,546.82ZM488,534.88a35,35,0,0,0-8.26,11.45c3.42-3.36,6.61-4.93,10.06-4.93a10.51,10.51,0,0,1,2.48.28,38.44,38.44,0,0,1,4.73-5.64,27.52,27.52,0,0,0-7.86-1.11Z" transform="translate(-413.93 -459.25)"/><path class="e" d="M498.62,534.77a37.77,37.77,0,0,1,6-4.5l-5.13-2.54a33.5,33.5,0,0,0-9.57,5.5A45.19,45.19,0,0,1,498.62,534.77Z" transform="translate(-413.93 -459.25)"/><path class="e" d="M498.64,534.86h-.06a47.15,47.15,0,0,0-8.69-1.54l-.2,0,.14-.14a32.28,32.28,0,0,1,9.6-5.53l0,0,0,0,5.27,2.62-.14.09a38.79,38.79,0,0,0-6,4.5Zm-8.49-1.71a49,49,0,0,1,8.46,1.51,39.41,39.41,0,0,1,5.81-4.42l-4.93-2.45A32.72,32.72,0,0,0,490.16,533.15Z" transform="translate(-413.93 -459.25)"/><path class="d" d="M506.93,474.67l-1.57,1.57-2.71.17-1-.88-1.28,1.08-2.93.28-1.28-1.22,1.71-11.51,2.22-.31L498.9,474l1.6-.17,1.25-10.2,2.19-.23L503,473.53l1.57-.14.8-10.08c.94-.11,1.42-.09,2.25-.14Z" transform="translate(-413.93 -459.25)"/><path class="d" d="M514.17,463l0,7.24h1.42l-.11-7.21s1.48.06,2.16.11l.28,8.12-1.37,1.37-.46,0,.06,3.48-2.42-.09,0-3.48-.48,0-1.45-1.51.09-8.09Z" transform="translate(-413.93 -459.25)"/><path class="d" d="M496.22,464.36l-.37,2.39-2.71.51-.48,2.79c1-.17,1.6-.28,2.76-.43-.17,1-.2,1.4-.4,2.36l-2.71.4-.51,2.68,2.76-.4s-.28,1.79-.43,2.59c-1.94.23-3.9.51-5.75.85,0,0,2.08-9.66,2.59-12.65Z" transform="translate(-413.93 -459.25)"/><path class="d" d="M486.08,478.49l-2.82.54,1.28-5.27-.88-1.88-2.22,7.58-2.73.63c1.14-4.1,2.31-8.2,3.45-12.31.94-.31,1.65-.54,2.48-.77.31.68,1.05,2.08,1.05,2.08l.66-2.56s1.74-.46,2.62-.66Z" transform="translate(-413.93 -459.25)"/><path class="d" d="M525.56,465.27c.28,3.3.83,6.47,1.17,9.54l-1.22,1.88-4-.26-1.42-1.57c-.26-3.36-.43-6.75-.63-10.14.37-.48.91-.85,1.37-1.34l3.3.31Zm-3.7.54.71,7.86,1.4.11-.74-7.83Z" transform="translate(-413.93 -459.25)"/><path class="d" d="M538.38,466.44c.48,1.88,1.45,5.78,1.45,5.78l.94.2.46-.63-1.17-4.84s1.17.31,2.42.71l1.25,4.7-.6.85,1.08,1.2,1.65,5.7-2.71-.6-1.05-4-1.68-.37.91,4-2.76-.54c-1-4.3-2.71-12.76-2.71-12.76S537.3,466.09,538.38,466.44Z" transform="translate(-413.93 -459.25)"/><path class="d" d="M534.11,466.89l.91,4.7-.51.71.91,1.11.8,4.67-2.65-.46-.71-3.9-1.6-.17.57,3.79-2.65-.34-1.77-12.93,5,.88Zm-3.82.17.48,3.28,1.48.17-.63-3.22Z" transform="translate(-413.93 -459.25)"/></svg>