<?xml version="1.0" encoding="UTF-8" standalone="no"?>
<svg xmlns:rdf="http://www.w3.org/1999/02/22-rdf-syntax-ns#" xmlns="http://www.w3.org/2000/svg" height="239.88" width="239.99999" version="1.1" xmlns:cc="http://creativecommons.org/ns#" xmlns:dc="http://purl.org/dc/elements/1.1/" viewBox="0 0 239.99999 239.88"><path d="M120,0A119.94,119.94,0,1,0,240,119.88,119.86464,119.86464,0,0,0,120,0Z" fill="#8b8d8d"/><path d="M235.44,119.52C235.44,57.36,182.4,3.96,120.24,3.96,58.2,3.96,4.44,57.72,4.44,119.76c0,57,45.24,107.28,100.68,115.2a112.64855,112.64855,0,0,0,14.28.96h.24A115.81937,115.81937,0,0,0,150,231.84C198.36,217.92,235.44,171.36,235.44,119.52Z" fill="#cf0a2c"/><path d="M235.32,113.88H4.56c-.12,2.04-.12,3.96-.12,6a108.44963,108.44963,0,0,0,4.44,30.6H231.12a110.6718,110.6718,0,0,0,4.32-30.84C235.44,117.72,235.44,115.8,235.32,113.88Z" fill="#fff"/><path d="M105.12,234.96a112.65985,112.65985,0,0,0,14.28.96h.24A115.81937,115.81937,0,0,0,150,231.84c30.24-8.64,56.16-30.12,71.28-57.72H18.6C36.24,206.03992,68.52,229.8,105.12,234.96Z" fill="#0d2240"/><path d="M119.4,29.76s-.84-16.2-.96-17.04a3.12209,3.12209,0,0,1,.96-1.44c-.6,0-2.88.12-5.28.24-.6.12006-1.56.12006-1.32,2.52l.96,18,5.76-.36.36-.12A4.66906,4.66906,0,0,1,119.4,29.76Z" fill="#fff"/><path d="M177.72,33l2.04-3.72-8.52-4.92h-.12l-4.8-2.88a1.06826,1.06826,0,0,0-1.44.48c-.12.24-1.92,3.36-1.92,3.36L162.24,26.76a2.10019,2.10019,0,0,1,2.52-.36l3,1.68-7.68,13.44,5.4,3.12006a5.218,5.218,0,0,1,.48-1.92s4.32-7.44,6.84-11.76l2.28,1.32c1.44.84,1.32,3,1.32,3Z" fill="#fff"/><path d="M161.04,19.2,153,16.44c-2.52-.96-4.44-1.2-5.52-.72-1.08.36-1.92,1.68-2.76,3.96l-2.88,8.4a13.82393,13.82393,0,0,0-.72,2.52,3.53209,3.53209,0,0,0,.96,3,12.00935,12.00935,0,0,0,4.2,2.16l3.6,1.2c2.64.96,4.44,1.2,5.52.72,1.08-.36,2.04-1.68,2.76-3.96,0,0,1.44-3.96,1.68-4.56a1.67143,1.67143,0,0,0-.96-1.92l-6.84-2.28c-.72-.36-1.2.24005-1.56.84-.24.48-1.2,3.36-1.2,3.36l-.36.84a1.80845,1.80845,0,0,1,1.8-.36l2.4.84c-.36.96-.72,1.44-1.2,1.56a5.24882,5.24882,0,0,1-2.4-.36s-.96-.36-1.2-.48a1.52156,1.52156,0,0,1-.72-1.56,5.41771,5.41771,0,0,1,.36-1.56006l1.68-4.68c.36-1.2.84-1.92,1.32-2.04a5.55734,5.55734,0,0,1,2.52.36l6.12,2.16c1.08.36,1.32,1.8,1.32,1.8l.48-1.2,1.08-3.12C162.84,20.16,162,19.56,161.04,19.2Z" fill="#fff"/><path d="M99.84,13.32s1.8.48,2.16,1.92v.12l1.08,5.04L99,21.24a1.91581,1.91581,0,0,0-1.44,1.44l-1.68-8.64-6.96,1.44a3.71931,3.71931,0,0,1,1.8,2.16l3.6,17.64,4.08-.84c.84-.12,1.32-.36,1.56-.96L98.4,26.4l5.64-1.2L105.6,33l4.08-.84c.84-.24,1.44-.36,1.56-.96L107.16,11.76Z" fill="#fff"/><path d="M186.6,44.76l-3,3.84c-.84,1.08-1.56,1.56-2.04,1.56a4.85429,4.85429,0,0,1-2.16-1.2l.48.36c-.72-.6-1.2-.96-1.44-1.2a1.72558,1.72558,0,0,1-.24-1.68,7.12511,7.12511,0,0,1,.96-1.32l3-3.96c.84-.96,1.44-1.44,1.92-1.44a4.12574,4.12574,0,0,1,2.28,1.2l-.36-.36a7.114,7.114,0,0,1,1.32,1.2,1.47823,1.47823,0,0,1,.24,1.68A5.74652,5.74652,0,0,1,186.6,44.76Zm7.32-.12a3.43378,3.43378,0,0,0,0-3.24005,9.98764,9.98764,0,0,0-3.24-3.36l-3-2.4c-2.16-1.68005-3.72-2.52-4.92-2.4-1.2,0-2.52.96-3.96,2.76l-5.52,7.08a11.6148,11.6148,0,0,0-1.32,2.16,3.277,3.277,0,0,0-.24,3.12,12.29756,12.29756,0,0,0,3.36,3.48l3,2.28c2.16,1.68,3.72,2.52,4.92,2.52s2.52-.96,3.96-2.88l5.52-6.96Q193.38,45.53995,193.92,44.64Z" fill="#fff"/><path d="M90.48,27.72c-1.32-2.52-4.08-3.36-6.96-2.16L80.4,26.88c-1.08.48-1.92.36-2.4-.24a1.20849,1.20849,0,0,0-.12-.36c-.12-.48-.48-1.32,1.2-2.04l5.64-2.28c1.2-.6,3.12.72,3.12.72s-1.08-2.76-1.8-4.32a2.09,2.09,0,0,0-2.64-1.2l-6.96,2.88c-2.52,1.08-4.08,2.04-4.56,3.12-.6.96-.36,2.64.6,4.8l.72,1.92c.12.24.36.48.48.72a4.771,4.771,0,0,0,2.64,1.92,7.745,7.745,0,0,0,4.8-.6l2.64-1.08c1.08-.48,1.8-.36,2.28.24a2.02807,2.02807,0,0,1,.24.6s.24.96-1.92,1.92l-5.4,2.28a4.55679,4.55679,0,0,1-3-.72s1.08,2.64,1.8,4.32a1.98911,1.98911,0,0,0,2.64,1.08l.48-.24,3.84-1.56,2.64-1.08c2.52-1.08,4.08-2.04,4.56-3.12.6-1.08.36-2.52-.6-4.68C91.32,29.88,90.72,28.2,90.48,27.72Z" fill="#fff"/><path d="M206.88,56.04l-.96-1.2a3.169,3.169,0,0,1-.84,2.64l-6.12,4.8,3.96-10.68a.98571.98571,0,0,0-.12-.84c-.48-.6-3-3.84-3-3.84l-1.08-1.32s.24,1.92-.84,2.76L183.6,59.52,186.12,62.76c.48.6.96,1.08,1.56.96,0,0,3.6-2.88,7.56-6l-3.6,9.36c-.6,1.56006-1.56.6-1.56.6l.72,1.08L193.32,72c.48.6.84,1.08,1.56.84l15.6-12.24Z" fill="#fff"/><path d="M135.6,12.48l-1.56-.12a3.3,3.3,0,0,1,1.32,2.52v-.12l-.84,7.68-4.92-10.2a.81024.81024,0,0,0-.72-.48c-.72-.12-4.8-.6-4.8-.6l-1.68-.12s1.56,1.08,1.32,2.52l-1.92,18,4.08.48c.84.12,1.44.12,1.68-.48,0,0,.6-4.56,1.08-9.6l4.2,9.12c.6,1.56-.72,1.68005-.72,1.68005l1.2.12,4.08.48c.84.12,1.44.12,1.8-.48l2.16-19.68Z" fill="#fff"/><path d="M49.32,35.64l-.6.72-3.24,3.72h-.12c-.36.48-.72.96-.6,1.44l8.16,12.6L41.4,47.88a1.54669,1.54669,0,0,1-.84-2.16l-1.2,1.2-2.4,2.76c-.6.72-.96,1.44-.6,2.16l8.28,11.64-11.52-6a1.918,1.918,0,0,1-.96-2.4l-1.2,1.32L28.2,59.52V59.64a1.52824,1.52824,0,0,0-.12,2.16v.12l18,8.4,4.2-4.8a1.36581,1.36581,0,0,0,.48-1.68l-3.48-6.36,6.96,3.48L58.8,55.8a2.32663,2.32663,0,0,0,.36-2.16L49.68,37.68A2.37533,2.37533,0,0,1,49.32,35.64Z" fill="#fff"/><path d="M63.48,41.28l-1.08-3,2.76,1.8ZM59.16,29.76l-3.36,2.4a1.81178,1.81178,0,0,0-.96,1.68L60.6,51.36c.36,1.08-.96,3.12-.96,3.12l6-4.2a1.32862,1.32862,0,0,0,.48-1.68l-.84-2.4,4.56-3.24,1.8,1.08a1.26015,1.26015,0,0,1,.36,1.8l6.6-4.56Z" fill="#fff"/><polygon points="26.16 77.52 28.8 85.8 37.56 85.8 30.48 90.96 33.24 99.24 26.16 94.2 19.08 99.24 21.72 90.96 14.64 85.8 23.4 85.8 26.16 77.52" fill="#fff"/><polygon points="213.72 78.6 211.08 86.88 202.32 86.88 209.4 92.04 206.64 100.44 213.72 95.28 220.8 100.44 218.16 92.04 225.24 86.88 216.48 86.88 213.72 78.6" fill="#fff"/><path d="M117.6,219.72l.84-3.12,1.2,3.12Zm2.88-12H116.4c-.84,0-1.32.12-1.68.84l-5.4,17.64c-.36,1.08-2.52,1.92-2.52,1.92h7.32a1.40388,1.40388,0,0,0,1.32-.96l.72-2.52h5.52l.84,1.92c.36,1.32-.72,1.56-.72,1.56h8.04Z" fill="#fff"/><path d="M141.96,210.84a4.97606,4.97606,0,0,1,.12,2.28q-.18.72-.72.72l-3.36.72c-.72.12-1.32.84-1.8,1.8l-.96-5.28,5.4-1.08A1.168,1.168,0,0,1,141.96,210.84Zm7.8,11.88-4.32-4.8a4.17166,4.17166,0,0,0,2.16-1.32c.48-.84.48-2.4,0-4.8,0,0-.72-4.08-.96-4.68a3.15879,3.15879,0,0,0-1.68-2.28,8.3022,8.3022,0,0,0-3.48,0l-14.52,2.76s1.8.72,2.16,2.04l3.24,17.76,3.96-.84c.84-.12,1.44-.24005,1.56-.84l-1.08-6,2.88-.6,4.8,6,7.32-1.44A4.49263,4.49263,0,0,1,149.76,222.72Z" fill="#fff"/><path d="M162.24,203.16c.24.36,3.72,7.92,3.6,8.28a.9024.9024,0,0,1-.6.84l-5.28,2.28-3-7.08c-.24-.48-.72-1.56-1.2-2.76l5.16-2.16C161.4,202.31995,161.88,202.43994,162.24,203.16Zm3.84-4.8a3.33175,3.33175,0,0,0-2.16-1.8,6.7436,6.7436,0,0,0-3.36.72l-13.68,6s1.92.36,2.52,1.56l6.36,14.52a4.21139,4.21139,0,0,1-.24,2.4l13.2-5.64c1.8-.84,2.88-1.68005,3.24-2.64.24-.84-.12-2.4-.96-4.56l-3.96-8.64C166.56,199.31995,166.44,198.96,166.08,198.36Z" fill="#fff"/><path d="M109.2,211.8l.84-3.96s-15.12-3.24-15.36-3.36c-1.2-.12-1.68.72-2.04,1.68l-.6,2.76L91.8,210a3.15313,3.15313,0,0,1,2.28-.6l6.96,1.55994L89.4,220.8l-.72,3.24,15.24,3.36c.96.24,1.68.24,2.04-.72l1.08-5.04a3.26656,3.26656,0,0,1-2.4.84l-7.44-1.56Z" fill="#fff"/><path d="M84.36,220.68S89.64,205.2,90,204.6c.24-.72,1.32-1.08,1.32-1.08-.6-.24005-2.64-.96-4.92-1.8-.6-.12-1.56-.48-2.28,1.8l-5.88,17.04,5.52,1.92h.48A5.18115,5.18115,0,0,1,84.36,220.68Z" fill="#fff"/><path d="M83.4,201.24l-.84-.48-4.08-2.64a2.14957,2.14957,0,0,0-1.56-.48l-9,8.88,3.24-10.68c.24-1.08,1.92-1.08,1.92-1.08l-1.44-.96-3-1.92h-.12a1.82719,1.82719,0,0,0-2.16-.24005L57,200.28l4.08-10.44a2.00322,2.00322,0,0,1,2.28-1.2l-1.44-.96-3.6-2.16v-.12a1.64808,1.64808,0,0,0-2.28.24h0l-6.36,18.48,5.28,3.36c.84.48,1.2.6,1.8.24l5.76-4.32-2.4,7.44,5.76,3.6a2.2174,2.2174,0,0,0,2.28,0l13.32-12.48A2.6465,2.6465,0,0,1,83.4,201.24Z" fill="#fff"/><path d="M187.32,193.92c-1.8-2.16-4.68-2.4-7.2-.72l-2.88,1.92c-.96.72-1.8.84-2.4.24l-.12-.24c-.24-.48-.84-1.2.72-2.16l5.04-3.6c1.08-.72,3.24.12,3.24.12s-1.68-2.4-2.76-3.84a2.09668,2.09668,0,0,0-2.76-.6L171.96,189.36c-2.28,1.56-3.48,2.88-3.84,3.96-.24,1.08.24,2.64,1.56,4.56006l1.2,1.67993c.24.24005.36.48.6.72a4.48773,4.48773,0,0,0,3,1.2,6.76592,6.76592,0,0,0,4.56-1.56l2.4-1.56c.96-.72,1.68-.72,2.28-.24.12.24.24.36.24.6,0,0,.6.84-1.44,2.16l-4.8,3.36c-1.08.72-3.12-.12-3.12-.12s1.68,2.4,2.64,3.84a2.10224,2.10224,0,0,0,2.88.6l.48-.24,3.36-2.4,2.4-1.68c2.28-1.56006,3.48-2.88,3.84-3.96s-.24-2.52-1.56-4.44C188.64,195.84,187.56,194.4,187.32,193.92Z" fill="#fff"/><path d="M190.68,81.6a80.92441,80.92441,0,0,0-19.44-23.76c-1.56-1.2-3.12-2.4-4.68-3.48a79.64087,79.64087,0,0,0-46.44-14.88H120a80.40607,80.40607,0,0,0-80.4,76.2c-.12,1.32-.12,2.76-.12,4.08v.12a79.80146,79.80146,0,0,0,6.36,31.32c.48,1.2.96,2.4,1.56,3.6a83.03834,83.03834,0,0,0,18.36,24.72c1.92,1.67993,3.96,3.36,6,4.92a80.42851,80.42851,0,0,0,48.12,15.96H120a78.14911,78.14911,0,0,0,27.6-4.92A80.24128,80.24128,0,0,0,200.4,120v-.12a79.574,79.574,0,0,0-6.24-31.2A77.37357,77.37357,0,0,0,190.68,81.6Z" fill="#8b8d8d"/><path d="M192.12,89.52a59.79049,59.79049,0,0,0-3.24-6.84A77.34514,77.34514,0,0,0,169.8,59.52c-1.44-1.2-2.88-2.28-4.44-3.36a77.89438,77.89438,0,0,0-45.24-14.52H120A78.27677,78.27677,0,0,0,41.76,115.8c-.12,1.32-.12,2.64-.12,3.96v.12a77.65633,77.65633,0,0,0,6.12,30.48c.48,1.2,1.08,2.4,1.56,3.48a80.45771,80.45771,0,0,0,17.88,24,73.40455,73.40455,0,0,0,5.88,4.8,77.26767,77.26767,0,0,0,46.8,15.6H120a79.57852,79.57852,0,0,0,26.88-4.68A78.31072,78.31072,0,0,0,198.24,120v-.12A77.502,77.502,0,0,0,192.12,89.52Z" fill="#fff"/><path d="M105.36,84l1.8-6.6.36-1.56-8.28-4.68s-4.92-3.36-15.72,3C70.8,81.6,60.36,91.32,55.08,101.64a64.09415,64.09415,0,0,0-6.6,19.8A70.77788,70.77788,0,0,0,60.84,159.6c-2.16-20.4,17.52-42.72,32.88-57.96A54.52491,54.52491,0,0,0,105.36,84Z" fill="#0d2240"/><path d="M156.48,74.16c-10.8-6.36-15.72-3-15.72-3l-8.28,4.68.36,1.56,1.8,6.6a54.5246,54.5246,0,0,0,11.64,17.64c15.36,15.24,34.92,37.43994,33,57.72a70.8621,70.8621,0,0,0,12.12-38.64,63.81523,63.81523,0,0,0-6.48-19.08C179.64,91.31995,169.2,81.6,156.48,74.16Z" fill="#0d2240"/><path d="M130.32,61.92c28.56,3.24,47.4,19.44,57.12,33.84A72.21634,72.21634,0,0,0,142.56,51.6C138,53.04,132.84,55.92,130.32,61.92Z" fill="#cf0a2c"/><path d="M109.68,61.92C107.16,55.8,102,53.04,97.32,51.6a72.09678,72.09678,0,0,0-45,44.52A79.05761,79.05761,0,0,1,109.68,61.92Z" fill="#cf0a2c"/><path d="M114.36,61.08,120,52.8l5.64,8.28c2.28-6.12,5.88-9.6,9.48-11.52a74.054,74.054,0,0,0-30.24,0C108.48,51.48,112.08,54.84,114.36,61.08Z" fill="#cf0a2c"/><path d="M120,85.32c-.84.6-27.24,19.68-38.88,38.4-15.6,25.44-13.56,40.08-9.48,48.36a70.56105,70.56105,0,0,0,37.08,18l6-86.64,5.16-5.16H120l5.16,5.16,6.12,86.52-.12.12a71.46274,71.46274,0,0,0,37.32-18.12c4.08-8.4,5.88-23.04-9.6-48.24C147.24,105,120.84,85.92,120,85.32Z" fill="#0d2240"/><polygon points="125.16 103.44 120 98.28 120.12 196.32 131.16 190.08 131.28 189.96 125.16 103.44" fill="#8b8d8d"/><path d="M135.24,66.96a82.81505,82.81505,0,0,0-9.36-1.08l-2.28-.12v-.12l-.12-.12006-.84-1.8-.12-.12L120,58.32,119.16,60l-1.68,3.36v.24l-.12.12-.84,1.8-.12.12006v.12l-2.28.12a82.81479,82.81479,0,0,0-9.36,1.08,40.82457,40.82457,0,0,0-4.08.84L105,70.08l4.44,2.4,1.32.72,1.32.72-.84,3v.12l-.36,1.44-2.4,8.88,5.52-4.2,3.72-2.76,1.08-.84,1.2-.72v0l1.08.72,1.2.84,9.24,6.96-2.4-8.88-.24-.84-.12-.72-.84-3,.84-.48,1.8-.96,6-3.24,2.76-1.44A40.82457,40.82457,0,0,0,135.24,66.96Z" fill="#8b8d8d"/></svg>